<svg xmlns="http://www.w3.org/2000/svg" width="231" height="97"><path d="M132 62.8a56.4 56.4 0 0 0-20-3.2l-13-.5V36l13.4-.7a84 84 0 0 0 20.5-2.7 85 85 0 0 1 7.8-2.1c1.2 0 .4 34.2-.8 34.5-.5.2-4.1-.9-8-2.3zm8-14.3c.3-8.3.4-15.3.1-15.6-.3-.3-4.5.6-9.4 1.9l-8.8 2.4V57.9l8 2.7c4.4 1.6 8.3 2.8 8.6 2.9.4 0 1-6.7 1.4-15zm-10.3 9.4l-4.3-1.5v-8.5c0-7.8.2-8.5 2.3-9.2 4.3-1.6 7.7-2.2 7.7-1.3 0 .6-1.8 1.3-4 1.7-3.7.6-4 .8-4 4 0 3.3.2 3.5 3.5 3.5 2 0 3.5.4 3.5 1 0 .5-1.6 1-3.5 1-3.3 0-3.5.1-3.5 3.4 0 3.2.3 3.6 4 4.7 2.2.6 4 1.5 4 2 0 1.1-.6 1-5.7-.8zm-9.3-10.3v-10h-20v20h20zm-11 1c0-6.8 0-7-2.4-7-1.4 0-2.8-.5-3-1-.5-.7 1.7-1 5.8-1 3.8 0 6.6.4 6.6 1 0 .5-1.2 1-2.7 1h-2.8l.3 7c.3 4.5 0 7-.7 7s-1-2.7-1-7zM89 50a26 26 0 0 1-4.3-7c.2-.3 2.2 1.8 4.3 4.7l4 5.3.2-6.7c.4-8.8 2.2-8.8 2.1 0 0 11-.7 11.3-6.3 3.7zm56.6-1.7l-.2-8.7h4.9c6.2 0 8 1.7 6.3 6.1-.8 2.4-.8 4 .3 7 1 2.8 1 3.8.2 3.6-.7-.2-1.3-1.5-1.5-2.8-.6-3.6-2-5-5.8-5-3.1 0-3.3.2-3.7 4.3-.2 2.3-.4.3-.5-4.5zm9.6-4.6c-.3-2.4-.7-2.6-4.3-2.6-3.6 0-4 .2-4.3 2.6-.3 2.4 0 2.8 3 3 4.8.5 6 0 5.6-3zm-89.6 4.1l.3-7.7 5.9-.3c3.9-.3 5.6 0 5.1.7-.3.6-2.6 1-5 1-4.1 0-4.5.3-4.5 2.6 0 2.2.4 2.5 4 2.5 2.1 0 4.2.4 4.5 1 .4.6-1.1 1-4 1-4.3 0-4.5 0-4.5 2.9 0 2.8.2 3 5.3 3.3l5.2.4-6.3.2-6.3.2zm15.8-.3c0-6 .3-8 1.3-7.7.6.2 1.2 1 1.1 1.6l-.2 7.7c-.3 9.5-2.2 8-2.2-1.6z"/></svg>