<svg xmlns="http://www.w3.org/2000/svg" width="736" height="267"><path d="M105 239.2c.7-.3 1.8-.3 2.5 0 .7.2.1.5-1.2.5-1.4 0-2-.3-1.3-.5zm-65.5-1.6c-1.6-1.5-1.7-32-.2-34.8 1-2 2.3-2 36.2-1.7l35.3.2-34.5.3c-23.7.2-34.8.6-35.7 1.4-1.1.9-1.3 4.7-1.1 17.7l.3 16.6 11 .6 11 .5-10.6.2c-7.1.2-11-.2-11.7-1zm24.5.6c.7-.3 1.8-.3 2.5 0 .7.2.1.5-1.2.5-1.4 0-2-.3-1.3-.5zm10.5-.1c1.5-.2 3.8-.2 5 0 1.2.3 0 .4-2.7.4-2.8 0-3.8-.2-2.3-.4zm45 0c1-.2 2.5-.2 3.5 0 1 .3.2.5-1.7.5-2 0-2.8-.2-1.8-.5zm6.6-1c.7-.3 1.6-.2 1.9.1.3.3-.3.6-1.3.5-1.2 0-1.4-.2-.6-.6zm4-1c.7-.3 1.6-.2 1.9.1.3.3-.3.6-1.3.5-1.2 0-1.4-.2-.6-.6zm7-2c.7-.3 1.6-.2 1.9.1.3.3-.3.6-1.3.5-1.2 0-1.4-.2-.6-.6zm11.7-4.7c1-.9 2.4-1.5 3-1.5.5 0 0 .6-1 1.5-1 .8-2.4 1.4-3 1.4-.5 0 0-.6 1-1.4zm9.6-6a42.9 42.9 0 0 0 14.9-20.4c1.6-4.2 2.9-7.1 3-6.5 0 .7-1.3 4.5-2.7 8.4A34 34 0 0 1 163 220a51 51 0 0 1-9 7.8c-.6 0 1.4-2 4.3-4.4zM117.1 199c10.5-3.2 13.8-8.5 9-14.7-3.6-4.6-10.5-7-38.8-14a153 153 0 0 1-27.5-11.5 65 65 0 0 1-17.2-20.5c-4.6-10.9-3.7-28 2-39.1a61.1 61.1 0 0 1 16.2-17c8.6-6 19-9.5 33.6-11.4 11.3-1.4 94.2-1.3 95.7.2 1.4 1.4 1.7 34.4.3 35.2-.5.3-21.7.6-47.2.7-49.6.1-49.9.1-53.4 5.1-2.5 3.7-1.9 6.8 2.3 10.7 3.8 3.6 7.4 5 31.7 11.6a129 129 0 0 1 27.3 9.5c10.6 5.2 18 12 22.3 20.8 3 6.2 3.3 7.2 3.5 18.6l.2 12.1-.8-12c-.6-10.6-1-12.7-3.8-18a47.3 47.3 0 0 0-17.4-17.7c-11.4-5.6-14.7-6.9-25-9.6-6.2-1.7-15-3.8-19.3-4.7-4.4-.9-9.8-2.4-12-3.4-11.4-5.3-13.9-6.8-14.8-8.8-1.1-2.4-4.1-3-5.3-1.2-.4.7-1.3.4-2.6-.7-1.8-1.7-2-1.7-4.8 0a7.5 7.5 0 0 1-5.5 1c-2-.4-2.5-.2-2.5 1 0 2-1.4 2-3 .2-1.6-2-5.8-2.5-7.2-1-.6.8-2.3 1.4-3.7 1.4-4.2 0-5 1.2-5.3 7-.2 7.2 4.2 16.5 11.4 23.8 9 9.1 21.4 14.2 53 21.8 6 1.5 15 5.5 18 8.2 2.3 2 3.3 7.8 1.9 10.9-1.3 2.7-7.5 5.9-13.6 6.7-2.9.5-2.2 0 2.3-1.2zm-37.2-83.4c-.3-.8-.5-.5-.6.6 0 1 .2 1.7.6 1.3.3-.3.3-1.1 0-1.9zm111.4 44.6c0-1.1.3-1.4.6-.6.3.8.3 1.6 0 2-.4.3-.6-.3-.6-1.4zm.1-9.4c0-1.4.2-2 .5-1.2.3.7.3 1.8 0 2.5s-.5.1-.5-1.3zm0-26.2c0-7 .3-13.8.8-15.2l1-2.6h23.2c12.8 0 23 .2 22.7.5-.3.3-10.4.8-22.4 1-12 .4-22.3 1-22.7 1.4-.4.4-1.1 6.8-1.6 14.2l-.9 13.4-.1-12.7zm50.1-1.3c0-2.7.2-3.7.5-2.2.2 1.5.2 3.8 0 5-.3 1.2-.5 0-.5-2.8zm-1-9.5c0-2.5.2-3.5.5-2.2.2 1.2.2 3.2 0 4.5-.3 1.2-.5.2-.5-2.3zm-60.7-59.2c-8-.4-12.1-1.1-12.7-2a96 96 0 0 1-.8-16.5c0-12.4.2-15.4 1.5-16.7 1.4-1.3 5-1.6 23.5-1.6 25.6 0 24.9-.2 25 9.3a227 227 0 0 1-.6 25.7c-1.4 1.3-2.3-2.5-2.7-10.4-.4-7.8-.7-9.1-2.7-10.7a8 8 0 0 0-3.7-1.9c-.8 0-1.9-1-2.5-2.4-1-2.1-1.4-2.3-3.1-1.4-2.8 1.5-14.9 2-16.5.6-.7-.6-1.6-.8-2-.4-.4.4 0 1.1.8 1.6 1.2.8 1.1 1-.3 1.6-2.7 1-5-.3-4.3-2.5.8-2.3-1-3.7-1.8-1.5-.4 1-1.3 1.4-2.2 1-.8-.3-1.4 0-1.4.5s.6 1 1.5 1c2.5 0 1.6 2.9-1.1 4-1.6.5-2.4 1.5-2.1 2.3.2.7.8 4 1.2 7.1.4 3.2 1.4 6.6 2.3 7.7 2 2.3 6.2 2.4 6.2.2 0-1.6 0-1.6 1.8 0 1 .9 3.4 1.6 5.4 1.6 3.9 0 5.4 1.2 4 3.3-.6 1-3.5 1-12.7.5zm-8.5-8.8c0-.5-.5-1-1.1-1-.6 0-.8.5-.4 1 .3.6.8 1 1 1 .3 0 .5-.4.5-1zm17-22.5c0-1.6-2.7-3.2-3.7-2.1-.7.7 1.5 3.6 2.8 3.6.5 0 .9-.7.9-1.5zm1 19.1c0-.9.7-1.6 1.5-1.6 1.8 0 1.5 2.2-.4 2.8-.6.2-1.1-.3-1.1-1.2zm1.1-5.6c.3-.8 1-1.6 1.8-1.8.7-.2 1.1.1.9.9-.3.7-1 1.5-1.8 1.7-.7.3-1.1 0-.9-.8z" fill="#f6cb66"/><path d="M50.8 237.8l-11-.5-.3-16.3c-.2-10.9 0-16.9.8-17.7.9-1 8.8-1.4 37.3-1.7 31.4-.3 36.9-.6 41.5-2.1 7.7-2.6 10.5-5.7 9.9-10.8-.3-2.2-1.1-4.7-1.8-5.5a53 53 0 0 0-18.7-8.8c-31.6-7.6-44-12.7-53-21.8-7.2-7.3-11.6-16.6-11.4-23.7.2-5.9 1.1-7 5.3-7 1.4 0 3.1-.7 3.7-1.4 1.4-1.6 5.6-1 7.2 1 1.6 1.8 3 1.7 3-.3 0-1.2.6-1.4 2.5-1 1.6.4 3.6 0 5.5-1 2.7-1.7 3-1.7 4.8 0 1.3 1.1 2.2 1.4 2.6.7C80 118 83 118.7 84 121c1 2 3.4 3.5 14.8 8.8 2.2 1 7.6 2.5 12 3.4 4.4 1 13 3 19.3 4.7 10.3 2.7 13.6 4 25 9.6 6 3 14.1 11.2 17.4 17.6 2.8 5.6 3.1 7.2 3.5 17.6.4 11 .3 12-2.8 20.4-2.8 7.8-4 9.6-10 15.6-8 8-16.3 12.6-30 16.6-9.4 2.8-9.5 2.8-40.4 2.9-17 0-36-.2-42-.5zm81.7-4c14-3.8 22-8.4 30-16.8 5.3-5.6 6.8-8.2 9.2-14.7 2.5-7.1 2.7-8.9 2.4-18.4-.3-8.7-.8-11.4-2.8-15.3-3.3-6.5-6.1-8.3-11.2-7-4 1-10.7-.2-13-2.5-.9-1-1.5-.8-2.5.5-1.2 1.6-1.4 1.6-2.8-.5-1.7-2.3-7-2.7-9.7-.7-.7.6-2.1 1.4-3 1.7-2 .7-2.6 3.7-.8 3.7.5 0 1 .5 1 1 0 .7-1.4.9-3.6.5-2.3-.5-4-.3-5 .6-1.4 1.1-1.8 1-2.6-.4-1.2-2-2.8-2.2-2.8-.2 0 2.2-2.2 3-3.6 1.2-.6-1-1.6-1.7-2.2-1.7-.6 0-1.3-.5-1.5-1.2-.3-1-1.3-.7-3.3.8-3.4 2.4-4.2 4.4-2 4.4 1 0 2.3.6 3 1.3.7.8 3.9 2 7 2.6a34 34 0 0 1 15.9 9c2.3 2.5 3.2 8.4 1.7 12-1.5 3.5-4.9 5.5-14 8-6.5 1.8-10.3 2-39 2a552 552 0 0 0-33.4.7c-.8.3-1.7 1.5-2 2.7-.6 2.1-1 28.5-.4 29 .5.3 65.6 1.2 72.8.9a102 102 0 0 0 18.2-3.2zm-1.7-72c.3-.6 1-.8 1.5-.4 1.4.8 1.2 1.4-.6 1.4-.9 0-1.3-.4-1-1zm-31.5-.3c0-1.7-2-3.7-3.7-3.7-1.9 0-1.6 2 .4 3.6 2.2 1.7 3.3 1.8 3.3.1zm-20-45.3c0-1.1.3-1.4.6-.6.3.8.3 1.6 0 2-.4.3-.6-.3-.6-1.4zm113.3-63c.1-1.5-.7-2-3.8-2.2-2.2-.2-4.8-1-5.8-2-1.6-1.4-1.7-1.3-1.7.2 0 2.2-4.2 2.1-6.2-.2-.9-1-1.9-4.5-2.3-7.7a54 54 0 0 0-1.2-7.1c-.3-.8.5-1.8 2-2.3 2.8-1.1 3.7-4 1.2-4-.9 0-1.5-.5-1.5-1 0-.6.6-.8 1.4-.4.9.3 1.8-.2 2.2-1 .8-2.3 2.6-1 1.8 1.4-.7 2.2 1.6 3.5 4.3 2.5 1.4-.6 1.5-.8.3-1.6-.8-.5-1.2-1.2-.8-1.6.4-.4 1.3-.2 2 .4 1.6 1.3 13.7.9 16.5-.6 1.7-1 2.1-.7 3 1.4.7 1.3 1.8 2.4 2.6 2.4a8 8 0 0 1 3.7 1.9c2 1.6 2.3 3 2.7 10.7.2 5 .9 9.5 1.5 10.2.8 1-.8 1.2-7.5 1.2-4.7 0-9.9.3-11.5.6-2.6.5-3 .3-2.9-1.2zM192 42c.2-.6-.3-1.2-1.2-1.2-.8 0-1.5.7-1.5 1.6 0 1.8 2.1 1.5 2.7-.4zm1-6.1c.3-.8 0-1.1-.8-.9-.7.2-1.5 1-1.8 1.8-.2.7.2 1 1 .8.6-.2 1.4-1 1.7-1.7zm-23.2 10c-.4-.6-.2-1 .4-1 .6 0 1 .4 1 1 0 .5-.1 1-.4 1-.2 0-.7-.5-1-1zm15.4-22.6c-.7-.8-1-1.8-.6-2.1 1-1 3.7.5 3.7 2 0 2-1.4 2-3 .1z" fill="#f3a05d"/><path d="M193 238.1c-1-1.5-2-76.8-1.1-76 .5.5 1 17.6 1.4 38l.5 37.2 10 .3c18.8.6 29.5-4.7 35.2-17.3 1.6-3.6 1.8-8.7 2.3-48.5l.5-44.5.2 43.6c.3 48 .3 47.9-6 56.5-2.2 3.2-5 5.4-9.7 7.7-6.1 3-7.2 3.2-19.7 3.5-7.2.2-13.4 0-13.7-.5zm94 .6l-.7-64.7c-.4-51.9-.8-64.4-1.9-65-2.1-1.4-41.1-1.4-42.7-.1-1.8 1.5-4 .2-2.5-1.5.7-.9 1-7.6.8-19.2l-.2-17.9-24-.5-24-.5-.3-6.4c-.2-3.6.1-6.8.7-7.4.6-.6 6.1-1.3 12.3-1.6l11.3-.6.5-9.5.5-9.5 11.6-.3 11.6-.2.6 3.1c.4 1.8.7 9.9.7 18v15h140.9l.6 2.2c.3 1.2.4 9.6.2 18.7l-.2 16.5-22.5.6a698 698 0 0 0-22.9.7c-.2.1-.2 24.2 0 53.5l.4 53.3-3.4 6.6c-6.5 12.9-12.6 16-33.4 16.6-7.6.2-13.8.3-14 0zm30.8-3.9c15.2-5.7 19.2-16.4 18-49.6-1.3-41.5-1.6-76-.6-77.4.8-1.2 5-1.6 23.3-2l22.3-.5V90.8c.1-8-.2-15.5-.6-16.7l-.9-2.2-68.3.2-68.2.2v33l21.3.5c19.6.5 21.4.7 22.7 2.5 1.2 1.6 1.5 12.1 1.5 65.1 0 49.7.2 63.4 1.2 63.7.7.3 6 .4 11.8.2 7.8-.2 12-.8 16.5-2.5zm91.5 3.3c-6-1-18.4-5.5-23.8-8.5a80.2 80.2 0 0 1-13.3-10.8 55.1 55.1 0 0 1-16.5-31.7 64 64 0 0 1 0-26.5 62.4 62.4 0 0 1 64-53.6c15.5-.4 20.7.6 33.1 6.3a63.5 63.5 0 0 1 24.3 19c6.7 8 11.2 17.4 9.9 20.8a38 38 0 0 1-7 6.8c-10 8.4-38 35.9-37.3 36.7.4.4 11.6 1 24.9 1.2l24.2.5.6 17.4c.7 16.7 1.2 19.8 2.7 17.5a947.3 947.3 0 0 0 31-38c1-1.6 5.2-6.8 9.1-11.4 7.3-8.6 9-12 7.3-14.2l-9.8-12.3c-29.5-36.5-38.4-48-38.1-49 .2-.6 9-1 25.4-1.2l25-.3 4.7 5.2c2.5 2.8 8 9.3 12.1 14.4s7.9 9.5 8.3 9.8c1.4.9 10.3-8.7 19.5-21 2.6-3.4 5.2-6.6 6-7.3 1-.8 8.7-1 26.8-.8 28.5.3 28 0 22 7.4-24.3 30-44.4 55.5-45 57.1a246 246 0 0 0 22.7 29.2c2.7 2.5 20 23.4 25.4 30.8 5.4 7.4 6 7.2-23.1 7.2h-25.9l-5.9-7-7.8-9.4c-1.1-1.2-4.3-5-7-8.4a27.6 27.6 0 0 0-6-6.2 19 19 0 0 0-5 5.1l-12.5 15.5-8.4 10.4-67-.1c-37 0-68.3-.3-69.6-.6zM490 237c1.1-.7 1.3-4.1.7-18.7-.4-9.8-1-18-1.2-18.3-.2-.3-10.9-.4-23.6-.3-24.2.1-26.7-.1-26.7-2.1 0-1.2 21.6-22.9 37.6-37.8 8.1-7.4 8.2-7.6 7.4-11.2-2.3-10-17.3-25.9-30.8-32.3a67.2 67.2 0 0 0-34.7-7.1 63.9 63.9 0 0 0-32 9 58.3 58.3 0 0 0-29.1 43 65.7 65.7 0 0 0 0 26.2c4.6 26.2 23.8 43.7 54 49.4 6.4 1.1 76.6 1.4 78.4.2zm-95.4-55.2c-3-6.6-2.6-18 .7-24.4a29 29 0 0 1 20.5-15.6c5.4-1 7-1 12.7.5 7.6 2 9.4 3.7 8 7-.9 2.4-36.6 36-38.8 36.4-.6.2-2-1.6-3.1-3.9zm15.1-9.1l18.5-17.5c7-7 7.3-7.4 5.6-8.8-3.5-2.6-12.2-3.8-18-2.4-9.4 2.2-14.9 6.8-19.2 16.3a18.4 18.4 0 0 0-2.1 12.2c.6 6.3 2 10.4 3.5 10.4.4 0 5.7-4.6 11.7-10.2zm138 60.7a187 187 0 0 0 14.7-17.9c2.2-4 8.6-9.9 10-9.3 1 .3 6 5.8 11.3 12.2a466 466 0 0 0 13.4 15.6l3.7 3.9h17.4c9.6 0 20.3-.3 23.7-.6 5.6-.5 6.1-.8 5.3-2.4a536.5 536.5 0 0 0-26.4-32.5 225 225 0 0 1-10-12l-9.2-11.8a38.8 38.8 0 0 1-4.4-6.7c0-.4 2-3.6 4.7-7l8.3-11c7.1-9.6 9.7-13 16.3-20.6 3.7-4.3 9.1-11.3 12.1-15.4 4.6-6.4 5.2-7.6 3.8-8.2-1-.3-11.5-.7-23.3-.7h-21.6l-4.4 5.5c-6 7.7-15.7 19.4-18.3 22.1-3.8 4-5.6 3-14.9-8.4a476 476 0 0 0-12.6-15l-3.8-4.3h-22.7c-12.5 0-22.6.4-22.6.8s1.5 2.7 3.4 5.2l8.8 11.4a727 727 0 0 0 12.8 16 331 331 0 0 1 9.8 12.4c1.2 1.7 4.3 5.6 6.8 8.5 6.7 7.7 7 8.7 4 13-1.4 2.1-4.7 6.3-7.4 9.5-4.4 5-8 9.6-18 22.1l-5.8 7a211.2 211.2 0 0 0-16.4 21c0 1.5 5.6 1.8 27.4 1.8h20l4-4.2zm-356.3-77.5c0-1.9.2-2.7.4-1.7.3 1 .3 2.5 0 3.5-.2 1-.4.1-.4-1.8zm0-13c0-3.6.3-5 .5-3.2.2 1.8.2 4.7 0 6.5-.2 1.8-.4.3-.4-3.3zm48.8-23.6c0-1.1.3-1.4.6-.6.3.8.3 1.6 0 2-.4.3-.6-.3-.6-1.4zm427.5-18.6c-.3-.7-.6-6.2-.8-12.3l-.2-11-4.3-1c-4.6-1-6.3-3.5-4.2-6 1-1.3 3.5-1.5 13.9-1.1l14 .6c.9 0 2.8-.2 4.3-.5 5-1.3 7.5.1 10.4 6 1.5 3 3.3 5.5 4 5.5.7 0 2.5-2.6 4-5.7 2.6-5.3 3.2-5.8 6.4-6 1.9-.2 4 0 4.6.5.8.5 1.4 5.5 1.7 15 .5 15.8 0 17.6-4.9 17-2.8-.3-3-.6-4-6.6l-1-6.4-2.2 3.1c-2.8 3.9-6.3 4-9 .6-1.1-1.4-2.3-2.5-2.6-2.5-.4 0-.6 2-.6 4.4 0 6.7-.7 7.6-5.2 7.6-2 0-3.9 0-4-.2l-.7-13.3-.6-13-2.5.3c-7.4.8-7 0-7.3 13.5l-.2 12.2-4.3.3c-2.8.2-4.4-.1-4.7-1zm6.6-5.5V83.6c-.1-5.7.2-7 2-8.8 1-1.2 1.8-2.4 1.6-2.6-.3-.3-4.3-.3-8.9-.2-6.7.3-7.8.5-5.3 1.2 5.3 1.6 5.5 2 5.5 14 0 6.2.3 11.6.6 12 .4.3 1.5.6 2.5.6 1.5 0 1.9-.9 2-4.7zm19.9-2.5c0-4 .4-7.9.8-8.6 1.5-2.4 4.3-.8 5.7 3.2a18 18 0 0 0 2.3 4.9c1.5 1.4 3.9-.7 5.7-5 1.3-3.3 4-5.2 5.2-3.9.4.4 1 4.2 1.2 8.4.4 6 .9 7.7 2 7.7 1.3 0 1.6-2.1 1.6-13.5V72.3l-3.3-.3c-2.8-.3-3.3 0-3.9 2.5-1 4-5.3 11.3-6.8 11.3-.7 0-3-3.1-5-7-3.3-6.2-4-7-6.6-7h-3v14c0 13.4.2 14 2 14 1.9 0 2-.7 2-7.2z" fill="#5d92c5"/><path d="M74.3 236.8c-18-.3-32.7-.7-32.8-.8-.5-.4-.2-26.8.4-28.9.3-1.2 1.2-2.4 2-2.7.8-.3 15.8-.6 33.3-.6 28.8 0 32.6-.3 39.2-2 9-2.6 12.4-4.6 14-8.2 1.4-3.5.5-9.4-1.8-12a34 34 0 0 0-15.9-8.9c-3.1-.7-6.3-1.8-7-2.6a5 5 0 0 0-3-1.3c-2.2 0-1.4-2 2-4.4 2-1.5 3-1.7 3.3-.8.2.7.9 1.2 1.5 1.2s1.6.8 2.2 1.7c1.4 1.8 3.6 1 3.6-1.2 0-2 1.6-1.9 2.8.2.8 1.5 1.2 1.5 2.5.4 1-.9 2.8-1 5.1-.6 2.2.4 3.6.2 3.6-.4 0-.6-.5-1-1-1-1.8 0-1.1-3.1.7-3.8 1-.3 2.4-1 3.1-1.7 2.7-2 8-1.6 9.7.7 1.4 2 1.6 2.1 2.8.5 1-1.3 1.6-1.4 2.5-.5 2.3 2.3 9 3.6 13 2.5 5-1.3 8 .5 11.2 7 2 3.9 2.5 6.6 2.8 15.3.3 9.5.1 11.3-2.4 18.4-2.4 6.5-4 9-9.2 14.7-8 8.4-16 13-30 16.8-13 3.5-16.7 3.7-58.2 3zm59-74.4c0-1-2-1.5-2.5-.6-.4.6 0 1 .9 1s1.6-.2 1.6-.4zm-37.3-1c-2-1.5-2.3-3.6-.4-3.6 1.6 0 3.7 2 3.7 3.7 0 1.7-1 1.6-3.3 0z" fill="#ee6b3c"/><path d="M297 237.1c1.8-.2 4.7-.2 6.5 0 1.8.2.3.4-3.2.4-3.6 0-5-.2-3.3-.4zm133 0c8-.2 20.5-.2 28 0 7.6.1 1.2.3-14.2.3-15.4 0-21.6-.2-13.7-.3zm49 0c1.8-.2 5-.2 7 0s.6.4-3.2.4c-3.9 0-5.6-.2-3.8-.4zm32.5 0c4.8-.2 12.7-.2 17.5 0 4.8.2.9.3-8.7.3-9.7 0-13.6-.1-8.8-.3zm29.6 0c.7-.3 1.6-.2 1.9.1.3.3-.3.6-1.3.5-1.2 0-1.4-.2-.6-.6zm65 0c2.8-.2 7.3-.2 10 0 2.5.2.2.4-5.3.4s-7.7-.2-4.8-.4zm22.4 0c2.7-.2 6.7-.2 9 0 2.4.2.2.4-4.7.4-5 0-6.9-.2-4.3-.4zm-317.4-1c.7-.3 1.6-.2 1.9.1.3.3-.3.6-1.3.5-1.2 0-1.4-.2-.6-.6zm179.5-7.8c0-5 .2-7 .4-4.8a65 65 0 0 1 0 9c-.2 2.7-.4.8-.4-4.2zm9.6 1.5c1.8-2.2 3.7-4.3 4.4-4.7.6-.4-.6 1.4-2.7 4-2.2 2.6-4 4.7-4.3 4.7-.3 0 1-1.8 2.6-4zm48 2.6c0-.2.8-1 1.8-1.7 1.6-1.3 1.6-1.2.4.4-1.3 1.6-2.1 2.2-2.1 1.3zm42.5-5.8l-3-3.3 3.3 3a25 25 0 0 1 3.3 3.2c0 .8-.9.1-3.6-3zm47.5-2.5l-2.4-2.8 2.7 2.4c1.5 1.4 2.8 2.6 2.8 2.8 0 .8-.9.1-3.1-2.4zm-259-1l-2.4-2.8 2.7 2.4c2.6 2.3 3.2 3.1 2.4 3.1-.1 0-1.4-1.2-2.7-2.7zm126 .3c0-.2.8-1 1.8-1.7 1.6-1.3 1.6-1.2.4.4-1.3 1.6-2.1 2.2-2.1 1.3zm51.6-1.6c1-1 2-2 2.3-2 .2 0-.3 1-1.3 2-1 1.1-2 2-2.4 2-.2 0 .4-.9 1.4-2zm-268.2-8c0-5.2.2-7.3.4-4.7.2 2.6.2 6.9 0 9.5-.2 2.6-.4.4-.4-4.8zm43.7 7c1.5-3 2-3.6 2-2.3 0 .5-.7 1.8-1.6 2.9-1.5 1.8-1.5 1.8-.4-.6zm39.9-3.7l-3.4-3.8 3.7 3.5a34 34 0 0 1 3.8 3.7c0 .8-.9 0-4.1-3.4zm258.9-1.5c-4-4.8-7.6-9.8-5.2-7.3 2.6 2.7 10.5 12.5 10.1 12.5-.3 0-2.5-2.3-5-5.2zm-119.8.7c1.2-1.4 2.5-2.5 2.8-2.5.3 0-.6 1.1-1.8 2.5a11.8 11.8 0 0 1-2.9 2.5c-.3 0 .6-1.1 1.9-2.5zm50-.5c.5-1 1.3-2 1.5-2 .3 0 0 1-.5 2-.6 1.1-1.3 2-1.6 2-.3 0 0-.9.6-2zm17-4c-2.8-3.3-5.7-6-6.3-6-.6 0-2.3 1-3.7 2.3l-2.5 2.2 2.4-2.7c1.3-1.5 3-2.8 3.5-2.8 1 0 4.4 3.3 10.5 10.3 1.3 1.5 2.2 2.7 1.9 2.7-.3 0-2.9-2.7-5.8-6zm-244 1.4c0-1.1.3-1.4.6-.6.3.8.3 1.6 0 2-.4.3-.6-.3-.6-1.4zm32-3.6c-1.5-2-1.8-2.7-.7-1.9 1.7 1.4 4.1 5.1 3.4 5.1-.2 0-1.4-1.4-2.7-3.2zm123.3-1.8c0-3 .1-4.2.4-2.7.2 1.5.2 4 0 5.5-.3 1.5-.4.2-.4-2.8zm27.2 1.5c1-1.4 2-2.5 2.6-2.5.4 0-.1 1.1-1.3 2.5a13.8 13.8 0 0 1-2.5 2.5c-.2 0 .3-1.1 1.2-2.5zm102.3-7.8c-3-3-7-7.5-8.8-10.1l-8.8-11.3c-5.2-6.4-6-8.8-4.3-12.2.8-1.5.5-1.7-2.1-1.3-1.9.3-3.3 1.2-3.6 2.3-.5 2.2-3 3.2-3.9 1.7-.4-.6.3-1.8 1.5-2.6 2.6-1.7 2.8-5.2.4-8-1.6-2-2.1-2.1-5.2-1-2 .6-4.3 1.5-5.3 2-1 .4-2.4.8-3.2.8-.8 0-2 1-2.5 2-.6 1.1-1.9 2-2.8 2-1 0-1.3-.3-.7-.7.9-.6 3.5-6.5 3.5-7.8 0-.7-4.6 1-5.2 1.8-.4.6-2.3 1-4.2 1.2-3.5 0-6.5 1.5-3.3 1.5 1 0 2.6 1 3.7 2 2.4 2.5 2.6 4.5.3 3.2-1.1-.6-2.5-.6-4 0-2 1-2.8.8-4.9-1.2l-2.4-2.3-3 3.3c-1.7 1.9-3 4.2-3 5.3 0 1-1 3-2 4.4-1.1 1.4-1.8 3-1.5 3.4.3.5.1 1-.4 1a66.9 66.9 0 0 0-13.6 14.3c-1.1 1.8-3.8 5-6 7.2-2.2 2.1-3.3 3-2.5 2 2.4-3.4 9-11.7 15-18.6 3-3.6 6.5-8 7.8-9.8 2.8-4 2.5-5.3-4.2-13-2.5-2.8-5.6-6.7-6.8-8.4a331 331 0 0 0-9.8-12.4 727 727 0 0 1-21.6-27.4 26.5 26.5 0 0 1-3.4-5.2c0-.4 10.1-.8 22.6-.8h22.7l3.8 4.3c2.2 2.3 7.8 9 12.6 15 9.3 11.5 11 12.4 14.9 8.4 2.6-2.7 12.2-14.4 18.3-22l4.4-5.7h21.6c11.8.1 22.3.5 23.3.8 1.4.6.8 1.8-3.8 8.2-3 4.1-8.4 11-12.1 15.4-6.6 7.7-9.2 11-16.3 20.6l-8.3 11a43.7 43.7 0 0 0-4.7 7c0 .5 2 3.5 4.5 6.7l10 13.1c3.1 4 7.5 9.1 9.8 11.3 2.2 2.1 3.8 4 3.4 4-.3 0-3-2.5-5.9-5.4zm-70.9-39.1c1.4-1.7 1-4.7-.5-5.3-.6-.2-1.9.3-2.9 1-1.5 1.2-1.6 1.7-.6 3.5 1.3 2.6 2.4 2.8 4 .8zm8.6-1.6c.3-.5.1-1-.5-1s-1 .5-1 1c0 .6.2 1 .4 1s.7-.4 1-1zm20.9-2c-.3-.6-1-.7-1.5-.4-.6.3-.7 1-.4 1.5.3.5 1 .7 1.5.4.6-.4.7-1 .4-1.6zm25.6-2c0-.5-.7-1-1.5-1-.9 0-1.5.5-1.5 1 0 .6.6 1 1.5 1 .8 0 1.5-.4 1.5-1zm-268.3 37a109 109 0 0 1 .2-15.2c.3-1.6.7 3.8.8 12.1.2 8.3.1 15.1 0 15.1a94 94 0 0 1-1-12zm-46.6 7c0-1.4.2-2 .5-1.2.3.7.3 1.8 0 2.5s-.5.1-.5-1.3zm161.6-.7c1.3-.2 3-.2 4 0 1 .3 0 .5-2.2.5s-3-.2-1.8-.5zm-12-1c-1.4-1.3-.5-2.5 10.7-13.9a61.1 61.1 0 0 0 11-12.8c-.4-.8.5-1.6 2-2 2.3-.5 2.5-1 1.5-2.1-.6-.8-1-2.1-.6-3 .8-2 4.7-2 4.7.2 0 1.5.2 1.4 2-.2 2-1.8 2-1.8 0-3.2-1.4-1-2-2.1-1.6-3.2.9-2.7-2-4.7-4.7-3.3-2 1-5.6 1.6-8.4 1.3-.6 0-1.3-1-1.6-2-.5-1.7-1-2-2.9-1.2-1.4.5-2.3 1.6-2.2 2.7.1 1-.4 2.3-1.1 3-1.7 1.7-6.5 3-6.5 1.6 0-.5.9-1.2 2-1.5 1.8-.4 2.7-3.6 1.4-4.9-1-1-5.5.5-6.4 2.2-.5.9-1.2 3.6-1.4 6-.6 4.9-2.4 7.6-4 6-.7-.6-.5-1.5.7-2.8 2.2-2.5 2.1-3.5-.3-2.9-1.1.3-2 .1-2-.4 0-2.6-4.7-.2-10.7 5.6-3.8 3.6-7.1 6.5-7.4 6.5-.3 0-3.5 2.7-7 6-3.6 3.3-7 6-7.7 6-1.2 0-4.7-5.8-4-6.6.3-.2 1 1 1.8 2.6.7 1.7 1.8 3 2.5 2.8 2.1-.5 37.9-34 38.9-36.4 1.3-3.3-.5-5-8-7-16.1-4.3-30.4 4.5-36 22-.7 2.3-1.3 3.3-1.3 2.4-.1-1-.8-1.8-1.6-1.8-.9 0-1.5-.7-1.5-1.6 0-1.3-.3-1.4-1.5-.4-1.2 1-1.9 1-3 0-1.4-1.1-1.4-1.5 0-3.1 1-1 1.6-2 1.4-2.2a82 82 0 0 1-2.1-1.5c-1.4-1-2.1-1-4 0-1.3.7-2.7 2-3.2 2.6-1 1.6-3.6-.2-3.6-2.5 0-.8-.5-1.1-1-.8-.6.4-1 1.5-1 2.6 0 1-.5 2-1.1 2-.6 0-.8-.5-.5-1 1-1.7-2-4-4.7-3.4-3 .6-3.8 3.8-1.5 6.3 1 1.2 1 1.2-.5 0-2.8-2-3.5-.3-4 9.8-.6 10.6-1.7 13.6-1.7 4.6 0-26.3 11.4-48 30.6-58a63.9 63.9 0 0 1 32-9.1c13-.6 22.7 1.4 34.6 7 13.5 6.5 28.5 22.3 30.8 32.4.8 3.6.7 3.8-7.4 11.2a513.9 513.9 0 0 0-37.6 37.7c0 .7.5 1.5 1.2 1.8.8.3.7.5-.3.5-.9 0-2-.2-2.3-.5zm-5.7-40.3c0-.5-.2-1-.5-1-.2 0-.7.5-1 1-.4.6-.2 1 .4 1 .6 0 1-.4 1-1zm47-3c0-.6-1-.4-2 .3-1.1.6-2 1.6-2 2 0 .4.9.3 2-.3 1-.6 2-1.5 2-2zm-101-11.1c0-.5-1-.9-2-.9-1.1 0-2 .7-2 1.4 0 1 .7 1.3 2 1 1-.4 2-1 2-1.5zm104 1.2c0-.5-.5-1.2-1-1.6-.6-.3-1 .1-1 1 0 .8.4 1.5 1 1.5.5 0 1-.4 1-1zm-96.5-2c0-2.2-3-2-3.4.3-.2 1.3.2 1.7 1.5 1.4 1-.1 1.9-1 1.9-1.8zM467 199c1.3-.2 3-.2 4 0 1 .3 0 .5-2.2.5s-3-.2-1.8-.5zm14 0c.7-.2 1.8-.2 2.5 0 .7.3.1.6-1.2.6-1.4 0-2-.3-1.3-.5zM360 197.4c-1-2.5-.7-3.2.5-1.2.6 1 .8 2 .6 2.3-.3.3-.8-.2-1.1-1.1zm-71.3-11.5c0-5.8.2-8.1.4-5.2a91 91 0 0 1 0 10.5c-.2 2.9-.4.5-.4-5.3zm69.9 5.5c0-1.6.2-2.2.4-1.2.3 1 .3 2.3 0 3-.3.7-.5-.1-.4-1.8zm-1-6c0-1.6.2-2.2.4-1.2.3 1 .3 2.3 0 3-.3.7-.5-.1-.4-1.8zm87.4-1.1c-1.3-1.3-.6-2.4 1.4-2.4 1.2 0 2 .5 1.7 1.2-.5 1.5-2.1 2.1-3 1.2zm-52.4-7.9c0-1.6.2-2.2.4-1.2.3 1 .3 2.3 0 3-.3.7-.5-.1-.4-1.8zm-58-5c0-1.6.2-2.2.4-1.2.3 1 .3 2.3 0 3-.3.7-.5-.1-.4-1.8zm249.8-.5c0-.6.4-.8 1-.5.5.4 1 .8 1 1 0 .3-.5.5-1 .5-.6 0-1-.5-1-1zm-295.9-31.5c-.1-23.3-.4-29.5-1.6-31-1.3-1.8-3-2-22.7-2.5l-21.3-.5v-33l68.2-.2 68.3-.2.9 2.2c.4 1.2.7 8.7.7 16.7l-.1 14.5-22.3.5c-18.3.4-22.5.8-23.4 2-.6 1-.8 11.3-.4 30.5.5 26.6.5 28.8-1 26.8-.9-1.3-1.3-2.8-1-3.3 1.2-1.8-1.5-7-3.6-7-1 0-1.8-.5-1.8-1.1 0-.7-1-.9-2.3-.5-2.3.6-5.7-1.7-5.7-4 0-1.7 2.4-3.5 3.5-2.5.5.5 2.6 1.2 4.7 1.5 3.2.6 3.8.4 3.7-1 0-1-.6-2.7-1.4-3.7a5 5 0 0 1-.8-3.7c.3-1.1 0-2-.6-2s-1.1.5-1.1 1c0 .6-.8 1-1.8.9-4.1-.4-6.2.2-6.2 1.7 0 .9-.6 1.4-1.3 1.1-.7-.2-1.1-1-1-1.7.2-.6-.2-1.8-.8-2.6-1-1-1.5-1.1-3-.1-1 .8-5 1.2-10.4 1.1-8.3 0-8.8 0-9.8 2.3-1 2-.8 3.1.7 5.9 2 3.8 4.6 4.6 4.6 1.4 0-1.9 1.9-2.7 3.2-1.4.8.8-2.4 7.4-3.6 7.4-.5 0-1.5-.7-2.1-1.6-2-2.7-6.3 3.8-6.8 10.1-.2 2.8-.5-8-.6-24zm9.2-9.3c.3-.4.1-1.4-.4-2.2-.6-1.1-1.1-1.2-2-.3-.7.6-.9 1.6-.5 2.2.8 1.3 2.2 1.5 3 .3zm13.5-1.3c-.2-.5-.8-1-1.3-1-.6 0-1.2.5-1.4 1-.1.6.4 1.1 1.4 1.1.9 0 1.5-.5 1.3-1zm9.6.2c.3-.5-.8-1-2.5-1.3-3.4-.5-4 .9-.7 1.5l2.4.6c.2 0 .5-.3.8-.8zm-16.4-3.6c0-1.4-.5-2.5-1-2.5-.6 0-1 1.1-1 2.5s.4 2.5 1 2.5c.5 0 1-1.1 1-2.5zm-5-2.5c0-.5-.5-1-1-1a1 1 0 0 0-1 1c0 .6.4 1 1 1 .5 0 1-.4 1-1zm18-4c0-.5-.5-1-1-1a1 1 0 0 0-1 1c0 .6.4 1 1 1 .5 0 1-.4 1-1zm262.6 45.4c-.3-.4-.6-1.2-.6-1.7 0-.7.4-.6 1.1.1.7.7 1 1.4.7 1.7-.3.3-.8.2-1.2-.1zm-132-2.5c.4-1.3.9-1.8 1.1-1 .3.7 0 1.8-.6 2.4-.7.7-.8.3-.4-1.4zm8.4-1.9c0-.5.4-1 .9-1s1.2.5 1.6 1c.3.6-.1 1-1 1-.8 0-1.5-.4-1.5-1zm-151.8-8.7c-1.7-.6-1.6-2 .2-2.6.8-.3 1.6 0 2 .9.6 1.6-.4 2.3-2.2 1.7zm365.4-52c-.3-.3-.6-5.7-.6-11.8 0-12-.2-12.5-5.5-14-2.5-.8-1.4-1 5.3-1.3 4.6-.1 8.6 0 8.9.2.2.2-.5 1.4-1.7 2.6-1.7 1.7-2 3.1-1.9 8.8.4 13.3 0 16.2-2 16.2-1 0-2.1-.3-2.5-.6zm20.4-13.3v-14h2.9c2.6 0 3.3.8 6.6 7 2 3.9 4.3 7 5 7 1.5 0 5.9-7.2 6.8-11.3.6-2.4 1.1-2.8 4-2.5l3.2.3v13.5c0 11.4-.3 13.5-1.5 13.5s-1.7-1.7-2-7.7c-.4-4.2-1-8-1.3-8.4-1.3-1.3-3.9.6-5.2 4-1.8 4.2-4.2 6.3-5.7 4.9a18 18 0 0 1-2.3-4.9c-1.4-4-4.2-5.6-5.7-3.2-.4.7-.8 4.6-.8 8.6 0 6.5-.2 7.2-2 7.2-2 0-2-.6-2-14z" fill="#2667b2"/><path d="M194 237c-1-1.6-1.2-126-.2-127 .5-.6 10.2-1.3 22.6-1.6 19.3-.5 21.8-.4 23 1 1.1 1.4 1.4 11.2 1.6 51.8.1 27.6 0 49.7-.2 49.1a897 897 0 0 1-.8-37c-.3-31.7-.6-36.4-2.1-39.3-1-1.8-2.1-3-2.6-2.7-.4.3-1.3 0-1.9-.8-1.4-1.7-32.4-1.6-34.5.2-.8.7-2.2 2.7-3 4.6-1.4 2.9-1.6 9.6-1.6 52.4v49l11.2.4 11.3.3-11.2.2c-6.2.1-11.4-.1-11.7-.5zm27-1.9c.8-.3 1.7-.2 2 .1.3.3-.3.6-1.3.5-1.2 0-1.4-.2-.6-.6zm4-1.4c.7-.7 1.5-1 1.8-.7.3.3-.3.9-1.3 1.3-1.4.5-1.5.4-.5-.6zm7.3-4.4c1.2-1.4 2.5-2.5 2.8-2.5.3 0-.6 1.1-1.8 2.5a11.8 11.8 0 0 1-2.9 2.5c-.3 0 .6-1.1 1.9-2.5zm4.7-7c.9-1.9 1.8-3.3 2-3 .5.4-2.6 6.5-3.3 6.5-.2 0 .3-1.5 1.3-3.5z" fill="#58a143"/><path d="M439.8 236.8c-31-.6-32.3-.7-39.5-3.3-11-3.8-18-7.9-25.2-15a45.9 45.9 0 0 1-12.8-17.7c-3.4-8-5-18-4.3-29 .5-10.3 1.2-12 4-10 1.5 1.2 1.6 1.2.5 0-2.3-2.5-1.5-5.7 1.5-6.3 2.8-.6 5.8 1.7 4.7 3.5-.3.4 0 .8.5.8.6 0 1-.9 1-2 0-1 .5-2.1 1-2.5.6-.3 1 0 1 .8 0 2.3 2.7 4.1 3.7 2.5.5-.7 1.9-1.9 3.2-2.6 1.9-1 2.6-1 4 0a82 82 0 0 0 2 1.5c.3.2-.3 1.1-1.2 2.2-1.5 1.6-1.5 2-.2 3.1 1.2 1 1.9 1 3 0 1.3-1 1.6-1 1.6.4 0 .9.6 1.6 1.3 1.6 1.7 0 2.6 3 2.7 9 0 5 3.2 13 5.2 13 .7 0 4.1-2.7 7.7-6 3.5-3.3 6.7-6 7-6 .3 0 3.6-3 7.4-6.5 6-5.8 10.7-8.2 10.7-5.6 0 .5.9.7 2 .4 2.4-.6 2.5.4.3 3-1.2 1.2-1.4 2-.7 2.8 1.6 1.5 3.4-1.2 4-6.2.2-2.3.9-5 1.4-6 .9-1.6 5.4-3.1 6.4-2 1.3 1.2.4 4.4-1.4 4.8-1.1.3-2 1-2 1.5 0 1.3 4.8.1 6.5-1.6.7-.7 1.2-2 1.1-3 0-1 .8-2.2 2.2-2.7 2-.7 2.4-.5 2.9 1.1.3 1.1 1 2 1.6 2.1 2.8.3 6.3-.3 8.4-1.3 2.7-1.4 5.6.6 4.7 3.3-.3 1 .2 2.3 1.5 3.2 2 1.4 2 1.4 0 3.2-1.7 1.6-2 1.7-2 .2 0-2.1-3.8-2.2-4.6-.2-.3.9 0 2.2.6 3 1 1.2.8 1.6-1.4 2.1-1.6.4-2.5 1.2-2.2 2 .3.7-4.6 6.4-11 12.8-6.2 6.4-11.3 12-11.3 12.6 0 2 3.4 2.4 25.8 2.2 12.9-.1 24.1 0 25 .3 1.4.4 1.7 3 2 18.5l.3 18h-5.8c-3.2 0-7.4.2-9.3.4-2 .2-18 0-35.5-.4zM448 183c.2-.7-.5-1.2-1.7-1.2-2 0-2.7 1-1.4 2.4 1 .9 2.6.3 3.1-1.2zm1-22.3c-.2-.8-.7-.3-1 1-.4 1.7-.3 2 .4 1.4.6-.6.9-1.7.6-2.4zm9.8-.9c-.4-.5-1-1-1.6-1-.5 0-1 .5-1 1 0 .6.8 1 1.6 1 .9 0 1.3-.4 1-1zM289 235.7c-.2-.8-.4-18.4-.2-39.2l.2-37.8 2.7-3.6c2.5-3.2 3-3.4 4-2 .6 1 1.6 1.7 2.1 1.7 1.2 0 4.4-6.6 3.6-7.4-1.3-1.3-3.2-.5-3.2 1.4 0 3.2-2.5 2.4-4.6-1.4-1.5-2.8-1.6-4-.7-5.9 1-2.2 1.5-2.4 9.8-2.3 5.4 0 9.4-.3 10.5-1.1 1.4-1 2-1 2.9.1.6.8 1 2 .8 2.6-.1.7.3 1.5 1 1.7.7.3 1.3-.2 1.3-1.1 0-1.5 2-2.1 6.2-1.7 1 0 1.8-.3 1.8-.9 0-.5.5-1 1-1 .7 0 1 .9.7 2a5 5 0 0 0 .8 3.7c.8 1 1.4 2.6 1.4 3.6 0 1.5-.5 1.7-3.7 1.1-2-.3-4.2-1-4.7-1.5-1-1-3.5.8-3.5 2.6 0 2.2 3.4 4.5 5.7 3.9 1.4-.4 2.3-.2 2.3.5 0 .6.8 1.1 1.8 1.1 2 0 4.8 5.2 3.7 7-.3.5 0 2 .8 3.2 1 1.8 1.3 7.5 1.3 26.8l-.1 24.5-3.2 6c-3.8 7.3-5.3 8.7-12.3 11.6-7 2.8-29.4 4.1-30.2 1.8zm17.5-86.3a1.5 1.5 0 0 0-2-1c-1.7.8-1.8 2.1 0 2.7 1.7.6 2.7-.1 2-1.7zm190.7 86.4c0-1 7.8-11.3 14.4-19 1.7-2 4.9-5.7 7-8.5 2.3-2.7 5.2-6 6.5-7.2 1.3-1.3 3.4-3.9 4.5-5.8 2.4-4 12.3-14.5 13.7-14.5.5 0 .7-.4.4-.9-.3-.4.4-2 1.5-3.4 1-1.4 2-3.4 2-4.4 0-1 1.3-3.4 3-5.3l3-3.3 2.4 2.3c2.1 2 3 2.2 4.9 1.3 1.5-.7 2.9-.7 4-.1 2.3 1.3 2.1-.7-.3-3.2-1.1-1-2.8-2-3.7-2-3.2 0-.2-1.4 3.3-1.5 2-.1 3.8-.6 4.2-1.2.6-.8 5.2-2.5 5.2-1.8 0 1.3-2.6 7.2-3.5 7.8-.6.4-.4.7.7.7 1 0 2.2-.9 2.8-2 .5-1 1.7-2 2.5-2s2.3-.4 3.2-.8c1-.5 3.3-1.4 5.3-2 3-1.1 3.6-1 5.2 1 2.4 2.8 2.2 6.3-.4 8-1.2.8-1.9 2-1.5 2.6 1 1.5 3.4.5 4-1.7.2-1.1 1.6-2 3.5-2.3 2.6-.4 3-.2 2 1.3-1.7 3.4-.8 5.8 4.4 12.2l8.8 11.3c1.9 2.6 6 7.4 9.3 10.8 9.5 10 27.5 32.1 27.6 33.9 0 .4-10.4.7-23.3.7-25.6 0-24 .4-29.8-7a149 149 0 0 0-6-7 45.6 45.6 0 0 1-4-5c-2.9-4.5-11-13-12.4-13-1.3 0-3.3 2.4-19 22l-8 10H521c-16 0-23.7-.3-23.7-1zm89-64.4c0-.3-.5-.7-1-1-.6-.4-1-.2-1 .4 0 .5.4 1 1 1 .5 0 1-.2 1-.4zm-5.9-8.8c-.7-.7-1.1-.8-1.1-.1 0 1.3 1.1 2.5 1.8 1.8.3-.3 0-1-.7-1.7zm-36.2-1c-1-1.8-.9-2.3.6-3.5 2.3-1.6 3.8-1.2 4.3 1.1.3 1.8-1.5 4.6-3 4.6-.4 0-1.3-1-2-2.2zm11-.8c0-.5.5-1 1.1-1 .6 0 .8.5.5 1-.4.6-.9 1-1.1 1-.2 0-.4-.4-.4-1zm20.6-.9c-.3-.5-.2-1.2.4-1.5.5-.3 1.2-.2 1.5.3.3.6.2 1.2-.4 1.6-.5.3-1.2.1-1.5-.4zm-145-1c.3-.6.8-1 1-1 .3 0 .5.4.5 1 0 .5-.5 1-1.1 1-.6 0-.8-.5-.4-1zm44.5-.8c0-.4.9-1.4 2-2 1-.7 2-.9 2-.3 0 .5-1 1.4-2 2-1.1.6-2 .7-2 .3zm125-1.3c0-.5.6-1 1.5-1 .8 0 1.5.5 1.5 1 0 .6-.7 1-1.5 1-.9 0-1.5-.4-1.5-1zm-226-11.6c0-.7.9-1.4 2-1.4 1 0 2 .4 2 .9s-1 1.1-2 1.4c-1.3.4-2 0-2-.9zm106 0c0-.8.4-1.2 1-.9.5.4 1 1 1 1.6 0 .5-.5 1-1 1-.6 0-1-.8-1-1.6zm-97.9-1c.5-2.2 3.4-2.5 3.4-.4 0 .8-.9 1.7-1.9 1.8-1.3.3-1.7-.1-1.5-1.4zm-87.7-14.5c-.4-.6-.2-1.6.5-2.2.9-.9 1.4-.8 2 .3 1 1.5.5 3-1 3-.4 0-1.1-.5-1.5-1zm13.7-1c.2-.5.8-1 1.4-1 .5 0 1 .5 1.3 1 .2.6-.4 1.1-1.3 1.1-1 0-1.5-.5-1.4-1zm9.1.4c-3.4-.6-2.7-2 .7-1.5 1.7.2 2.8.8 2.5 1.3-.3.5-.6.9-.8.8l-2.4-.6zm-15.2-3.8c0-1.4.4-2.5 1-2.5.5 0 1 1.1 1 2.5s-.5 2.5-1 2.5c-.6 0-1-1.1-1-2.5zm-5-2.5c0-.5.4-1 1-1 .5 0 1 .5 1 1 0 .6-.5 1-1 1a1 1 0 0 1-1-1zm18-4c0-.5.4-1 1-1 .5 0 1 .5 1 1 0 .6-.5 1-1 1a1 1 0 0 1-1-1z" fill="#1b508d"/><path d="M194.3 187.7c0-42.8.2-49.5 1.5-52.4 1-1.9 2.3-4 3.1-4.6 2.1-1.8 33-2 34.5-.2.6.7 1.5 1 2 .8.4-.3 1.6 1 2.5 2.7 1.6 3 1.8 7.7 2.2 42l.4 38.7-2.7 5.8c-4 8.8-5.7 10.2-17.8 15.2-1.6.6-8 1.1-14.3 1.1h-11.4z" fill="#23534a"/></svg>