<svg version="1" xmlns="http://www.w3.org/2000/svg" width="1152" height="1152" viewBox="0 0 864.000000 864.000000"><path d="M416.1 1.7c.5 5.7-.3 8.4-3.3 11.5-2.8 2.8-3.9 3.3-8 3.2l-4.6-.1v4.5c0 3.8-.6 5-3.5 8-3 3-4.2 3.5-8.1 3.5H384l.3 3.9c.3 3.3-.2 4.4-3.6 7.8-3.6 3.7-5.8 4.6-10.8 4.1-1.1-.1-1.5.9-1.6 4-.1 3.4-.7 4.8-4 8.1-3.2 3.2-4.8 4-7.9 4.1-3.8.2-3.9.3-4.2 4.2-.2 3-1.2 4.9-4 7.7-3.1 3.3-4.2 3.8-8 3.8-4.1 0-4.3.1-4.2 2.7.3 4.8.1 5.3-4.3 9.6-3.6 3.6-4.8 4.2-7.9 4.1-3.6-.2-3.7-.1-3.6 3.6 0 3.3-.6 4.6-4.5 8.3-3.9 3.9-4.9 4.4-8 4.1-3.4-.4-3.5-.4-3.3 3.2.1 2.9-.6 4.3-4 8-3.3 3.4-4.9 4.4-8 4.6-3.4.3-3.9.7-4.1 2.8 0 1.4-.1 3-.2 3.7-.1.6-1.9 3-4.1 5.3-3.2 3.3-4.8 4.2-7.8 4.4-3.6.1-3.7.3-4.3 4.3-.7 5.9-6.4 11.2-12.2 11.6-4.2.2-4.2.2-3.9 3.8.3 3.2-.3 4.3-3.9 8-3.4 3.4-4.9 4.3-7.8 4.3-3.7.1-3.7.2-4 5.3-.1 2.4-5.2 8.3-8.6 10-1.1.5-3.2.8-4.6.7-2.2-.2-2.6.1-2.7 2.4 0 1.5 0 3.2-.1 3.9-.1.7-1.9 3.1-4.1 5.5-3.6 3.7-4.5 4.2-8 3.9l-3.9-.2.3 3.7c.2 3.3-.3 4.4-4 8.2-2.4 2.4-4.8 4.1-5.3 3.7-.6-.3-1.1-.2-1.1.3s-1.3.7-2.9.4c-1.6-.2-3.2.1-3.5.7-.4.6-.3 1.1.2 1.1s.6 1.5.4 3.2c-.7 4.4-6.9 10.9-10.2 10.7-5.4-.3-7.1.1-6.3 1.3 1.8 3 .1 7.7-4.1 11.7-2.3 2.2-5.5 3.2-9.7 3.2-1.3 0-1.7 1-1.7 4.1-.1 3.1-.8 4.7-3.4 7.4-3.9 4.1-6.7 5.5-8.9 4.4-2.1-1.2-3.5 0-3.4 3 0 3.5-1.8 7-5.4 10.4-2.4 2.3-3.9 2.9-7.1 2.8l-4-.2.4 3.7c.3 3.1-.2 4.2-3.6 7.9-3.2 3.5-4.6 4.3-7.2 4.2-1.8-.1-3.8.2-4.5.6-.8.6-1.1 35.9-1.1 144.7 0 91.1.4 143.8 1 143.4.5-.3 2.3.4 4 1.6 2.3 1.8 3.3 2 4.2 1.1.9-.9.7-1.2-.9-1.2-1.2 0-2.4-.4-2.7-.9-.4-.5.5-.6 2.1-.2 2.9.8 3.7 3.4 1.9 5.9-.5.7-.6 1.6-.2 1.9.4.4 1.1.1 1.6-.6.5-1 .8-.6.7 1.2-.2 2.3-.4 2.4-1.8 1.1-1-.9-2.4-1.2-3.5-.8-1.1.4-.7-.2 1-1.7l3-2.3-2.5-.7c-3.1-.8-4.7.5-4.7 3.6.1 2.4 1.1 3 4.4 2.6.6-.1 1.7.5 2.3 1.3.9 1.1.8 1.5-.6 2-1.1.5-2.2.1-3-1-1.1-1.5-1.6-1.6-3.8-.4-3.1 1.7-3.2 3.6-.2 5 2.1 1.1 2.1 1 .3-.4-1.1-.9-1.7-1.9-1.3-2.2.4-.4 1.4-.1 2.3.7.9.7 2.1 1.4 2.8 1.5.6.1 1.8.3 2.6.5.9.3 1.4-.3 1.4-1.3-.1-1 .2-1.8.7-1.8.5 0 .9.6.9 1.2 0 .9.4.8 1-.2.8-1.3 1-1.2 1.1.5.1 1.1.1 2.6 0 3.2-.1.7.2 1.3.8 1.3.5 0 .8.8.6 1.7-.1 1 .1 2.7.5 3.8.9 2.6.2 4.7-1.3 3.8-.7-.3-.5.2.4 1.3 1.1 1.4 1.5 3.9 1.3 9.2-.1 6.1.2 7.4 1.7 8.2 2.2 1.2 3.2 1.3 2.5.2-.6-1.1 3.4-.9 5.1.1.6.4 1 1.7.8 2.8-.2 1.1.2 2.2 1 2.6.8.3 1.3.9 1 1.3-.3.5.2 1.6 1.1 2.4.8.9 1.2 1.6.8 1.6-.5 0-.3.5.3 1.1.6.6.9 1.8.6 2.5-.3.8-.1 1.4.5 1.4 1 0 .7 7.4-.5 9.3-.4.6-.1.7.8.2 1.2-.8 1.2-.6 0 .8-.9 1.2-1 1.7-.2 1.7.7 0 1 .4.6.9-.3.5.4 1.2 1.5 1.6 1.1.3 2 1.2 2 1.8 0 .7.4.6 1-.3.8-1.3 1.1-1.3 2.2.2 1 1.3 1.7 1.5 2.8.7 1.3-.9 1.2-1-.2-.5-1 .3-1.8.1-1.8-.4 0-1.2 2-1.3 3.9-.1 1 .7.8 1.2-1 2.5-1.3.9-1.8 1.6-1.2 1.6.7 0 1.5-.5 1.8-1 .3-.6 1.1-1 1.6-1 .6 0 .7.4.4 1-.3.5-.1 1 .5 1s.8.4.5 1c-.3.5-.2 1 .4 1 .6 0 .9 1.7.7 4-.2 2.2-.1 3.8.3 3.5.5-.2.7.8.7 2.3-.1 1.5.5 3.6 1.4 4.6 1.3 1.7 1.3 1.9 0 1.4s-1.6.3-1.5 4.2c0 2.7.3 4.6.8 4.3.4-.2.7.2.7.9 0 .8.3.9.8.3.9-1.3 11-1.7 11.7-.4.4.5 1 .7 1.4.5.4-.3.7 2 .6 5-.1 6 .3 6.8 2.5 5.1 1.7-1.3 2.3-4.7.9-4.7-.5 0-.9.7-.9 1.5s-.4 1.5-.8 1.5c-.5 0-.9-.7-.9-1.5s.3-1.5.7-1.5c.4 0 .7-.7.7-1.5s-.4-1.2-.9-.9c-.4.3-.5-.1-.2-.9s1.6-1.7 2.9-1.9c1.6-.3 2.2-.1 1.8.8-.2.7-1.1 1-1.9.7-1.9-.7-1.4 1.8.6 3.4 2 1.7 3.5 1.6 2.1 0-.8-1-.7-1.9.4-3.3 1.5-1.9 1.5-1.9.8 0-.5 1.4-.3 1.7.7 1.1.8-.5 1.1-.4.6.3-.3.6.2 1.3 1.1 1.5 1.7.4 1.7.5.1.6-1.5.1-1.6.5-.6 2.6.6 1.3 1.5 2.2 2 1.9.5-.3.4-1.2-.3-2-1.6-2-.2-1.7 1.9.3 1 1 1.7 2.4 1.6 3-.1.7-.2 1.9-.3 2.5-.1.8-.7.4-1.4-.7-1.5-2.5-3.3-2.9-4.1-.9-.4 1.2-.2 1.5.9 1.1.8-.4 1.7-.1 2.1.5.4.6.3.8-.4.4-.6-.3-1.3-.2-1.6.3-.3.4.2.8 1.2.8 4.2 0 5.3.3 4.6 1.5-.5.7-.3.8.7.2 2.2-1.4 5.1-1.2 9 .7 4.6 2.3 6.6 4.6 5.1 6.1-.8.8-1.5.8-2.7-.2-.8-.7-1.3-1.5-1-1.8.2-.3 1.1.1 2 .8 1.3 1.1 1.4 1 .9-.4-.3-.9-1.2-1.6-1.9-1.6s-1.5-.3-1.8-.8c-.2-.4-.2-.1-.1.5.4 1.5-.5 1.6-2.6.3-1.3-.9-1.3-1 0-1s1.3-.2 0-.9c-.8-.6-1.8-.7-2.2-.4-.5.2-1.5 0-2.2-.6-1-.9-1.5-.7-2.1.6-1.1 2.6-1.3 5.3-.3 4.7.5-.3.7-1.3.6-2.1-.2-.9.2-1.8.9-2 1.6-.6.8 3.4-1 5.6-1.5 1.7-1.2 4.1.5 4.1.7 0 .6-.5-.2-1.4-.9-1.2-.8-1.5.9-1.3 2.4.2 2.4.2 1 2.8-.7 1.4-1.6 1.8-2.7 1.4-1.4-.5-1.5-.4-.4.7s1.7.8 3.6-1.5c2.1-2.6 2.4-2.7 3.7-1.1 1.2 1.6 1.2 1.7-.3 1.2-.9-.4-1.8-.1-2.1.6-.4.9.2 1.1 1.9.8 2.8-.5 2.9-.9.7-3.4-.9-1-1.1-1.8-.5-1.8 1.3 0 4.3 4 3.7 5-.3.4.6.6 1.8.6 1.2-.1 2.7 0 3.2.3 1.8 1 3.5.9 4.1 0 .3-.5 1.1-.6 1.7-.2.7.4 2.8.8 4.7.8 2.3 0 3.4.4 3.2 1.3-.1.6.3 1.1 1 1 .7-.2 1.3.7 1.4 1.9.1 1.3.7 3.1 1.5 4 1.3 1.6 1.2 1.7-.4.4-1.7-1.3-1.7-1.2-1.2 1.8.4 2.5.2 3.1-.7 2.5-1-.5-1-.4 0 .7.8.8 3.6 1.5 7 1.5 10.2.3 11.3.4 10.8 1.2-.2.4 0 1.4.5 2.2.8 1.2.9 1.1.7-.5-.4-2.8 2.5-2.1 8.8 2 4.4 2.9 5 3.8 5 6.7-.1 1.8-.5 3.7-1.1 4.1-.6.5 0 .7 1.3.4 1.2-.3 2.2-.1 2.2.5 0 .5.6.6 1.3.1 1.9-1.2 3.7-1.2 3.7-.1 0 .7.4.7 1.3.1 1.8-1.5 6.2 0 6.1 2.1-.1 1.2.2 1.4 1 .7 1.3-1.1 4.5.3 3.3 1.5-.4.4-.2 1.3.5 2.1.6.7.8 1.6.4 2-.3.4-1.3-.2-2-1.3-.9-1.2-1.1-2.1-.4-2.5.7-.4.6-.9-.1-1.3-.6-.4-1.1-.4-1.2.1 0 .4-.2 1.6-.4 2.6-.2.9.1 1.5.6 1.1.5-.3.9 0 .9.5 0 .6-.4 1.1-.8 1.1-.5 0-.9.7-.9 1.4 0 1.1.5 1.2 1.8.5 2.4-1.3 2.9-1.1 2.3.6-.4.8-1 1.3-1.5 1-.4-.3-1.2.3-1.8 1.3-.8 1.6-.5 1.8 2.7 1.7 2-.1 4.2.3 4.9.7.7.6 1.4.4 1.9-.3.5-.8.3-.9-.6-.4-.8.5-1.1.3-.8-.5.2-.7 1.2-1.4 2.2-1.6 1.3-.2 1.6.2 1.1 1.4-.3.9-.3 1.3.1.9s1.4-.1 2.2.6c1.3 1 1.4.9.5-.8-.6-1.1-.9-2.6-.7-3.3.1-.7 0-.8-.3-.2-.3.8-.9.7-1.9-.1-.8-.6-1.1-1.6-.7-2.3.3-.6.2-.7-.3-.3-.5.5-1 1.3-1 1.8-.1.5-.2 1.2-.3 1.6 0 .3-1-.4-2.1-1.7-1.2-1.3-1.8-3-1.5-3.7.2-.8.1-1.1-.4-.8-.5.3-1.2.1-1.6-.5-.8-1.3 1.1-1.3 3.6.1 1.1.5 1.6 1.5 1.3 2.1-.5.7-.2.9.9.5 1-.4 2 0 2.5.9s1.2 1.5 1.5 1.5c2.4-.3 2.9 0 1.9 1.2-1.7 2 .8 4.2 4.8 4.1 4.1-.2 12.8 3.5 11 4.6-.9.6-.9.9.1 1.2 1.2.4 1.2.7 0 2.1-.9 1.2-1 1.7-.2 1.7.7 0 1.1.8 1 1.7-.3 3.5.1 4.1 2.6 3.8 1.4-.1 2.5.2 2.5.7 0 .5.5.6 1 .3 1.8-1.1-.1-2.6-2.3-1.9-2.1.6-2 .5.3-1.6 1.5-1.3 1.9-2 .8-1.7-.9.3-2.4-.1-3.5-.8-1-.8-1.3-1.5-.8-1.5.6 0 1.7.6 2.4 1.2 1.1 1.1 1.3 1 .8-.4-.3-1-.1-2 .5-2.4.6-.4.8-.3.5.3-.4.6.2 1.8 1.3 2.8 2.2 2 2.8.7.8-1.4-1.1-1.1-.9-1.1.9 0 1.2.7 2 1.6 1.7 2-.2.4.3 1 1.2 1.3 2.2.9 2.6.8 1.8-.6-.4-.7-.3-.8.4-.4.6.4.9 1.3.5 2.2-.4 1-.9 1.2-1.8.4-1.7-1.4-5.5-2.1-5.5-1.1 0 2.2 3.6 3.2 12.8 3.4 1.7.1 3.2.5 3.2 1 0 .4.5.5 1 .2.6-.3 1-.2 1 .3s.9 1.2 2.1 1.5c1.3.4 1.8 1 1.3 1.8-.4.7-.3 1 .4.6 1.4-.9 4.3.3 3.6 1.4-.3.5-1.1.6-1.7.2-.7-.3-.3.3.7 1.5 1.1 1.2 1.4 2.2.8 2.2-.7 0-.9.7-.5 1.7s.2 1.4-.5.9c-.6-.3-1.3-.2-1.7.3-.3.6.3.8 1.5.6 1.1-.2 2 .1 2 .6 0 .6.4.8.9.4.5-.3 1.2-.1 1.6.5.4.7 1.3.7 2.6 0 1.1-.6 1.6-1.6 1.3-2.2-.4-.7-.3-.8.5-.4.6.4.9 1.1.6 1.6-.3.4.2 1 1 1.4.8.3 1.9-.3 2.4-1.2.7-1.1 1.1-1.2 1.1-.4 0 .7.4 1 1 .7.5-.3 1-.2 1 .2 0 .5 1.4.9 3.1.9 1.7.1 3.4.6 3.8 1.1.3.5 2.7 2 5.3 3.3 4.9 2.5 6.9 5 4.2 5-.9 0-1.2-.5-.8-1.2.5-.7.3-.8-.6-.3-1 .6-.8 1.2.7 2.4 1.2.9 1.9 2.4 1.8 3.4-.2 1 .3 1.7 1.3 1.8 6 .4 9.2.3 9.2-.3 0-.4 1.3-.2 3 .3 1.8.7 2.7 1.5 2.3 2.2-.4.7.1.6 1-.2 1.2-.9 1.7-1 1.7-.2 0 .7.5.9 1 .6.6-.3 1-.1 1 .4 0 .6.3 1 .8 1 2.1-.4 3.2.3 3.2 1.8s.2 1.6 1 .3c.7-1.1 1-1.1 1-.2 0 .7.4 1.1.9.7.5-.3 1.2-.1 1.6.5.4.6 1 .8 1.5.5.4-.3.7.3.6 1.2-.2 1 .2 2.1.8 2.5.8.6.7.8-.1.8-.7 0-1 .7-.7 1.7.5 1.5.4 1.6-.5.3s-1.1-1.3-1.1 0-.1 1.3-1 0c-.5-.8-1-2-1-2.5 0-.6.4-.4.9.4.5.7 1 .9 1.3.5.7-1.5-3.9-5.4-6.3-5.4-.5 0-.7-.5-.4-1 1-1.6-1.8-.7-3.3 1-1.1 1.3-1.2 1.3-1 0 .2-.8.7-1.8 1.1-2.1.5-.3.2-.9-.7-1.2-1-.4-2 .1-2.6 1.3-.9 1.6-.8 1.8.5 1.4 1.1-.5 1.3-.2.9 1-.3.9-1.1 1.3-1.7.9-.6-.3-.7-.1-.3.5.4.6 1.4.8 2.2.5 1.4-.5 1.4-.3.3 1.5-.9 1.5-1.6 1.8-2.1.9-.4-.7-.6-.3-.5 1 0 1.2.4 2 .8 1.7.4-.2 1-.1 1.3.4.3.5 3.3.8 6.6.7 3.4-.1 6.3.2 6.6.7.3.5 1.2.4 2-.3.8-.6 1.4-.7 1.4-.2 0 .5.7 1 1.5 1s1.5-.3 1.5-.7c0-.4 1-.6 2.3-.4 1.2.1 2.2.3 2.2.4 0 .1.8.3 1.8.5.9.2 1.7-.1 1.7-.6s1.3-.3 3 .6c3.2 1.7 4.4 1.9 3.7.8-.3-.5 1.9-.8 4.8-.8s4.9.3 4.3.6c-.6.4-.5.9.3 1.2.8.3-.1.4-1.9.3-2.1-.2-3.6.2-4.3 1.3-.9 1.4-1 1.4-.5-.2.4-1.2.2-1.6-.6-1.1-.7.5-.8.2-.3-.7.5-.8.4-1.1 0-.6-1.2 1.1-1.4 4.7-.2 4 .6-.3.7-.1.3.5-.4.6-1.4.8-2.2.5-1.1-.4-1.2-.8-.4-1.3.8-.5.7-1-.4-1.9-1.2-1-1.7-.8-2.6.8-.8 1.6-.8 2.1.1 1.9.6-.2 1.4.3 1.6 1 .3.7-.1 1.1-.9 1-.8-.2-1.2.4-1 1.6.2 1.2-.1 1.6-.9 1-.8-.4-1-.3-.5.5.4.6 1.1.9 1.6.6.5-.3 1.1-.1 1.4.4.3.5-.1 1.2-1 1.5-.9.4-1.4 1-1 1.4 1.3 1.2 6.6 1 7.7-.4.6-.8 1.6-1.4 2.1-1.4.7 0 .6.5 0 1.3-.9 1.1-.5 1.3 2 1.3 2.1-.1 3.2-.6 3.4-1.8.1-1.2-.3-1.5-1.4-1-1.5.5-1.5.4-.3-1.2 1.8-2.2 1.8-2.2 2.1-51.8.2-32.6.5-39.8 1.6-40.2.8-.3 1.4-.2 1.4.2s.9.8 2 .8 2-.4 2-.8c0-.5.8-.4 1.8.1 1.3.7 2.3.6 3-.1.9-.9 1.2-.9 1.2 0s.5 1 1.9.3c1-.6 2.2-.7 2.6-.3.5.4.5.2.2-.4-.4-.7-.9-3-1.1-5.3-.3-3.6 0-4.4 2.3-6.1 2.5-1.7 3-1.8 4.9-.4 2.6 1.8 3 .7.5-1.3-1.7-1.3-1.6-1.4.5-1 1.2.3 2.2.1 2.2-.4s.5-.9 1.1-.9c.5 0 .8.3.6.8-.3.4-.1 1.6.4 2.7.8 1.8.8 1.8.6-.4-.1-1.3.4-2.6 1.1-2.8.8-.3 1 .2.6 1.4-.5 1.5-.3 1.5.8-.2.7-1.2 2.3-2 3.8-1.9 1.4 0 3.1-.4 3.8-.9.9-.7 1.1-.5.6.8-.6 1.4-.4 1.6.7 1 .7-.5 2.8-.8 4.5-.6 2.2.2 3.1-.2 3.1-1.3 0-1.3-.3-1.3-1.6-.4-1.1.9-1 .6.2-.9 1.1-1.2 1.4-2.2.8-2.4-.7-.3-.6-1.4.4-3.2.8-1.5 1-2.5.4-2.1-.6.3-.9-.2-.7-1.2.4-2.5 5.1-4.1 10.8-3.8 2.5.1 4.8-.3 5.2-1 .6-.8.8-.8.8.1 0 .8.9.9 3 .3 1.6-.5 3-.6 3-.2 0 1.4 2.4-1.9 2.7-3.8.2-1.8 0-1.9-1.6-.8-1.1.7-1.9 1.6-1.8 2.2.3 1.3-3.3 2-4.3.9-.4-.4-.4-1.7.1-2.8.9-1.8.9-1.8.5.2-.3 1.8.1 2.3 1.6 2.3 1 0 1.7-.4 1.4-.9-.3-.5.5-1.6 1.9-2.5 1.3-.9 2.6-1.2 2.9-.8.6 1 .2 3.9-.7 4.8-1.3 1.3-.8 2.7.5 1.7.7-.6 2.3-.9 3.5-.8 1.3.1 2.1 0 1.8-.3-.2-.3 0-1.3.5-2.2.7-1.3.5-2-.6-2.4-1.2-.5-1.5-.2-1 .9.3.9.2 1.3-.4 1-.6-.3-1-.1-1 .6s-.3 1-.6.7c-.7-.8 1.4-4.8 2.4-4.7 1.9.3 2.6-.2 1.3-1s-1.3-1.2 0-2.7c.9-1.1.9-1.5.2-1-.7.4-1.3.3-1.3-.3 0-.5.5-1.3 1-1.6.6-.4.8-1.1.4-1.6-.3-.6.6-.8 2.3-.6 1.5.2 3.4 0 4.1-.6.8-.6 1.2-.6 1.2 0s1.6.9 3.5.6c2.1-.2 3.5.1 3.5.7 0 .7.6.6 1.4-.2 1-1 3.6-1.4 9-1.2 6.8.1 7.5 0 6.4-1.4-1.5-1.8-1.5-2.2.4-3.3 1.1-.7 1.1-.9-.1-.9-1.1 0-1.1-.3 0-1.7 1.2-1.4 1.2-1.6 0-.8-1.1.6-1.3.4-.8-.8.4-1.1.1-1.7-.8-1.7-1.6 0-1.6 2 0 3.3.6.5.4.7-.6.4-.9-.3-1.6.1-1.6.8 0 .7.7 1.1 1.6.8 1.3-.4 1.4-.3.2.5-1 .7-1.2 1.5-.5 2.4.5.8 0 .5-1-.7-1.3-1.3-1.7-1.5-1.4-.4.4 1.1-.1 1.5-1.7 1.5-1.3 0-2.1-.4-1.9-.8.3-.5 1-.5 1.6-.2.6.4.9.1.6-.6-.6-1.9-4.4-2.2-5.8-.5-.9 1.1-1 1.5-.1 1.5.7 0 .9.5.5 1.1-.4.8-1.2.3-2.1-1.2-.8-1.3-1.2-1.6-.9-.7.3 1 .1 2-.3 2.2-.5.3-.8-.5-.7-1.7.1-1.6.7-2.1 2.1-1.9 1.6.3 1.7.2.6-1.2-.7-.9-1.7-1.3-2.2-1-1.4.9-1-.3.7-2.1 1.3-1.2 1.9-1.3 3-.4 1.2.9 1.8.9 2.7 0 .8-.9.9-1.1.1-.9-.7.2-1.2-.2-1.2-.7-.1-.6.6-.9 1.4-.7.8.2 1.3-.3 1.2-1-.2-.6.3-1.3 1-1.4.6-.1 1.3-.3 1.5-.4.1-.1 1.3-.3 2.7-.4 1.4 0 3-.4 3.6-.8.6-.4 1.4-.4 1.8 0 1.1 1 4 .9 4.8-.3.5-.7.8-.6.8.1 0 1.1 5.5 1.2 6.6.2 1-1.1 1.2-5.8.1-5.8-.5 0-.5-.5.2-1.3.8-1 .7-1.7-.1-2.5-.8-.8-.7-1.3.5-1.8 1.7-.6 7.3 2.3 6.3 3.3-.7.7 2.5 6.3 3.7 6.3.4 0 .5-.4.2-1-.3-.5-.1-1 .5-1s1.3.6 1.6 1.4c.3.8 1.2 1.7 2 2 1.1.4 1 0-.3-1.9-1.1-1.5-2.5-2.3-3.5-2.1-2 .5-2.7-.3-3.3-3.6-.3-1.2-1-2.5-1.6-2.9-.7-.4-.7-.9-.2-1.2.6-.4 2.4 1 4.1 2.9 1.8 2 3.2 3.1 3.2 2.4 0-.6.5-.8 1.2-.4s.2-.6-1-2.3c-1.7-2.4-1.9-3.3-.9-4.3 1-1.2.9-1.2-.5-.2-1.3 1-1.7 1-2.1 0-.3-.8-.6-.8-.6-.2-.1.6.6 1.7 1.4 2.4.8.7 1.5 1.7 1.5 2.3 0 .6-1.3-.2-2.9-1.7-1.8-1.7-3.1-2.4-3.5-1.7-.9 1.3-2.6 1.4-2.6.2 0-1.3 3.6-2.3 8.7-2.6 2.7-.1 4 .2 3.7.9-.3.6 0 .4.8-.5 1.4-1.6 5.4-1.9 7.5-.6.6.4 1.4.4 1.6-.1.3-.4 2.1-.7 4.1-.6 2.1.1 3.3-.2 3-.8-1.1-1.7-1.1-5.8-.1-5.8.6 0 .2-1-.9-2.2-1-1.2-1.4-1.8-.7-1.5.6.4 1.4.3 1.8-.3.3-.5.1-1-.5-1-.7 0-.8-.6-.1-1.8.8-1.5 2.2-1.8 8.6-1.8 4.2.1 7.9-.2 8.1-.6.3-.4 1.3-.5 2.4-.3 1.1.2 2-.2 2-.8 0-.8.3-.9.8-.1 1.4 2 4.1 2.4 5.1.6.6-1 1.1-1.2 1.1-.5 0 1.7 2.5 1.6 3.9-.1.9-1.1.9-1.5-.1-1.9-.8-.4-.9-.8-.3-1.4.6-.4 1-1.8 1.1-3 .1-2.6-.4-2.4-2 .8-.6 1.2-1.5 2.1-2 2-.5-.2-1.2.3-1.7 1-.4.8-1.1 1-1.6.5-.7-.7 2.7-3.3 3.6-2.7.1.1 1.1-1.3 2-3.1 1.9-3.7 1.7-6.5-.4-4.8-1 .8-1.5.7-2.1-.2-.4-.7-.4-1 .1-.6.4.4 1.4.3 2.2-.3.7-.6 1.3-.8 1.3-.5 0 .4.9.2 1.9-.4 1.3-.6 2.2-.7 2.6 0 .3.5 1.3.6 2.2.3 1.2-.5 1.4-.3.9.8-.4.8 0 .5.8-.5.9-1.1 1.6-1.5 1.6-1 0 1.5 5.8 1 7.3-.6.6-.7.7-1 .1-.7-.6.4-1-1.2-1-4.4.1-4.7 2-7.1 2.3-2.9.1 1.1-.2 2-.8 2-.5 0-.9.5-.9 1 0 .6.3.9.8.9 2-.3 3.2.2 2.6 1.2-.5.8-.9.8-1.4-.1-.5-.9-.9-.9-1.4-.1-.6 1 .6 1.5 2.7 1.2 1.2-.2.8 1.7-.5 2.2-.7.3-.3.4.8.4 1.4-.1 2-.6 1.7-1.4-.4-.9 0-1.1 1.1-.7.9.3 1.3 1.1.9 1.7-.3.6-.1.7.6.3.6-.4.9-1.1.6-1.6-.3-.5.4-.8 1.5-.7 2.2.1 2.7 1.3.8 2-.7.3-.3.4.8.4 1.5-.1 2-.6 1.6-1.6-.3-.9-.1-1.2.6-.7.8.5 1 .1.5-1-.5-1.2-.3-1.5.6-.9 1 .5 1.1.3.4-1.1-.4-1.1-.8-3.9-.8-6.3 0-3.4.4-4.5 1.8-4.7.9-.1 1.7.2 1.7.8 0 .6.7.4 1.7-.3 1.5-1.2 1.6-1.2.8.1-.4.8.5.4 2.1-1 1.5-1.4 2.3-1.8 1.6-.9-1 1.4-.9 1.7.9 2.2 1.6.4 1.9.2 1.5-1-.5-1.3-.4-1.4.8-.4 1.1.9 1.5.9 1.9-.1.4-1 .6-1 .6-.1.1.7.5 1.3.9 1.3 1.1 0 .2-6.9-.9-7.6-.5-.3-.9-1.1-.9-1.7 0-.7.4-.6 1.1.3.8 1.1.9.5.7-2.7-.2-2.3 0-3.9.4-3.7.5.3.8 0 .8-.7 0-.8.4-.9 1.3 0 1 .8 1.7.7 2.6-.2 1.1-.9 1.4-.9 1.8 0 .3 1 1 1 2.5.2 1.1-.6 1.8-.7 1.5-.2-.3.5.4.8 1.6.7 1.2-.1 2.7-.3 3.3-.3 1.3-.1 1.2-5.3-.1-6.3-.7-.5-.6-.8.1-.8.6 0 .9-1.8.8-4.4-.2-3.2.2-4.6 1.2-5 .8-.3 1.3-.2 1 .2-.2.4 2.7.7 6.5.7 6.6 0 6.8-.1 6.4-2.3-.2-1.2.1-2.2.7-2.2s.6-.6-.2-1.5c-1-1.2-1-1.5.1-1.5 1 0 1.1-.2.2-.8-.8-.5-.9-1.3-.3-2.2.5-.8.7-2.5.3-3.7-.3-1.3-.1-2.4.3-2.4 4.6-.6 10.2-.4 11.3.5 1.1.8 1.3.8.7-.2-.6-.9-.3-1.2 1-1 1.6.3 1.8-.6 2-7.2.2-8.1.5-9.8 1.8-11.9.6-1 .5-1.2-.2-.7-.8.5-1.1-1-.8-5.4.1-3.3.6-6 .9-6 .4 0 1 .1 1.5.1 2.9.5 3.9.2 5-1.6.9-1.4 1.2-1.5.8-.3-.3.9.3 2.2 1.2 3 .8.7 1.3.8 1 .3-.3-.6 0-1.6.8-2.3 1.4-1.3 2-.4 1.5 2.2-.1.5.5.4 1.3-.3s1.3-2.2 1.1-3.3c-.3-1.2.1-2.8.8-3.7.6-.8.7-1.2.1-.8-.7.4-1-.9-.8-4.1.1-2.6.3-4.9.4-5.2.7-1.9.3-8.6-.5-9.2-.7-.5-.7-.8 0-.8.6 0 1-4.4 1-11.4 0-6.6.3-11 .8-10.3.6.8.7.4.4-1.1-.3-1.2-.1-2 .4-1.7.5.4.8 1.7.7 3-.1 1.3-.6 2.1-1.2 1.8-.5-.3-.6-.1-.2.6.4.6 1.1.9 1.6.6.5-.3 1.1-.1 1.5.5.3.5-.1 1-.9 1-.9 0-1.6.4-1.6 1 0 .5.6.9 1.3.7 1.4-.2 3.7-3.8 3.1-4.8-.2-.4.3-1.2 1.1-1.9.9-.8 1.5-.8 1.5-.2 0 .6-.6 1.2-1.2 1.5-.7.3-.3.4.8.4 1.5-.1 2-.6 1.7-1.7-.4-1.2-.3-1.2.5-.2.5.8 1.2 1.3 1.6 1.3 1.9-.3 2.7 0 2.2.8-.4.5-1.7.8-3 .7-1.8-.2-2.3.1-1.9 1.3.4 1.4.3 1.4-.6.1-1-1.3-1.2-1.3-2.1 0-.6.9-.6 1.8 0 2.4 1.4 1.4 1.2 2.9-.2 1.9-3.3-2-5.4-.1-5.4 4.9 0 3 .3 3.5 1.4 2.6 1-.9 1.6-.8 2.3.3.6.9.9 1 .9.2 0-1.5 4.8-1.4 7 .1 1.3.9 1.3.8.3-.5-1.3-1.6-.8-2.9.9-2.9.5 0 .7.4.3.9-.3.5-.2 1.2.3 1.5.4.2.8-.6.8-2 0-1.3-.4-2.4-1-2.4-.5 0-.6-.3-.3-.7 1-.9-1.4-3.4-2.6-2.6-.6.3-.7.1-.3-.5.5-.8 1.3-.9 2.4-.3 1.5.8 1.7.2 1.9-5 .1-4.2-.2-5.7-1-5.3-.8.5-.8.2.1-.7.6-.7 1.2-2.8 1.2-4.7 0-2.4-.3-3.1-1.2-2.6-1 .6-1 .5-.1-.8 1-1.2 1.3-53.6 1.3-250.6V0H583.9c-159.4 0-168 .1-167.8 1.7zm20 175.2c0-1 .2-1.1.6-.2.2.7-.3 2-1.2 2.9-.9.9-1.3 2.5-1 3.8.2 1.1.2 1.5-.1.8-.3-.6-.9-1-1.3-.8-.6.4-.7-1.8-.2-6.8.1-.5.8-.3 1.6.4 1.2 1 1.5 1 1.6-.1zm8.1.7c.4.3.8.1.8-.5 0-1 3.1-.7 5 .4.6.3 1 .2 1-.2 0-.5.9-.9 2-.9s2 .4 2 .8-.4.8-1 .8c-.5 0-1 .5-1 1.1 0 .8.4.8 1.3.1.8-.7 1.8-.7 2.7-.2.8.6 1.1 1 .7 1-.4 0 .8 1.6 2.7 3.4l3.4 3.5 4.8-4.6c4.3-4.3 4.8-4.5 5.6-2.7.7 1.5.7 1.4.4-.6-.5-2.3-.2-2.5 2.9-2.5 3.6 0 4.6 1.1 2 2.1-.8.4-1.5 1-1.5 1.5 0 1.4 2.9-.2 3.5-1.9.4-1.4 1.8-1.7 7-1.7 3.6 0 6.5.2 6.5.5s.9.6 2 .6 2-.3 2-.6.9-.6 2-.6 2 .4 2 .7c0 .4-.9 1.1-2 1.4-1.1.3-2 1.3-2 2.1 0 1 .5.9 2-.6 1.1-1.1 2.5-1.8 3.2-1.6.7.1 1 .1.6-.1-.5-.3-.8-.8-.8-1.2 0-1.2 4.9-.5 6.6 1 1.2.9 1.7 1 2.7 0 .9-1 .8-1.1-.5-.6-1 .4-1.8.3-1.8-.3 0-1.1 3.1-.9 5 .3.6.3 1 .2 1-.2 0-1 27.2-.9 28.8.1.7.4 1.2.3 1.2-.1 0-.5.9-.9 2-.9s2 .4 2 .7c0 .4-.9 1.1-2 1.4-1.1.3-2 1.3-2 2.1 0 1 .5.9 2-.6 1.1-1.1 2.5-1.8 3.2-1.6.7.1 1 .1.6-.1-.5-.3-.8-.8-.8-1.2 0-1.2 4.9-.5 6.5.9.8.6 1.9.9 2.5.5 2-1.3 6.2-1.6 5.5-.5-.4.6-1.3.9-2 .6-.7-.2-2.2.2-3.3 1-1.3.9-2.3 1.1-2.7.4-.3-.5-1.4-1-2.3-.9-1.5 0-1.4.1.2.8 1 .4 2.5 1.8 3.3 3.2l1.4 2.4-.6-2.5c-.5-2.1-.4-2.2.5-.8.7 1.2.8 2.4.2 3.4-.8 1.4-1.2 1.2-2.7-1.4-1-1.7-2.6-3.3-3.6-3.5-1-.3.5 1.8 3.2 4.5 2.8 2.8 4.8 5.2 4.6 5.5-.3.2-2.2-1.3-4.3-3.4-2.1-2.1-4.2-3.7-4.6-3.6-.4.2-.8-.2-.8-.7 0-.6-1.8.8-4 3.1-4.8 5.1-4.7 6.3.1 1.7 3.2-3.1 5.9-4.4 5.9-3 0 .4 1.4 2.2 3.1 4 1.7 1.8 2.8 3.9 2.5 4.7-.3.9 0 1.2.8.9.7-.3 1.3.2 1.3 1.1 0 1-.6 1.4-1.6 1-1.2-.5-1.3-.3-.5.5 1.5 1.5 4.3.2 4.1-2-.1-1-.4-1.7-.8-1.4-.4.2-1.1-.1-1.5-.7-.4-.7-.3-1 .2-.7 1.1.5 5.4-3.8 4.6-4.7-.4-.3.2-.3 1.1.1 1.2.4 1.7.2 1.5-.7-.2-.8.3-1.4 1.1-1.4s1.5.6 1.7 1.3c.1.7 0 .8-.3.2-.2-.5-.9-1-1.4-1-.6 0-.7.5-.4 1 .3.6-.1 1.3-.9 1.6-.9.3-1.3 1-1 1.5.3.5-.3.6-1.3.2-1.7-.5-1.7-.5.1 1.3 1 1 2 1.4 2.2.9 1-2.5 2.4-3.9 3.1-3.2.4.5.1 1.2-.7 1.7-.8.5-1.1 1.2-.7 1.6.3.4 1.3.1 2.2-.6.9-.7 1.8-1 2.2-.6.3.3.1.6-.6.6s-.9.5-.4 1.2c.4.7.8 9.1.8 18.5 0 17.6-.4 19.5-3.6 15.6-1.2-1.5-1.2-1.6.4-1 1.1.4 1.6.3 1.2-.3-.3-.6-.2-1 .3-1s.9-.7.9-1.6c0-1.5-.1-1.5-1.2 0-1.6 2.1-2 2-2.2-.4-.1-1.1.1-1.9.5-1.9 2.1.3 3.2-.2 2.6-1.2-.4-.8-.9-.7-1.5.2-.5.8-.9.9-.9.3 0-.5.6-1.9 1.4-2.9 1.2-1.6 1.1-2.1-.8-3.7-1.1-.9-1.6-1.7-1.1-1.8.6 0 1.6.5 2.1 1 .7.7 1.1.6 1.1-.4 0-.8-.5-1.2-1.1-.9-.7.4-.7.2 0-.8.9-1.1.9-1.7-.1-2.6-1.1-1-1.5-1-1.9 0-.3.7-.5.3-.3-.8.1-1.1.7-2 1.4-2 .6 0 1.5-.4 2-.9s.3-.6-.4-.2c-.7.4-1.3.2-1.3-.3 0-.6.4-1.1.8-1.1.5 0 .8-1.4.8-3 0-1.7-.3-3-.8-3-.4 0-.8-.5-.8-1.1 0-.5.6-.7 1.3-.3.7.4.9.3.4-.2s-1.2-.9-1.5-.9c-.4 0-1.3-.4-2-.8-.7-.5-1.2-.5-1.1 0 .3 1.9-.2 3.6-.8 2.9-.5-.4-.8-1.2-.8-1.7s-.4-.9-1-.9c-.5 0-.9 1.4-.8 3.1.1 2.3-.1 2.8-1 2-.8-.6-1.8-.6-2.7 0-1.3.8-1.2 1.2.5 2.5 2 1.6 2 1.6-.1 1-1.7-.5-2.3-.1-2.7 1.5-.3 1.2-.2 3 .4 4 1.2 2.4 1.1 3.2-.3 2.3-.9-.5-.9-.2.1.9 1 1.3 1.1 1.7.1 1.7-.9 0-.7.7.6 2.2 1.4 1.6 1.5 2 .4 1.6-1.2-.4-1.6.1-1.5 2.2 0 1.6.4 2.6.8 2.3 1.2-.7.4 3-.8 3.9-.6.5-.5.8.4.8 1 0 1.1.4.3 1.3s-.2 1.8 2.4 3.5c1.9 1.2 3.4 1.9 3.3 1.5-.3-1.8.2-3.3 1-3.3 1.3 0 .7 4.6-.9 6.4-.9 1.2-.9 1.6-.1 1.6s.7.6-.3 1.6c-2.1 2.1-2 3 .1 1.3 1.5-1.3 1.5-1.2.6.6-.8 1.3-.8 2.5-.1 3.8.8 1.5.7 1.8-.3 1.2-.9-.6-1.1-.3-.6.9.4 1 .3 1.5-.3 1.1-.6-.3-1-.1-1 .4 0 .6.4 1.1.8 1.1.5 0 .8 1.5.8 3.4s-.4 3.2-.8 3c-.5-.3-.8.1-.8.8 0 1-.3.9-.9-.1-.7-1-.4-1.9.7-2.8 1.5-1.1 1.5-1.4.2-2.6-.8-.6-1.5-1.9-1.5-2.7 0-.8.7-2.1 1.5-2.7 1.3-1.2 1.3-1.4-.2-2.6-1.2-.9-1.4-1.7-.7-3 .6-.9.7-2.2.4-2.7-.3-.6.1-1.3 1-1.7 1.6-.5 1.5-.7-.1-1.6-1.1-.6-2-.9-2.1-.6-.1.2-.8-.4-1.5-1.4-1.3-1.8-1.4-1.7-1.4.2 0 1.1.3 1.8.6 1.6.4-.2.7.9.7 2.5s-.4 2.7-.8 2.5c-.4-.3-.5.4-.2 1.5s.8 2 1.2 2c.4 0 .7.9.7 2s-.3 2-.7 2c-.4 0-.9 1.1-1.1 2.4-.3 1.7-.1 2.3.8 1.9 1.7-.6 1.3 2.9-.6 4.4-.8.6-1.2 1.5-.7 1.9.4.4.7.2.7-.4 0-.7.5-1.2 1.1-1.2.5 0 .7.4.4 1-.6 1 .7 1.4 3.3 1.1 1-.2 1.1.2.2 1.8-.8 1.6-.8 2.1.1 2.1.7 0 1 .3.6.6-.3.3-1.4.1-2.4-.5-1.4-.8-1.5-1.1-.3-1.1 1.1 0 1.1-.3-.3-1.1-1.4-.8-2.2-.8-3 .1-.9.8-.8 1 .4.5 1-.4 1.6 0 1.6 1 0 .9-.5 1.4-1.2 1.2-.6-.3-1.1.3-1.1 1.3s.4 1.7.7 1.4c.4-.2 1 0 1.3.5.3.5-.1 1.1-.9 1.4-1.4.6-1.4 2.4.1 6.9.5 1.6.3 1.9-.7 1.2-.9-.5-.7.2.4 2 1.5 2.2 1.6 3 .6 4.2-1.6 1.9-.5 2.9 1.8 1.5 1.2-.7 1.3-1 .4-1.1-1.1 0-1.1-.3-.1-1.5s1-1.5-.1-1.5-1.1-.3.1-1.1c1.3-.9 1.2-1-.2-.5-1 .3-1.8.1-1.8-.4 0-.6.6-1 1.4-1 .8 0 1.4-.9 1.3-1.9 0-1.1-.5-1.7-.9-1.5-.5.3-.5 1.1-.2 1.7.5.8.3.8-.7-.1-.9-.9-1-1.5-.2-2.3 2.2-2.2 3.4.2 3 6.2-.2 3.4 0 5.9.6 5.9s.6.5 0 1.2c-.5.7-.8 8.6-.8 17.5 0 9-.3 16.3-.7 16.3-1.3 0-1.8-1.8-.6-2.3.8-.3.5-.6-.6-.6-1.3-.1-1.6.4-1.2 1.5.5 1.2.2 1.5-1 1-1.5-.6-1.5-.4.1 2 1.3 2 1.4 2.6.4 2.2-1-.4-1.4.3-1.4 2.2 0 1.7.5 2.6 1.2 2.3 1.3-.5 1.3 2.9 0 3.8-1.2.8-1.2 4.9-.2 7.3.7 1.5.5 1.7-.6 1.1-1.2-.8-1.2-.6 0 .8 1.1 1.4 1.1 1.7 0 1.7-1 0-1 .3-.1 1.2 1.4 1.4 1.6 3.2.4 2.4-.5-.3-.9.1-.9.8 0 .9.7 1.2 1.6.8 1.2-.4 1.1 0-.4 1.9-1.5 1.8-1.6 2-.2 1 1-.8 1.7-.9 1.7-.3 0 .6-.5 1.4-1 1.7-.6.4-.8 1.1-.5 1.6.4.5.1.9-.6.9-1 0-1 .3-.1 1.2 1.6 1.6 1.5 3.1 0 2.1-.7-.4-.5.5.5 2.1 1.5 2.2 1.6 3 .6 4.2-1 1.3-1 1.7.2 2.5 1.2.7.7 1.2-1.1 1.1-.3 0-.5 1-.5 2.3 0 1.3.5 2.1 1.2 1.8 1.6-.6 1.1 3-.7 4.5-1.3 1.1-1.3 1.1.1.7 1-.4 1.6 0 1.6 1 0 .9-.5 1.4-1.1 1.2-.7-.3-1.1 1.9-1.1 6.3 0 4.2.4 6.6 1 6.3.6-.2 1.1.6 1.1 1.7s-.5 1.9-1.1 1.7c-.5-.3-1 .8-1 2.3 0 1.8.4 2.6 1.2 2.3.7-.3 1-.9.7-1.5-.3-.5.2-1.9 1.3-3 1-1.2 1.2-1.8.6-1.4-.8.4-1.3.2-1.3-.4 0-.7.7-1 1.8-.6 1.6.6 1.6.5-.1-.8-1-.8-1.4-1.6-1-1.8.4-.3.2-.3-.4-.2-.7.2-1.3.2-1.3 0 0-.3-.3-1.1-.6-2-.5-1.3-.2-1.3 1.9-.3 2.8 1.3 4 5 2.3 6.7-.7.7-.7 1.3-.1 1.8 1.2.9 1.5 17.3.3 16.6-.5-.3-.6-1.4-.3-2.5.6-1.7-.3-2.4-2.7-2-.4 0-.6-.8-.5-1.9.1-1.1.6-2 1.3-2 .6 0 1.2-1.1 1.2-2.5s-.4-2.5-.7-2.5c-1.5 0-2.9 2.3-2.4 3.8.4 1 .2 1.3-.5.8-1.2-.7-1 1.3.4 4.8.5 1.4.4 1.7-.5 1.1-1-.6-1.1-.3-.2 1.3 1.4 2.7 1.4 3.5-.1 2.6-1-.5-1-.4-.1.6.6.7.9 1.9.6 2.6-.3.8 0 1.4.7 1.4.6 0 .8.5.5 1-.4.6-1 .8-1.4.6-.3-.3-.7.4-.7 1.4 0 1 .6 1.6 1.6 1.5.8-.2 1.9-.4 2.4-.4.5-.1.3-.8-.4-1.6-1.4-1.7-.6-1.8 2.5-.5 1.1.5 1.4.9.7.9-.7.1-1 .6-.6 1.3.4.6.8 2.1 1 3.2.1 1.2.5 3.3.7 4.8.3 1.5.1 3-.4 3.3-.9.6-1.2-.6-1.1-6.2 0-3.9-1.1-4.9-3.2-2.7-.9.8-1.6 1.1-1.6.5 0-.6-.5-1.1-1.2-1.1-.6 0-.3 1 .8 2.2 1.9 2.1 1.9 2.1 0 1.4-1.6-.5-1.7-.4-.6.9 1 1.2 1 1.5-.1 1.5-.9 0-1 .3-.2 1.1 1.4 1.4 3.4.3 2.7-1.5-.3-.7.2-1.3 1.1-1.3 1.8 0 1.8 0 .4 3.1-.7 1.4-1.7 2.3-2.3 2-.6-.3-.2.2.8 1 1.4 1.1 1.5 1.6.6 1.6-1.1 0-1.1.3-.2 1.2 1.8 1.8 1.5 3.3-.3 1.8-.9-.7-1.4-1.9-1.1-2.6.3-.7-.1-1.4-.7-1.7-.8-.3-1.2 1-1.2 4.3 0 3.2.4 4.6 1.2 4.3 1.3-.5 1.2 2.9-.1 3.9-1.5 1-1.5 4.7 0 4.1.6-.2 1.5.1 2 .8.4.7.3 1-.4.5-.6-.3-1.6.2-2.2 1.3-.8 1.7-.8 1.9.4 1.5 1.9-.7 1.6 2.7-.4 4.3-.8.6-1.2 1.5-.7 1.9.4.4.7.2.7-.4 0-.7.5-1.2 1.1-1.2.5 0 .8.4.5.9-.3.5.2 1.5 1.1 2.2 1.4 1.2 1.6 1.2.8 0-.5-1-.4-1.2.4-.7.6.4 1.4 0 1.7-.8.3-.9 1-1.6 1.6-1.6.5 0 .7.4.4.8-.2.4 0 1.4.5 2.2.7 1.2 1 1 1.5-.8.5-1.7.9-2 1.5-1.1.5.8.3 1.7-.4 2.1-.9.6-.9.8.1.8 1.7 0 1.5 2.7-.3 3.4-1.1.4-1.9-.3-2.5-1.9-.5-1.4-1.3-2.5-1.6-2.5-.4 0-.4.3-.1.6.3.4.2 1.5-.4 2.5-1 2-4.3 1.5-3.5-.6.3-.8-.1-1.6-.9-1.8-1.5-.6-2.5.1-2.5 1.7 0 .6.5.4 1-.4.6-.9 1-1 1-.3 0 .6-.4 1.4-.8 1.7-.5.3-.8 3.7-.7 7.6.1 3.9-.3 7.3-.7 7.6-.5.3-.3 1.3.4 2.1 1.1 1.4 1 1.5-1.2.9-2.4-.7-2.4-.7-.5.9 1.7 1.4 1.8 1.7.5 2.5-1 .7-1.1 1-.2 1 .6 0 1.2.8 1.2 1.7 0 1.5-.2 1.6-1 .3-.6-.9-1-1-1-.3 0 1.8-5.8 5.5-9.1 5.9-1.6.2-2.8 0-2.6-.4.1-.4-.2-.8-.8-1-.5-.1-1 .4-1 1 0 .9-2.2 1.3-7.7 1.3-6.9-.1-7.8.2-8.7 2.1-.7 1.6-.5 2.5.7 3.8 1.3 1.3 1.4 1.8.3 2.8-1 1.1-1.1.9-.6-.7.5-1.6.5-1.7-.3-.5-.8 1-.7 1.9.1 2.8.9 1.1.6 1.8-1.3 3.4-1.3 1.1-3.2 1.7-4.2 1.5-1-.3-1.8-.2-1.8.3 0 .4-1.5.5-3.3 0-1.8-.4-4.2-.4-5.2 0-1.1.4-4.8.6-8.1.6-4.6-.1-6 .2-5.7 1.2.4.8-.1 1-1.3.6-1.1-.3-1.5-.2-.9.3.6.4 1.8 2 2.8 3.5 1 1.6 2.3 2.8 2.9 2.8.6 0 .3-.9-.7-2s-1.4-2-.9-2c.5 0 .2-.5-.6-1-1-.7-1.1-1-.2-1.1 2.2-.3 2.7-.4 4-1.2.7-.5 1.2-.4 1.2.2 0 .6-.6 1.1-1.2 1.1-.9 0-.8.3.2 1 1.6 1 3.3-.7 2.3-2.3-.3-.5.3-.4 1.4.2 1.4.7 2.3.7 3 0 .7-.7 1.3-.7 1.7-.1.3.5-.1 1.5-.9 2.2-1.8 1.5-2 3.4-.3 2.4.7-.4.8-.3.4.5-.4.6-1.1.9-1.6.6-.4-.3-1.1.2-1.4 1.1-.3.8-1.4 1.4-2.3 1.2-1.1-.2-1.7.2-1.5 1.1.3 1.2.1 1.2-1.3.1-1.3-1.1-1.9-1.1-3.3.3-1 1.1-1.2 1.7-.4 1.7.7 0 1.2-.5 1.2-1 0-.6.5-1 1-1 2.8 0-1.2 3.5-5.2 4.6-.5.1-.9.3-1 .4-.8.7-6.8.4-6.8-.3 0-.5-.5-.5-1.2 0-.7.6-2.8.9-4.5.7-2.2-.1-4.1.4-5.5 1.8-1.3 1.1-1.8 1.7-1.1 1.4.6-.4 1.3-.3 1.6.1.2.5.2.2.1-.5-.2-.6.3-1.2 1.1-1.2 1.6 0 1.6 2.1.1 3.2-.6.4-.4 1.4.5 2.4 1.2 1.5 1.2 1.7 0 .9-1.1-.6-1.3-.4-.8.8.4 1.1.1 1.7-.7 1.7-1.9 0-3.9-2.7-3-4.1.5-.9 1-.7 1.5.7.6 1.6.8 1.6.8.2.1-2.3-1.9-3.4-3-1.7-1.2 1.9-1.1 2.5.6 4.3 1.9 1.8 1.9 2.6.1 2.6-.7 0-1.9.7-2.6 1.5-.7.9-1.5 1.3-1.8 1-.3-.3-1.2.1-2 .8-1.3 1-1.5.9-.9-.7.8-2-.8-4.6-2.7-4.6-.6 0-.3.5.6 1.1.9.5 1.5 1.6 1.2 2.4-.4.8-1 1.2-1.5.9-.5-.3-.6-1.1-.3-1.7.4-.7.3-.8-.2-.4-.5.5-.9 1.3-.9 1.8s-.3.8-.6.6c-.3-.1-1.3.4-2.2 1.1-.8.7-1.8.9-2 .5-.7-1.1-7.8-1-9.6.1-.9.6-1.2.5-.8-.1.3-.5.1-1-.6-1s-1.3.9-1.3 1.9c0 1.1.5 1.7 1.4 1.3.8-.3 1 0 .5.8-.4.6-.8 1.9-.8 2.7 0 .8-.4 2-.8 2.7-.4.6-.2 1.5.4 1.9.8.5.9.3.4-.6-.6-.9-.4-1.1.4-.5.9.5.7 1.2-.8 2.6-2.4 2.2-7.1 4.2-7.1 3.1 0-.5-1.5-.7-3.2-.6-1.8.1-3.9.3-4.6.3-.7.1-1.2 1.3-1.1 2.8.5 15.1-.4 78.3-1.1 77.8-.6-.3-1 0-1 .7 0 .8-.3.9-.8.3-.8-1.2-12.2-1.4-11.5-.2.2.4.9.4 1.5.1.6-.4.8-.2.5.3-.4.6-4.5-1.5-10.1-5.1-7.9-5.1-9.4-6.5-9.1-8.4.2-1.2-.1-2.2-.6-2.2-.6 0-.8-.3-.6-.7.3-.5-2.5-.8-6.1-.7-8.3.1-10.2-.4-10.3-2.5 0-1-.2-1.1-.6-.4-.3.9-1.5.7-4.3-.7-2.2-1.1-4.6-2-5.5-2-1.7 0-2-1.6-.5-2.5.6-.3 1 0 1.1.7 0 1 .2 1 .6 0 .2-.6.9-1 1.4-.7.5.4.6-.1.2-1-.5-1.3-.7-1.4-1.4-.3-.5.7-.9.9-.9.4s-.9-.1-2 .9c-1.9 1.7-2 1.7-2 .1 0-1.1-.5-1.5-1.2-1-1 .5-1 .4-.1-.6.8-.9.9-1.9.2-3.2-.5-1-.7-1.8-.4-1.8.4 0 .3-.5 0-1.1-.5-.7-1.4-.4-2.8.8-1.5 1.3-1.8 1.3-.9.2 1.1-1.4.6-1.6-4-1.4-5.7.1-8.9-1.2-16.5-7-2.4-1.9-4.9-3.5-5.4-3.7-.5-.2-1.1-1.3-1.2-2.6-.1-1.6-1-2.5-3.3-3.1-3.1-.9-10.4-7.3-10.4-9.2 0-.5-.4-.9-.9-.9-1 0-2.7-3.9-2.3-5.3.2-.5-.3-.7-1-.4-.7.2-2.6-1.4-4.1-3.7-2.8-4.1-9.8-17.9-10.1-20-.1-.6-.4-1.6-.8-2.1-.3-.6-.5-2.2-.3-3.7.2-1.6-.2-3.1-.7-3.5-.7-.3-.8-.1-.4.5.4.7.2 1.2-.4 1.2-.7 0-1-.7-.7-1.5.4-.8.2-1.7-.4-2.1-.6-.3-.8-1.2-.5-1.9.2-.7-.1-1.8-.7-2.4-.6-.6-.7-1.1-.3-1.1.5 0 .3-.7-.4-1.5s-1-2.2-.6-3c.3-.8.1-1.5-.5-1.5s-.9-.6-.6-1.4c.3-.7 0-1.9-.6-2.5-.6-.6-.7-1.1-.1-1.1.5 0 .2-.5-.6-1-1.3-.9-1.3-1 0-1s1.3-.1 0-1-1.3-1 0-1c1.2 0 1.2-.2.2-.9-1.1-.7-1-.9.3-1.4 1-.5 1.4-.3.9.5-.5.7-.3.8.6.3.9-.6 1.1-.4.5.6-.5.8-.4 1 0 .6 1.4-1.2 1.5-3.8.2-3-.7.4-.5-.2.3-1.3 1.4-1.7 1.4-1.8-.2-.6-1.5 1.2-1.7 1.1-1.3-.7.2-1.2 0-1.9-.5-1.6-.6.3-.7-.1-.4-.9.3-.9.2-1.6-.3-1.6s-.9.9-1 2c-.1 1.1.2 2 .6 2 .4 0 .8.7.8 1.5s-.4 1.5-.8 1.5c-1 0-2.2-5.7-1.4-7 .3-.5.1-1-.6-1-.6 0-.9-.8-.6-2 .3-1.1.2-2.2-.3-2.5-.4-.3-.6-1.8-.5-3.5.1-1.7-.2-3.3-.7-3.6-.5-.3-.4-1.2.3-2 .9-1.1.8-1.4-.2-1.4-.8 0-.5-.6.7-1.5 1.3-1.1 1.4-1.3.3-.9-1 .3-1.9-.1-2.2-1-.4-.9-.3-1.5.1-1.5 1.9.3 2.2-.2.9-1.6-1-1-1.4-3.1-1.3-6.5.2-2.7 0-5-.3-5-.4 0-.7-.9-.7-2s.4-2 .9-2 .5-.6 0-1.3c-.6-.6-1-4.1-.9-7.7.1-3.6-.3-6.9-.9-7.3-.6-.5-.3-.7.8-.3 2.2.7 2.2-1 0-1.8-1.5-.6-1.5-.8-.3-1.6.8-.6 1.1-1 .6-1-.5 0-.2-.8.5-1.7 1.2-1.5 1.2-1.6-.5-1-1.6.6-1.7.5-.6-.8s1.5-1.3 2.2-.3c.6.9.7.5.3-1-.4-1.3-.2-2.2.5-2.2.6 0 .9.4.6.8-.2.4 0 1.4.6 2.2.8 1.2.9 1.2.4-.3-.4-1.1-.2-1.6.5-1.2.6.4.8 1.4.4 2.4-.5 1.3-.4 1.3.6.4 1-1 .9-1.6-.4-3.1-.9-1-1.4-2.2-1-2.6.4-.4-.1-.4-1.2 0-2 .7-2 .6 0-1 1.1-1 1.4-1.5.8-1.1-.9.4-1.1 0-.7-1.2.3-1-.1-.7-.9.7-.9 1.4-1.3 2.8-1.1 3.1.2.4-.2 1.1-.9 1.7-.9.8-1.2-.3-1.1-5.1.1-4.4.4-6.1 1.3-5.9.8.1 1-.4.7-1.5-.3-1-.1-2.5.4-3.3.8-1.3 1.1-1.3 2.6.2s1.5 2 .4 3.5c-1.3 1.7-1.3 1.7.6 0 1.9-1.8 1.9-1.9-.9-4.3-1.5-1.3-2.4-2.4-1.8-2.4.5 0 .8-1.1.7-2.5-.2-1.4.1-2.2.7-1.8.6.3.7.1.3-.5-1.2-1.9-2.4-1.4-2.4 1 0 3.2-.7 5.7-1.8 6.8-.5.5-.9-1.4-.8-5.3.1-4.1.5-6.1 1.2-5.9 1.5.3 1.5-.4 0-3.1-1.8-3.3-1.7-5.6.1-4.9 1.4.5 1.4.3.2-1.1-1.1-1.4-1.1-2 0-3.4 1.2-1.4 1.2-1.6-.2-1.1-1 .4-1.6.1-1.6-.8 0-.8.5-1.4 1-1.4s.4-.7-.3-1.6c-.8-.8-.9-1.4-.4-1.3 2.3.4 2.6-.2.8-1.6-1.3-1-1.4-1.4-.5-1.5 1.1 0 1.1-.3.1-1.6-.8-.8-.9-1.4-.4-1.3 2 .4 2.8-.2 1.4-1.1-2-1.3-2.1-7 0-6.2 1.3.5 1.3.3.1-1.1-1.9-2.3-1.9-13 0-15.3 1.2-1.6 1.2-1.7-.2-1.2-1 .4-1.6.1-1.6-.8 0-.8.5-1.4 1-1.4s.4-.7-.3-1.6c-.8-.8-.9-1.4-.4-1.3 2.3.4 2.6-.2.8-1.6-1.1-.8-1.4-1.5-.6-1.5.6 0 1.2-.5 1.2-1.1 0-.5-.4-.8-.8-.5-.4.2-.8-.4-.8-1.4 0-1.2.5-1.6 1.6-1.2 1.3.4 1.2.2-.2-1.4-1.5-1.8-1.5-2 .2-4.2 1.7-2.1 3.7-3.1 2.6-1.3-.3.4.4 1.7 1.7 2.7l2.2 1.9-2-2.5-2-2.5 2 1.5c1.9 1.4 2 1.4.2-.6-.9-1.1-1.4-2.4-1-2.8.4-.4-.1-.4-1.2 0-2 .7-2 .6 0-1 1.1-1 1.4-1.5.8-1.1-.9.4-1.1 0-.7-1.2.3-1-.1-.7-.9.7-.9 1.4-1.3 2.8-1.1 3.1.2.4-.2 1.1-.9 1.7-.9.8-1.2-.3-1.1-5.1.1-4.4.4-6.1 1.3-5.9.8.1 1-.4.7-1.5-.3-1-.1-2.5.4-3.3.8-1.3 1.1-1.3 2.6.2s1.5 2 .4 3.5c-1.3 1.7-1.3 1.7.6 0 1.9-1.8 1.9-1.9-.9-4.3-1.5-1.3-2.4-2.4-1.8-2.4.5 0 .8-1.1.7-2.5-.2-1.3 0-2.3.3-2 .4.2.7-.5.8-1.5.1-1.1-.2-2.2-.8-2.5-.5-.3-.6.1-.3.9.4 1 .1 1.6-.7 1.6-.7 0-.9-.3-.6-.6.3-.4.2-1.4-.3-2.3-.7-1.4-.3-1.7 2.1-1.6 1.7 0 3.4.7 3.9 1.5.9 1.4 1.4.7 1.1-1.3-.1-.4.8-.3 1.8.3 1.2.6 1.8 1.6 1.5 2.5-.4.8-1 1.3-1.4 1-.5-.3-1.2 0-1.6.6-.4.7-.3.9.3.6.5-.3 1-.1 1.1.6 0 .7.3 2.1.5 3.2s.2 2.4-.2 3c-.3.5-.7 1.9-.8 3-.3 1.6-.1 1.7.7.5.7-1 1-1.1 1.1-.3.1.7.2 1.9.3 2.5.1.7-.1 1.7-.4 2.3-1.3 2-.5 14.2 1 16 .8 1.1 1 1.6.3 1.2-.6-.4-1.4-.3-1.8.3-.3.5-.2 1 .3 1s.8 1.5.8 3.4c-.1 1.9-.3 3.3-.6 3.1-.3-.2-.5 7.7-.5 17.6.1 13.6-.2 18.3-1.2 19.1-.7.6-1.3 1.5-1.3 2.1 0 .6.6.3 1.3-.7 1.2-1.6 1.4-1.6 1.4-.2 0 .9-.5 1.6-1 1.6-.6 0-.7.3-.4.7.4.3 0 1.7-.9 3.1-1 1.5-1.1 2.1-.3 1.7.8-.5 1-.4.5.4-.4.6-.4 1.7.1 2.4s.9 2.6.8 4.4c-.1 1.8.1 3 .5 2.8.3-.2.5 1.5.4 3.8-.1 2.3-.3 4.2-.4 4.2-.1 0-.3 1.1-.6 2.5-.3 1.9-.2 2.1.6 1 .7-1 1-1.1 1.1-.3.1.7.2 1.9.3 2.5.1.7-.1 1.7-.4 2.3-.4.5-.6 4.4-.5 8.5.1 5.5-.2 8-1.4 9.3-1.4 1.7-1.4 2 .9 3.7 2.3 1.8 2.4 1.9.7 3.7-1.3 1.5-1.4 2.2-.5 3.1.7.7.9 1.2.5 1.2s-.3 1 .4 2.1c.6 1.2.7 1.9.2 1.6-1.2-.8-1 5.4.2 7.3 1.4 2.2 1.3 3.3-.3 5.2-.8 1-1.1 1.8-.7 1.8.4 0 0 .9-1.1 2.1-1.8 2-1.8 2.1.3 3.7 2.3 1.8 2.5 5.9.2 5.4-1-.3-1 0 .1 1.2.7.9.9 1.6.6 1.6-.4 0-.2 1 .5 2.1.6 1.2.7 1.9.2 1.6-1.4-.9-.9 5.8.5 7.5.6.8.9 1.8.5 2.1-.3.4-.2.7.4.7 1.6 0 1-12-.7-13-.8-.6-1.2-1-.7-1.1.4-.1 1.2-.3 1.7-.4.6-.1 1.3-.3 1.6-.4.4 0 .2-.7-.3-1.3-.6-.7-.9-7.2-.8-14.6.1-11.1-.1-13.5-1.4-14.2-.9-.5-1.3-1-.8-1.1.4-.1 1.2-.3 1.7-.4.6-.1 1.3-.3 1.6-.4.4 0 .2-.7-.3-1.4-1.2-1.5-1.1-20.7.1-22.6.6-.9.5-1.2-.1-.8-.7.4-1-.4-1-2.1 0-1.5-.3-3.8-.7-5.1-.6-1.8-.5-2.2.4-1.6.8.5 1.1.4.6-.3-.3-.6-.2-1.3.4-1.7.6-.4.7-1.2.3-1.8-1.2-1.8-1.1-8.7.1-8.7.6 0 .3-.5-.6-1.1-1-.5-1.8-1.5-1.8-2 0-.6.4-.8.8-.5.4.2.8-1.1.8-2.9 0-2.4-.4-3.1-1.1-2.5-.8.7-1.2.1-1.2-2 0-1.7.3-2.8.5-2.5.9.9 3.2-1.7 2.5-2.8-1-1.7-1.1-8.7-.1-9.3.5-.3.5-1.1.1-1.7-1-1.7-1.1-9.7-.1-10.3.5-.3.5-1.1.1-1.7-1.3-2-1.2-23.1.1-23.9.7-.5.7-.8 0-.8-1.2 0-1.2-7.9 0-9.9.6-.9.5-1.2-.1-.8-.7.4-1-.4-1-2.1 0-1.5-.3-3.8-.7-5.1-.5-1.6-.5-2.1.2-1.7.7.4.9-.1.7-1.4-.2-1.1.2-2 .8-2 .8 0 .9-.2.1-.8-.6-.4-1-1.7-.9-3 .1-1.3-.2-2.5-.7-2.8-.4-.3-.8-1-.8-1.5 0-.6.5-.7 1.1-.3.8.5.8.1 0-1.4-1-1.9-.7-1.9 63.4-2 35.4 0 64.8-.2 65.3-.6.5-.3.6-2.8.2-5.6-.4-2.7-.4-5-.1-5 .3 0 .6-9.7.6-21.5 0-13.7-.4-21.5-1-21.5-.7 0-.7-.3 0-.8.6-.4 1-6.9 1-15.7 0-8.8-.4-15.3-1-15.7-.7-.5-.7-.8 0-.8.6 0 1-8.7 1-24-.1-15.9.3-24 1-23.9 3 .4 3.8-.1 2.5-1.6-1-1.2-1-1.8 0-3 .7-.8 1.7-1.5 2.3-1.5.5 0 .2 1-.9 2.2-1.3 1.6-1.4 1.9-.3 1 1.5-1.1 1.7-.9 1.5 1.3 0 1.4-.8 2.8-1.7 3-2 .7-3 3.8-1.8 5.6.7 1.2.9 1.2.9 0 0-1.1.3-1.1 1.5-.1 1 .9 1.5.9 1.5.1 0-1.5 2.7-1.4 3.4.1.3.7.3.3.1-.8-.4-1.7-.1-2.2 1.2-2 1 0 2.4.8 3.1 1.6 1.1 1.3 1.1 1.3.7-.1-.7-1.8 2.1-4.6 3.3-3.4.4.4.1 1-.5 1.2-.7.3-1.3.9-1.3 1.5s.6.6 1.5-.2c1.2-1 1.8-1 3 0 3.1 2.6 1.4-.1-2.2-3.5-2.1-1.9-3.2-3.5-2.5-3.5.6 0 1.2-.4 1.2-1 0-.5-.8-.7-1.7-.4-1.5.5-1.5.3.1-1 1.8-1.5 1.8-1.6.2-1.6-1 0-1.4-.4-1-1.2.4-.6.3-.8-.3-.5-1 .7-1 4.8.1 6.5.3.5-.2 1.6-1.1 2.3-1.5 1.2-1.6 1.2-1-.4.4-1.1 0-2.4-1.3-3.4-1.1-1-2-2.1-2-2.6s.7-.4 1.5.3c1 .9 1.5.9 1.5.1 0-.6-.2-1.1-.4-1.1s-1.1-.3-2-.6c-1.2-.4-1.6 0-1.6 1.6 0 1.2-.4 1.8-1 1.5-.6-.4-.8-1-.5-1.5.3-.5.1-1.1-.5-1.5-2-1.2-1-2.4 1.7-1.9 1.5.3 3 .7 3.5 1zm22.8-.7c1.1.1.9.6-.8 2.3l-2.2 2.2-2.7-2.5-2.7-2.4 2.5 3.2c1.3 1.8 2.6 3.2 2.9 3.2.3 0 1.6-1.4 2.9-3.2 2.2-2.9 6.1-4.5 6.1-2.5 0 .4-.5.8-1 .8-.6 0-2.7 1.8-4.8 4l-3.8 4.1-1.4-2.6c-.7-1.4-2-2.5-2.7-2.5-.8 0-1.1-.5-.8-1 .3-.6-.1-1.3-.9-1.6-4-1.5.4-2.2 9.4-1.5zm94-.5c0 .3-.4.8-1 1.1-.5.3-1 .1-1-.4 0-.6.5-1.1 1-1.1.6 0 1 .2 1 .4zm11 0c0 .2-.6.9-1.4 1.5-1.1.9-1.6.9-2.2 0-.4-.7-.3-.9.4-.5.6.3 1.3.2 1.7-.4.6-1 1.5-1.4 1.5-.6zm3.3 1.8c-.4.7-.8 1.9-.9 2.6-.5 3.1-3.5 2.5-3.3-.6.1-1.5.2-1.5.6.1.2.9.9 1.5 1.4 1.1.5-.3.6-1 .3-1.6-.4-.6 0-1.4.7-1.9 1.9-1.2 2.2-1.1 1.2.3zm-6.3 2.9c0 .6-.4.7-1 .4-.5-.3-1-1.1-1-1.6 0-.6.5-.7 1-.4.6.3 1 1.1 1 1.6zm-4-.1c1.2.6 1.7 1.6 1.3 2.6-.5 1.4-.3 1.5 1.5.5 3.8-2 3.8-1.1-.1 1.2-2.1 1.3-3.4 2.6-3 3.1.4.4-.1.4-1.2 0-1.1-.5-1.4-.9-.7-1.2.7-.2 1-.8.7-1.3-.4-.5 0-.6.7-.4.9.4 1.4-.2 1.4-1.5s-.5-1.9-1.4-1.5c-.7.2-1.1.1-.7-.4.3-.5-.1-1.2-.7-1.4-.7-.3-.9-.6-.5-.6.5-.1 1.7.4 2.7.9zm-121 2.5c.7.8 1 1.5.7 1.5-.3 0-1.4.3-2.4.7-1.6.6-1.7.5-.3-1.3s1.4-1.8-.3-.5c-.9.8-2.1 1.1-2.4.7-.4-.4-.1-1.1.7-1.6 2-1.3 2.6-1.2 4 .5zm4 4c-.7.9-1.5 1.3-1.8 1-.3-.2.1-1.1.8-2 .7-.9 1.5-1.3 1.8-1 .3.2-.1 1.1-.8 2zm-6.4-.4c.9 1.5-1 3.1-4 3.4-2.2.3-2.4.1-1.6-1.5 1.5-2.7 4.4-3.7 5.6-1.9zm3.4 1c0 .5-.4.9-1 .9-.5 0-1-.7-1-1.6 0-.8.5-1.2 1-.9.6.3 1 1 1 1.6zm126.7 10.1c-1.5.9-1.9.4-1.1-1.6.5-1.4.9-1.5 1.5-.5.5.8.3 1.7-.4 2.1zm-2.7-.8c0 .2.3 1.1.6 2 .4 1.1 0 1.6-1.2 1.7-1.3 0-1.4.2-.6.6 1 .4.5 1.1-1.4 2.4-1.5 1-3.2 1.5-3.7 1.2-.6-.4-.7-.1-.1.8.9 1.5 1.5 3.9.8 3.9-.2 0-.8-.9-1.4-1.9-1.1-2.1-.3-5.4 1.1-4.5 1.4.8 2.9-.5 2.3-2.1-.4-.8-1.1-1.2-1.7-.8-.6.4-.7.1-.2-.6.5-.9 1.1-.9 1.7-.3.6.6 1.7.8 2.4.5 1.1-.4 1.2-.9.3-1.9-.8-1-.8-1.4 0-1.4.6 0 1.1.2 1.1.4zm5 2.6c0 .5-.8 1-1.7 1.1-1.1 0-1.3.3-.6.6 2.3.9-.5 4.5-3 3.9-1.2-.3-1.6-.3-.9 0 .6.3.9 1.1.6 1.6-.4.6-.2.8.3.5.6-.4 1.4 0 1.7.9.3.8 1 1.2 1.6.9.5-.3 1-.2 1 .3 0 .6-.7 1.3-1.6 1.6-1.5.6-1.5.8.2 2.7 1.1 1.2 1.4 2.3.9 2.7-1.1.8-1.8 2.8-1.9 5.4 0 .9-.4 1.4-.8 1.2-.4-.3-.8 0-.8.5 0 .6.5 1.1 1.2 1.1.6 0 .9.2.6.5-1 1.1-3.4-.6-3.5-2.5-.1-1.1.2-1.8.7-1.5.5.3 1.2 0 1.6-.6.5-.8.2-1-.7-.5-.8.4-.5 0 .5-.8 1.1-.9 1.5-1.6 1-1.6-.6 0-1.1-.7-1.1-1.5 0-1 .6-1.4 1.6-1 1.1.3 1 0-.3-1-1.1-.8-2.3-1.5-2.8-1.5-.4 0-.8-.7-.8-1.5s.5-1.5 1.1-1.5c.5 0 .7.4.4 1-.4.6.1.7 1.1.3 1.6-.6 1.6-.8-.4-1.6-3.2-1.5-3.5-3.7-.7-6.3 1.4-1.3 2.5-2.8 2.5-3.4 0-.5.7-1 1.5-1s1.5.4 1.5 1zm-8.1 10.1c-.8.4-.5 1.3.7 2.5 2.2 2.2 2.5 5.4.7 7.5-2 2.4-.9 4.7 3.7 7.8 3.6 2.4 4.4 3.6 4.5 6 .1 2.9-1.8 4-2.1 1.3-.1-.7-.2-1.7-.3-2.3-.1-1.3-2.1-.2-2.1 1.2 0 .6.4.8.8.5.5-.3.9.1.9.9s-.5 1.1-1 .8c-.6-.3-.7-.1-.3.6.4.6 1.1.9 1.6.6 1.1-.7 1.8.4 2.4 3.9.4 2.1.2 2.6-1 2.2-.7-.3-1.4-.1-1.4.4 0 .6.8 1 1.8 1.1 1 0 1.2.3.5.6-.9.3-1 1-.3 2.4 1.4 2.4-.5 2.6-1.9.1-.6-.9-1.1-1.2-1.1-.5 0 .6.5 1.5 1 1.8.6.4.8 1.1.5 1.6-.3.5 0 .7.7.6.7-.2.9-.2.5.1-.4.2-.3 1 .4 1.8.8 1 .8 1.4 0 1.4-.6 0-1.1.5-1.1 1.1 0 .5.4.8.8.5.4-.2.8 2.4.7 6 0 4.1-.4 6.4-1.1 6.4-1.9 0-2.5-3-.8-3.7 1.1-.4 1.2-.8.4-1.3-.7-.4-1.3-3.5-1.4-7.2-.1-3.5-.6-6.9-1-7.6-.4-.7-.2-1.9.4-2.7.7-.8.8-1.5.3-1.5s-.9-1.5-1-3.3c-.1-1.7-.4-4.6-.8-6.2-.4-1.7-.8-3.9-.9-5 0-1.1-.8-2-1.6-2s-2-.4-2.7-.8c-.6-.4-1.5-.2-1.9.4-.4.7-.3.9.3.6.6-.4 1.4 0 1.7.8.4 1.3.2 1.3-1.4.5-1.5-.8-1.8-1.9-1.5-4.7.2-2.1-.1-4.5-.6-5.4-.6-1.2-.4-1.9.7-2.3 2.3-.9 3.1-.7 1.5.3-1 .7-.7.9 1.1.8 1.3-.1 2.5-.7 2.5-1.4 0-.6-.6-.9-1.4-.6-.7.3-1.3 0-1.3-.6s-.5-1-1.2-.9c-1.7.4-1.8-4-.2-4.6.7-.3 1.1-1.5.9-2.8-.4-2.2-.4-2.2 1-.4 1.1 1.4 1.2 2.2.4 2.7zM564 235c-.7.4-.9 1.3-.6 1.9.4.6.3 1.8-.2 2.8-.8 1.3-.9.8-.7-1.8.4-5.1.4-5.1 1.6-4.3.8.5.8.9-.1 1.4zm1 9c0 .5-.4 1-1 1-.5 0-1-.5-1-1 0-.6.5-1 1-1 .6 0 1 .4 1 1zm0 8c0 .5-.4 1-1 1-.5 0-1-.5-1-1 0-.6.5-1 1-1 .6 0 1 .4 1 1zm.8 10.9c1.1.7 1 1-.3 1.5-2 .7-3.8-.1-3-1.5.7-1.1 1.6-1.1 3.3 0zm.4 4.3c.4 1.9 0 2.3-2.3 2.4-3.2.1-3.4-1.5-.4-3.3 1.1-.7 2.1-1.2 2.1-1.3.1 0 .4 1 .6 2.2zm9.3 13.1c0 9.3-.7 12.4-1.7 7.2-.3-1.4-.1-2.5.4-2.5s.4-.8-.1-1.8c-.7-1.3-.6-2.3.1-3 .8-.8.8-1.2.2-1.2-1.2 0-1.2-2.9 0-4.8.4-.6.2-1.2-.3-1.2-.6 0-1.1-.7-1.1-1.6 0-.9.6-1.4 1.2-1.2.9.3 1.3 3.3 1.3 10.1zm0 13.2c0 1.4-.3 2.5-.7 2.5-.5 0-.8-1.1-.8-2.5s.3-2.5.8-2.5c.4 0 .7 1.1.7 2.5zm.1 5.5c0 1.1-.4 2-.8 2s-.8-.9-.8-2 .4-2 .8-2 .8.9.8 2zm-.1 9.7c-.2 5.5-1 4.5-1.1-1.5-.1-3.3.2-4.8.6-3.7.4 1.1.6 3.5.5 5.2zm.1 6.8c-.1.8-.5 1.7-.8 2.1-.5.4-.4-1.6.1-3.4.3-.9.9.1.7 1.3zm-10 6.6c0 1.6-.4 2.9-.8 2.9-.3 0-.3 1.3.2 3 .7 2.5.6 3-.8 3s-1.5.2-.2 1c1.1.6 1.4 3.2 1.5 10.2.1 5.2.4 9.9.9 10.6.4.8.2 1-.7.6-.8-.3-1.8 0-2.2.6-.3.6-.1.9.6.8 1-.2 1.4 2 1.4 9.2 0 5.2.4 10 .8 10.7.4.6.3 1.4-.2 1.7-.5.3-.7 2.4-.5 4.6.4 4.5-1.2 6.2-3.2 3.5-.8-1-1.1-2.1-.8-2.4.3-.3 1.2.3 2 1.3.8 1.1 1.4 1.6 1.4 1.1s-.7-1.7-1.6-2.7c-1.1-1.2-1.4-2.2-.7-3 1.1-1.5 1.1-7.7-.1-9.6-.4-.7-.3-1.9.4-2.7.8-.9.8-1.5 0-2-.6-.3-.8-1.1-.4-1.6.3-.5 1-.7 1.5-.4 1.3.9 1.1-.9-.3-2.3-1.7-1.7-1.8-9.3-.1-9.9 1-.4 1.1-.9.2-1.9-.9-1.1-.8-1.4.2-1.4 1.1 0 1.1-.2.1-.8-1.5-1-2.5-7.2-1.1-7.2.5 0 .2-1.1-.6-2.4-1.4-2.1-1.4-2.8-.4-4.8 1.6-2.8 1.7-4.9.5-6.6-.5-.7-.4-1.7.3-2.6.8-1 .9-1.6.1-2.1-1.4-.9-.3-2.5 1.4-1.9.8.3 1.3 1.8 1.2 3.5zm10-1.6c-.3 2.3-1.2 2.6-1.3.5-.1-1.1.2-2 .7-2 .4 0 .7.7.6 1.5zm-284.8 4.3c.8 3.5.2 7.6-1.4 9.2-.7.7-1.1-7.7-.5-11.7.2-1.1 1.5.6 1.9 2.5zm284.8 1.6c0 1.4-.3 2.3-.7 2-.6-.3-.6-2.2 0-4.2.3-1 .7.2.7 2.2zm-273.2 3.8c-.2 5.2-.2 5.1-1.4 4.3-.7-.4-.8-1.1-.1-1.8 1.5-1.9 1.5-2.1.3-4.3-.6-1.2-.9-2.4-.5-2.7 1.2-1.3 1.8.3 1.7 4.5zm273.3 1.3c0 .8-.4 1.5-.9 1.5-1 0-1.1-1.4-.1-2.3.9-1 1-.9 1 .8zm-.2 11c.1 2.5 0 4.3-.3 4-.3-.3-.6-2.6-.7-5-.1-2.5.1-4.3.3-4 .3.3.7 2.6.7 5zm-273 5.4c0 4.4-.2 7.7-.5 7.5-1-1.1-.7-15.4.3-15.4.1 0 .2 3.6.2 7.9zm273.2 1.6c0 .8-.4 1.5-.9 1.5-1 0-1.1-1.4-.1-2.3.9-1 1-.9 1 .8zm-.2 7c.1 1.9-.1 3.2-.4 2.9-.3-.3-.6-2.1-.6-3.9-.1-1.9.1-3.2.4-2.9.3.3.6 2.1.6 3.9zm0 13.5c0 4.4-.3 8-.6 8-.4 0-.6-3.8-.6-8.5s.3-8.2.6-7.9c.3.2.5 4.1.6 8.4zm-273 2.6c-.1 3.6.3 6.8.7 7 .5.3.5 1.1.1 1.7-1.1 1.7-1.1 9-.1 10.4.5.6.5 1.4 0 1.7-.6.4-.9 7.7-.3 9.3.3.8 0 1.3-.6 1-.8-.2-1.3-35.6-.6-37 .8-1.4.9-.7.8 5.9zm273.1 8.4c0 1.1-.6 2-1.2 2-.7 0-1-.8-.7-2 .3-1.1.8-2 1.2-2 .4 0 .7.9.7 2zm-1 7.2c-.6.5-.7.8-.1.8s1 11.5 1 32.4c0 17.8-.3 32.2-.7 31.9-1-.6-1 1.1-.1 2.1 1.2 1.1 1 8.7-.2 8.3-.5-.2-1.1-.9-1.1-1.5-.1-.7-.2-1.8-.3-2.6-.1-1.7-5.8-1.6-6.9.1-1 1.5-2.8-.6-2.7-3.2 0-1.1-.4-2.6-.9-3.3-.6-.9-.4-1.1.8-.6 2.2.8 2-.5-.4-3.1l-2-2.2 2.6-1.1c2.3-1.1 2.5-1.1 1.9.8-.6 1.8.1 2.4 2.6 2.2.3 0 1 .8 1.7 1.9 1.3 2.1.3 2.6-1.5.8-1.7-1.7-4.8 3.4-3.5 5.7.6 1.1 1.1 1.3 1.6.5.4-.6.2-1.1-.3-1.1-.6 0-1.1-.5-1.1-1 0-1.5 3.2-.8 4.8 1 .8.8 1.1 1 .8.3-.8-1.4.4-4.4 1.4-3.8.4.3 1.4-.3 2.1-1.2.8-.9.9-1.4.3-1-.7.4-1.8-.1-2.5-1-1.2-1.5-1.2-1.6.3-1 1 .3 2 .1 2.4-.5.5-.7.2-.8-.6-.3-.9.5-1.1.4-.6-.3.5-.8.1-1-1.1-.6-1.5.4-1.5.3.2-.8 2.2-1.4 3.1-3.8 1.5-3.8-.5 0-1 .7-1 1.5 0 2.5-1.5 1.7-1.6-.9-.1-1.9.2-2.4 1.8-2.1 1.7.4 1.8.2.6-1.2-.7-.9-1.2-1.8-1-2 .6-.8.1-2.4-.7-1.9-.4.3-1.6-.3-2.6-1.4-1-1.1-1.3-2-.7-2 .6 0 1.1-.8 1.1-1.8 0-.9.2-3.1.5-4.7.2-1.7.5-3.3.5-3.8.1-.4.6-.7 1.2-.7.8 0 .7.6-.2 1.7-1.3 1.5-1.2 1.5.8.2 2.1-1.2 2.1-1.4.5-2.4-1.8-1.1-2.8-6.5-1.1-6.5.6 0 .7.5.3 1.2-.4.7-.3.8.5.4.8-.5.9-1.2.3-1.9-.5-.7-.8-3.9-.6-7.2.2-3.3.6-9.8.8-14.5.5-10 .5-10.1 1.5-7.5.5 1.2.4 2.3-.3 2.7zm-10.9 12.3c0 .8-.4 1.2-.9.9-.5-.3-.6-1-.3-1.5.9-1.3 1.2-1.1 1.2.6zm-263.6 8.8c-1 .9-1.1.8-.5-.6.3-1 .9-1.5 1.2-1.2.3.3 0 1.1-.7 1.8zm263.9.2c-.8 1-.7 1.4.2 1.8 1 .4 1 .8-.2 1.7-1.2.9-1 1 1 .4 1.4-.3 2.2-.3 1.8.1-.4.5-.3 1.4.3 2.1 1.4 1.7-.5 2.8-2.9 1.5-1.3-.7-1.8-1.9-1.6-4.3.1-1.8.3-3.9.3-4.6.1-.7.6-1 1.1-.7.8.5.8 1.1 0 2zm-261.4 3c-.1.5-.5 1.6-1 2.3-.4.7-.4 1.8.1 2.5s.9 3 .8 5.2c-.1 2.2.2 4.5.7 5.1.5.7.2 1.6-.6 2.3-.9.8-1.6.8-2 .2-.4-.5-.3-1.2.2-1.5.7-.4.9-9.1.2-9.1-.2 0-.3-1.2-.4-2.7-.1-1.5-.5-3-.9-3.4-1.3-1.3-.7-2.3 1.2-2.1 1 0 1.8.6 1.7 1.2zm262.8 12.9c-.3.9-1 1.3-1.6 1-.5-.3-.4-1.2.3-2 1.5-1.8 2.2-1.3 1.3 1zm7.2 14.3c0 .7-.4 1.1-1 1-.6-.1-1 .8-.9 2 .2 1.3-.2 2.3-.8 2.3-.5 0-.7-.5-.4-1 .4-.6.1-.9-.6-.8-.6.2-1.4-.3-1.6-1-.3-.7.1-1.1.9-1 .7.2 1.2-.3 1-1-.1-.8.2-1.1.8-.7.7.4.6-.1-.1-1.3s-1.7-1.8-2.1-1.6c-.4.3-.8 0-.8-.7s-.3-.9-.7-.5c-.5.4.1 1.4 1.1 2.2 1.1.8 1.7 1.5 1.3 1.5-.4.1-1.3.2-1.9.3-.7.1-1.2 1-1 1.9.3 1.5 0 1.7-1.6.8-2.2-1.2-3.9-4.5-2-3.8.7.2 1.2 1 1 1.7-.3 1.1 0 1.1 1.2.1 1-.9 1.3-2.4 1-5.1l-.5-3.9 3.8 3.7c2.1 2 3.8 4.2 3.9 4.9zm-270.1 7.7c0 10.6-.1 11.3-1.7 10.2-2.1-1.3-2.2-2-.5-3.4.9-.8 1.3-3.6 1.2-8.9-.2-6.8.1-9.3.8-9.3.1 0 .2 5.1.2 11.4zM565 444c0 .5-.4 1-1 1-.5 0-1-.5-1-1 0-.6.5-1 1-1 .6 0 1 .4 1 1zm4.9 2c.4 0 .8.7.8 1.5 0 2.7-4 1-4.3-1.8-.2-2.4-.1-2.5 1.2-1.2.9.8 1.9 1.5 2.3 1.5zm2.2 5.7c1.3 1.6 1.2 1.7-.3.4-1-.7-1.8-1.5-1.8-1.7 0-.8.8-.3 2.1 1.3zm-3.2 1.7c1.1 1.4.6 1.5-2.7.7-.4-.1.8-2.1 1.2-2.1.2 0 .9.6 1.5 1.4zm-266.2 8.3c-.4.3-.2 1.2.4 1.9 1 1.2.7 1.2-3 .5-.5-.1 2-3.1 2.7-3.1.3 0 .2.3-.1.7zm262.4 7.1c-.7.2-1.8-.1-2.3-.6-.8-.8-.4-.9 1.3-.5 1.3.4 1.8.8 1 1.1zm8.9-.8c-.8.5-2.2.9-3 .9-1 0-.8-.3.5-.9 2.7-1.2 4.3-1.2 2.5 0zm-11.5 2c.3.5.1 1-.4 1-.6 0-1.1-.5-1.1-1 0-.6.2-1 .4-1 .3 0 .8.4 1.1 1zm6.5 0c0 .5-.4 1-1 1-.5 0-1-.5-1-1 0-.6.5-1 1-1 .6 0 1 .4 1 1zm6.2-.3c-.6.2-.9 1-.6 1.5.4.7.2.8-.5.4-1.3-.9-.5-2.6 1.2-2.5.9 0 .8.2-.1.6zm-272.6 3.7c0 1.9-.3 3.3-.7 3.1-.7-.5-.4-6.5.4-6.5.1 0 .3 1.5.3 3.4zm264.4-1.3c1.2.8 1 .9-.7.4-1.9-.5-2.2-.3-1.7 1.2.5 1.4.4 1.5-.4.3-1.9-2.5 0-3.8 2.8-1.9zm5.5-.1c.3.5.2 1-.4 1-.5 0-1.3-.5-1.6-1-.3-.6-.2-1 .4-1 .5 0 1.3.4 1.6 1zm-9.7 4.1c-.3.8-.7.3-1.1-1-.4-1.7-.3-2.1.5-1.3.5.5.8 1.6.6 2.3zm7.9 0c-.1 1.1-1.1 2.5-2.2 3-1.7.9-1.8.8-.5-.3.8-.7 1.6-2.1 1.8-3.1.3-1.5 0-1.6-1.7-.5-1.1.6-1.9 1.7-1.8 2.2.1.6-.9 1.2-2.3 1.3l-2.5.2 2.5-.8c1.4-.5 2.1-1 1.5-1-.5-.1.1-1 1.5-2 2.8-2.2 3.9-1.9 3.7 1zm4.9-1.9c.4.6.3.8-.4.4-.6-.3-1.4.3-1.7 1.5-.4 1.1-.9 1.8-1.2 1.6-.5-.5 1.4-4.7 2.2-4.7.2 0 .7.5 1.1 1.2zm-273 12.2c0 3.9-.3 4.3-1.6 3.3-.8-.6-1.7-1.3-1.9-1.4-.2-.2.4-1.2 1.4-2.3 1-1.1 1.5-2 1.1-2-.4 0-.4-.5-.1-1 1-1.6 1.1-1.3 1.1 3.4zm.8 9.4c.3.5-.1.9-.9.9s-1.2-.4-.9-.9c.3-.4.7-.8.9-.8.2 0 .6.4.9.8zm447.6 1.7c0 .2-.7.1-1.7-.2-1.2-.5-1.4-.3-.8.8.5.8.4 1.1 0 .6-.5-.4-1-1.4-1.1-2.2-.2-1.2.2-1.2 1.7-.5 1 .6 1.9 1.3 1.9 1.5zm-220.6 1.9c-.3.9-1 1.6-1.5 1.6s-.4-.9.3-2c1.4-2.2 2.1-2 1.2.4zm3.7.1c.5-.4.6.1.3 1-.5 1.1-.2 1.4 1.2.9 1.6-.5 1.6-.4.4.5-1.1.8-1.8.7-2.7-.6-.7-.9-1.3-2.2-1.2-2.7 0-.6.3-.5.6.2.2.6.9 1 1.4.7zm6.3.1c.3.8.2 1.3-.3.9-.5-.3-1.1 0-1.3.7-.3.7-.7.5-1.1-.6-.4-1-.3-1.5.3-1.1.6.3 1 .1 1-.4 0-1.6.7-1.3 1.4.5zm201 .8c-.3.9-1 1.6-1.5 1.6s-.4-.9.3-2c1.4-2.2 2.1-2 1.2.4zm7.5 2c-.3.3-1.1-.5-1.8-1.7-1.3-2.1-1.2-2.1.5-.5 1 1 1.6 2 1.3 2.2zm-216.6-.1c.3.8.2 2-.3 2.6-.5.9-.7.4-.7-1.3 0-2.9.2-3.2 1-1.3zm214.3-.1c.4.7.4 1-.1.6-.4-.4-1.4-.1-2.2.7-1.7 1.8-3.3 1.9-3.3.4 0-.5.4-.8.9-.5.5.3 1.4-.1 2.1-.9 1.5-1.8 1.7-1.8 2.6-.3zm-444 3.2c0 1.9-.3 3.3-.7 3.1-.7-.5-.4-6.5.4-6.5.1 0 .3 1.5.3 3.4zm448.1-1.4c-.2 1.1-.7 2.3-1.2 2.7-.4.5-.5.2-.1-.5.4-.6.2-1.2-.4-1.2-.7 0-.6-.5.2-1.5 1.7-1.9 1.8-1.9 1.5.5zm-10.8 3.8c-.1 1.5-.2 1.5-.6-.1-.2-.9-.9-1.4-1.5-1.1-.7.4-.8.2-.4-.5 1-1.5 2.6-.4 2.5 1.7zm8.1.7c1.9 2.2.8 2.5-1.2.3-1-1-1.4-1.8-.9-1.8.5 0 1.4.7 2.1 1.5zm-3 .6c1.2.8 1 .9-.9.4-1.7-.5-2.2-.4-1.6.5.5.9.4 1.1-.4.6-.6-.4-.9-1.2-.6-1.7.8-1.2 1.6-1.1 3.5.2zm-3.4 4.4c.1.8-.1 1.5-.5 1.5-1.4 0-2-1.2-1.4-2.6.6-1.7 1.6-1.1 1.9 1.1zm9.1 3c0 .7-.8 1-1.9.7-1-.2-1.8.1-1.8.7v1.8c0 .5.6.8 1.3.8 1.4 0 1.7 2.5.4 4.2-.4.6-1.6.9-2.4.6-1.1-.5-1.4-.3-.8.6.6 1 .3 1.1-1.3.2-2.4-1.3-3.5-1.4-2.8-.3.2.4-.3.8-1.3.8-2.3 0-2.2-4.4.2-5.7 1.7-1 1.9-.8 2.1 2 .1.8.8 1.6 1.6 1.8 1.2.4 1.2.3.2-.5-1.2-.8-1.1-1.2.1-2.3 1.3-1.2 1.3-1.6-.1-3.3-1.6-1.8-1.6-1.9 0-1.3.9.3 2.1 0 2.7-.7 1.3-1.6 3.8-1.7 3.8-.1zm-24.3 30.1c.3.8.2 1.2-.4.9-.6-.3-1-1-1-1.6 0-1.4.7-1.1 1.4.7zm8.3 2.3c0 1.1-.5 1.8-.9 1.5-.4-.3-.5-1.1-.1-1.9.7-2.1 1.2-1.9 1 .4zm-10.4.6c-.3.9-.8 1.4-1 1.1-.3-.3-.2-.9.2-1.5.9-1.6 1.5-1.3.8.4zm4 0c-.3.9-.8 1.4-1 1.1-.3-.3-.2-.9.2-1.5.9-1.6 1.5-1.3.8.4zm1.8.8c-1 .9-1.1.8-.5-.6.3-1 .9-1.5 1.2-1.2.3.3 0 1.1-.7 1.8zm-4.1 1.2c0 .8-.4 1.5-1 1.5-.5 0-.7-.7-.4-1.5.4-.8.8-1.5 1-1.5.2 0 .4.7.4 1.5zm7 1c0 .8-.2 1.5-.4 1.5s-.6-.7-1-1.5c-.3-.8-.1-1.5.4-1.5.6 0 1 .7 1 1.5zm-4 1.2c0 .5-1 1.9-2.1 3.3l-2 2.5 1.2-2.5c.7-1.4 1.2-2.8 1.1-3.3-.1-.4.3-.7.8-.7.6 0 1 .3 1 .7zm2.5 2.3c.3.5.1 1-.4 1-.6 0-1.1-.5-1.1-1 0-.6.2-1 .4-1 .3 0 .8.4 1.1 1zm-7 1c-.3.5-1.2 1-1.8 1-.7 0-.6-.4.3-1 1.9-1.2 2.3-1.2 1.5 0zm-11.7 20.9c-.4-.9-.1-1.6.7-1.6.8 0 1.1.7.7 1.6-.4 1.2 0 1.1 1.8-.4 1.3-1.1 2-1.4 1.6-.8-.4.8-.2 1.3.6 1.3 1 0 .9.3-.2.9-.8.6-1.8.7-2.2.5-.4-.3-.8-.1-.8.5 0 .5.9 1.3 2.1 1.6l2.1.7-2.1 1.5c-1.2.8-1.9 1.9-1.5 2.4.3.6 1.1.3 1.8-.7 1.1-1.5 1.3-1.5 1.3-.1 0 .9-.7 1.9-1.4 2.1-.8.3-1.2 1-.8 1.5.3.5.1 1.2-.4 1.6-.6.3-.8-.4-.6-1.5.3-1.4 0-2-.8-1.7-.7.2-1.2.9-1.2 1.4 0 2.1-1.7 2.8-2.6 1.1-.5-1-1.6-1.5-2.4-1.2-.8.4-1.3.9-1.1 1.3.3.4-.3.7-1.3.7s-1.8-.6-1.8-1.2c0-.7.7-1 1.5-.6 1.2.4 1.1 0-.2-2.1-1.6-2.4-1.6-2.8-.1-5.7 1.3-2.5 1.9-2.9 3-2 .9.7 1.5.8 2 0 .3-.5.1-1-.4-1-.6 0-1.1-.5-1.1-1.2 0-.6 1-.3 2.2.8 1.7 1.5 2 1.6 1.6.3zM114.5 582c.3.5.1 1-.4 1-.6 0-1.1-.5-1.1-1 0-.6.2-1 .4-1 .3 0 .8.4 1.1 1zm4 0c.3.5.1 1-.4 1-.6 0-1.1-.5-1.1-1 0-.6.2-1 .4-1 .3 0 .8.4 1.1 1zm584.2 11.7c-.4.3-.2 1.1.3 1.8.7.8.5 1.2-.4 1.2-.8 0-1.2-.7-1.1-1.6.5-2.2.4-2.1 1.2-2.1.3 0 .3.3 0 .7zM119 598.4c0 .3-.4.8-1 1.1-.5.3-1 .1-1-.4 0-.6.5-1.1 1-1.1.6 0 1 .2 1 .4zm-1 9.9c0 .4-.6.2-1.4-.5-.8-.7-1.2-1.7-.9-2.2.5-.8 2.3 1.2 2.3 2.7zm4 .7c0 .5-.7.7-1.5.4-.8-.4-1.5-.8-1.5-1 0-.2.7-.4 1.5-.4s1.5.4 1.5 1zm276.3 18.4c.3-.3.8-.1 1.1.5.8 1.3-4.5.4-5.9-1-.7-.7-.1-.7 1.6 0 1.5.5 2.9.7 3.2.5zm272.4.1c0 .8-.3 1.3-.5 1-.3-.3-1 0-1.7.5-.8.7-1.2.5-1.2-.5 0-.8.4-1.2.8-.9.4.2 1 0 1.4-.6.9-1.4 1.2-1.3 1.2.5zm-5.2 2.5c-.3.5-1.2 1-1.8 1-.7 0-.6-.4.3-1 1.9-1.2 2.3-1.2 1.5 0zm-.8 3.5c0 .8-1 2.3-2.1 3.2-2.1 1.8-2.1 1.8-.2-.5 1.1-1.2 1.6-2.2 1.2-2.2-.4 0-.4-.5-.1-1 .9-1.4 1.2-1.3 1.2.5zm6 1.8c0 .8-.6 1.4-1.4 1.4-.9 0-1-.4-.2-1.4.6-.7 1.2-1.3 1.4-1.3.1 0 .2.6.2 1.3zm-19.9 6.5c.2.7.8 1.2 1.3 1.2.4 0 .6-.8.2-1.8-.5-1.4-.3-1.5.8-.5 1.5 1.5 2.1 9.1.8 11.3-.5 1-.8 1.1-.9.2 0-.6-.5-1.2-1.1-1.2-.5 0-.7.6-.4 1.2.4.7-.5 0-1.9-1.6-1.4-1.7-2.2-3.4-1.9-3.9.3-.4 1.1 0 1.8 1s1.2 2 1 2.3c-.2.3.5.6 1.6.6 1.9 0 1.9-.1.3-1.3-1.6-1.2-1.2-1.8.9-1.4.5.1.6-.3.2-.9-.3-.6-1.1-.7-1.7-.4-.8.5-.9.1-.5-1 .4-1 .3-1.5-.3-1.1-.9.6-1.5-.9-1.1-2.9.1-.5-.4-.5-1.1.1-.7.6-2.1.9-3 .8-1.1-.2-1.5.2-1.1 1.1.6 1.6-1.3 1.9-2.2.4-.4-.6-1.1-.8-1.6-.5-1.6 1-1-.7.7-1.9 2-1.5 8.7-1.3 9.2.2zm-220.8.5c.9.1 1.5 1.2 1.5 2.8.1 2-.3 2.5-1.5 2.1-1.1-.4-1 0 .4 1.6 1.1 1.2 1.5 2.2 1 2.2-.6 0-1 .9-1.1 2-.1 1.3.2 1.8.9 1.4.7-.4.8-.2.4.4-1 1.6-5.7-1.8-5.1-3.6.3-.9-.2-1.2-1.8-.8-1.2.3-1.6.3-.9 0 .9-.4.3-1.4-1.9-3.3-2.7-2.4-2.9-2.9-1.5-4 1.4-1.2 1.9-1.1 3.4.3 1.8 1.5 3.2 1.3 3.2-.6 0-.5-.4-.7-.9-.3-.5.3-1.2.1-1.6-.4-.3-.6.4-.8 1.7-.4 1.3.3 3 .6 3.8.6zm218 1.7c.5-.8.9-.6 1.4.6.4 1 .4 1.5 0 1.1-.4-.4-1.3-.2-2 .4-1.1.9-1.1 1.5.1 3.2 2 2.8 1.9 3.6-.4 3.4-1.1 0-1.9-.4-1.9-.7.2-1.8-.3-3.1-1-2.6-.4.2-.8-.4-.8-1.4 0-1 .3-1.7.7-1.4.4.2 1.1-.6 1.5-1.8.5-1.5.9-1.8 1.2-.9.3 1 .6 1 1.2.1zm-220.5 11c.3.6-.1.7-.9.4-1.8-.7-2.1-1.4-.7-1.4.6 0 1.3.4 1.6 1zm191 3c-.3.5-1.2 1-1.8 1-.7 0-.6-.4.3-1 1.9-1.2 2.3-1.2 1.5 0zm-3.8 2.4c-.3.8-.1 1.7.6 2 .8.3.8.5.1.5-.6.1-1.8-.7-2.5-1.6-1-1.1-1-1.4-.1-.9.6.4 1.2.2 1.2-.3 0-.6.3-1.1.6-1.1s.4.6.1 1.4zm6.5.4c-.7.2-1 .8-.7 1.3.4.5-.1.6-1 .3-1.1-.5-1.4-.2-.9 1.2.5 1.6.4 1.6-.5.4-.8-1.1-.7-1.8.4-2.6.8-.6 1.2-1.4.8-1.8-.4-.4.1-.4 1.2 0 1.1.5 1.4.9.7 1.2zM617 665c0 .5-.2 1-.4 1-.3 0-.8-.5-1.1-1-.3-.6-.1-1 .4-1 .6 0 1.1.4 1.1 1zm-2.8 1.4c-.2.5.2 1.2 1 1.7.9.6.6.8-.9.6-1.7-.1-1.9-.4-1.1-1.4.8-1 .6-1.3-1-1.3-1.5 0-1.9.5-1.6 2.2.4 2.1.4 2.1-.5.3-.4-1.1-.6-2.4-.4-2.8.7-1.1 4.9-.4 4.5.7zm8.3 3.6c.3.5.1 1-.4 1-.6 0-1.1-.5-1.1-1 0-.6.2-1 .4-1 .3 0 .8.4 1.1 1zm-5 1c.3.6-.1.7-.9.4-1.8-.7-2.1-1.4-.7-1.4.6 0 1.3.4 1.6 1zm-31 13c.3.5.1 1-.4 1-.6 0-1.1-.5-1.1-1 0-.6.2-1 .4-1 .3 0 .8.4 1.1 1zm-418.7 4.9c.6.1 1.1.4 1.1.8-.4 2.2.2 3.7.9 2.7.5-.9 1.1-.8 2 .2.7.8.9 1.4.4 1.4s-.9.7-.9 1.5c0 1.8 1.7 2 1.7.2.1-2 2.4 2.6 2.6 5 .1 2.4-1 3-2.1 1.3-.5-.8-1.1-.8-2 0-.9.8-1.5.8-2 0-.3-.6-1.2-.7-1.8-.3-1.9 1.2-5.4 1.1-5.5-.1 0-.6-.3-2.1-.6-3.4-.3-1.2-.1-2 .3-1.7 1.5.9 2-2.3.6-3.5-1.8-1.5.1-4.9 2.4-4.5.9.2 2.2.4 2.9.4zm388.3 12.4c-1 .9-1.1.8-.5-.6.3-1 .9-1.5 1.2-1.2.3.3 0 1.1-.7 1.8zM535 716c0 .5-.4 1-1 1-.5 0-1-.5-1-1 0-.6.5-1 1-1 .6 0 1 .4 1 1zm-24.5 6c-.3.5-1.2 1-1.8 1-.7 0-.6-.4.3-1 1.9-1.2 2.3-1.2 1.5 0zm-312 4.2c-.4 2.9-.3 3 1 1.2 1.4-1.9 1.4-1.9 1.5.1 0 1.4.3 1.6.9.7.6-1 1-1 2.1.3.7.9 1.9 1.4 2.6 1.1.7-.3 1.6-.1 1.9.4.6.9-1.6 1.5-3.8 1.1-.5-.1-.5.3-.2.9.4.6 1.3.9 2 .6.7-.2 1.5.1 1.8.8.9 2.2-3.3 1.5-4.4-.7-1.6-3-2.8-3.6-6.1-3.2-2.8.4-3.8-.8-1.7-2 .6-.4.8-1.3.5-2-.3-.8 0-1.6.7-1.9.7-.2 1.3-.5 1.4-.5.1-.1 0 1.3-.2 3.1zm308.7-1.5c-.6.2-.9 1-.6 1.5.4.7.2.8-.5.4-1.3-.9-.5-2.6 1.2-2.5.9 0 .8.2-.1.6zm2.1 2.3c-.3 1.1-.9 2-1.5 2-.5 0-.4-.9.2-2 .6-1.1 1.2-2 1.4-2 .2 0 .2.9-.1 2zm-5.2 1.3c-.8.8-1.4.7-2.3-.2-1.1-1-.9-1.1.6-.5 1.5.6 1.7.4 1.1-.6-.6-.9-.4-1.1.4-.5.9.5 1 1 .2 1.8zm-3.3 2.2c-.3.3-.9-.2-1.2-1.2-.6-1.4-.5-1.5.5-.6.7.7 1 1.5.7 1.8zm-270.6 12.9c.3-.3.8-.1 1.2.4 1.1 1.8-2.5.8-4.1-1.2-1.8-2.1-1.8-2.1.3-.3 1.1.9 2.3 1.4 2.6 1.1zm248.6 1.1c-.3.3-.9-.2-1.2-1.2-.6-1.4-.5-1.5.5-.6.7.7 1 1.5.7 1.8zm-6.3 1.4c.3.5.2 1.2-.3 1.5-.5.3-.9-.1-.9-.9 0-1.7.3-1.9 1.2-.6zm-242.8 2.3c-.3.8-.6.5-.6-.6-.1-1.1.2-1.7.5-1.3.3.3.4 1.2.1 1.9zm7.8-.2c.3.6-.1.7-.9.4-1.8-.7-2.1-1.4-.7-1.4.6 0 1.3.4 1.6 1zm42.6 32.7c1 1.1 1 1.4.2.9-.7-.4-1.3-.3-1.3.1 0 1.3-3.9 1.3-4.6.1-.4-.7-.2-.8.5-.4.6.4 1.4 0 1.7-.8.8-2.1 1.8-2 3.5.1zm27.4 9.2c.3.5.2 1.2-.3 1.5-.5.3-.9-.1-.9-.9 0-1.7.3-1.9 1.2-.6zm31.3 20.6c-.3.3-.9-.2-1.2-1.2-.6-1.4-.5-1.5.5-.6.7.7 1 1.5.7 1.8zm54.1 29.9c2.6 1.5 3.8 6.3 1.6 6.3-.7 0-1.3-.9-1.2-1.9.1-1 .6-1.8 1.2-1.8.5 0 .3-.4-.5-1-.9-.5-1.9-.5-2.6 0-.6.6-1.5.6-1.9.2-.5-.4-.5-.1 0 .7.5.9.4 1.2-.3.7-1.8-1.1-1.4 0 .5 1.5.9.8 1.4.9 1 .3-.3-.6 0-1.1.8-1.1 1.1 0 1.2.4.4 1.3-.6.8-1.9 1.2-3 1.1-2.1-.4-3.8-1.7-2.1-1.7.7 0 1.1-.3 1.1-.8-.1-.4 0-1 .1-1.5.1-.4.4-1.2.5-1.7.1-.6.3-1.2.4-1.5.2-.8 1.4-.5 4 .9zm33.6 13.6c-.2.3.5.6 1.6.6 1.8 0 1.9-.2.4-1.2-1-.8-1.2-1.4-.6-1.9.6-.3 1.1-.1 1.1.5s.4.9.8.6c1.3-.8.7 5.1-.7 6.7-1 1.3-.9 1.7.6 2.6 1.6.9 1.6 1-.4.8-1.2 0-2-.4-1.8-.8.3-.3-.3-1.5-1.1-2.5-.9-1-1.3-1.4-1-.8.7 1.4-1.9 3.7-4.6 4.1-1.4.2-1.9-.1-1.5-1.2.4-.8.2-1.7-.3-2-.6-.4-.6-1.4 0-2.6.6-1.1 1.5-1.7 2-1.4.5.3 1.7-.5 2.7-1.9 1.1-1.5 2.1-2 2.5-1.3.4.6.5 1.4.3 1.7z"/><path d="M482.9 179.1c-.7 1.4-.8 2.4-.1 3.1.6.6.8 1.7.5 2.4-.3.8-.1 1.4.5 1.4 1.1 0 1-2.5-.1-3.6-.4-.4-.7-1.2-.7-1.8 0-.6.8-.2 1.7.7 1 1 1.8 2.5 1.8 3.4 0 2.2 2.1 2.8 2.9.7.6-1.5.4-1.5-1.1-.3s-1.6 1.2-1-.3c.3-1 0-2.4-.9-3.2-.8-.8-1-1.7-.6-2 .5-.3 1.9.6 3.1 2 1.2 1.4 2.6 2.2 3.1 1.9.6-.3 1-.2 1 .3s1.1 1.4 2.5 2c1.5.7 2.5.8 2.5.2 0-.6-.6-1-1.4-1-2.4 0-4.7-4-3.5-6.1.8-1.5.6-1.7-1.2-1.4-1.2.3-2.4.7-2.8 1.1-.3.4.1.5 1 .1 1.2-.4 1.7.1 1.7 1.9v2.5l-2.7-2.5c-2.2-2.1-3-2.4-4-1.3-1.1 1-1.3.9-.8-.6.9-2.4 0-2.1-1.4.4zM518 178.2c0 .6.7.8 1.5.4.9-.3 3 .7 4.9 2.5 3.5 3 3.5 3 4.6.9.6-1.2.9-2.4.7-2.7-.3-.2-.8.5-1.2 1.6-.6 2-.7 2-3.1-.4-1.4-1.4-2.8-2.5-3.2-2.6-.4 0-1.5-.2-2.4-.4-1-.2-1.8.1-1.8.7z"/><path d="M534.7 180.5c-1.6 1.6-2.7 2.3-2.4 1.4.3-.9.1-2.2-.5-3-.8-1.1-.9-1.1-.5.2.7 2-1.9 5.9-3.9 5.9-.8 0-1.4.4-1.4 1s1 .5 2.5-.2c1.4-.6 2.5-1.5 2.5-2s.5-.6 1.2-.2c.8.5.4 1.3-1.2 2.6l-2.3 1.8 2.8 2.6c1.8 1.7 2.6 2 2.1.9-.3-.9-.6-1.9-.6-2.1 0-.2-.8-.4-1.7-.4-1.7-.1-1.7-.1-.1-1.3.9-.8 1.8-1.9 2-2.7.5-2.1 4-6 5-5.4.4.3.2 1.2-.6 2-.9.8-1.2 2.2-.9 3.1.4 1 .2 1.4-.4 1-1.3-.8-2.4 1.8-1.7 3.8.8 2 1.6 1.9 3.7-.5.9-1.1 1.3-2 .7-2-.5 0-1.3.7-1.8 1.6-.7 1.2-1.1 1.3-1.7.5-.4-.7.1-1.8 1.1-2.6 1.1-.7 1.6-1.7 1.1-2.1-.4-.4-.1-1.4.7-2.3 1.1-1.2 1.2-1.9.3-3.1-1-1.4-1.6-1.2-4 1.5z"/><path d="M539.9 178.2c.8 1.1 1 2.5.6 3.5-1.3 2.9-1.4 4.3-.4 4.3.6 0 .9-.6.8-1.3-.1-.6.1-2 .6-3 .5-1.3.2-2.4-1.1-3.5-1.7-1.6-1.7-1.6-.5 0zM542.6 178.4c.3.9 1.3 1.6 2.2 1.6.8 0 1.3-.1 1.1-.3-.2-.1-1.2-.9-2.2-1.6-1.5-1.2-1.7-1.2-1.1.3zM451.3 181.5c.1 3 .6 3.8 4.1 6.5 1.6 1.2 1.8 1.2 1.1.1-.6-1.1-.4-1.3.9-.8 1.1.4 1.5.3 1.1-.4-.4-.6-1.3-.8-2-.5-.7.2-2.1-.4-3.1-1.5s-1.2-1.9-.6-1.9c.7 0 1.2-.5 1.2-1.1 0-.5-.4-.8-.9-.4-.5.3-1.2-.3-1.4-1.2-.3-1-.4-.5-.4 1.2zM494.4 180.3c.3 1 .6 2.1.6 2.3 0 .2.7.4 1.5.4s1.5-.5 1.5-1.1c0-.5-.4-.8-.9-.4-.6.3-1.5-.3-2.1-1.2-1.1-1.7-1.1-1.7-.6 0zM508 179.7c.8.4 2.1 1.3 2.8 2.2 1.1 1.5 1.3 1.5 2.5 0 .6-.9 1.9-1.8 2.7-2.2 1.2-.4 1.2-.6-.2-.6-.9-.1-2.2.7-2.8 1.6-1 1.7-1 1.7-2 0-.6-.9-1.9-1.7-2.8-1.6-1.4 0-1.4.2-.2.6z"/><path d="M455.3 182.3c0 1.9.4 2.5 1.8 2.2 1.1-.2 1.9 0 1.9.6 0 .5.5.9 1.1.9.8 0 .7-.5-.1-1.5-.7-.9-1.5-1.3-1.8-1-.3.3-1.1-.4-1.8-1.6-1.1-2.2-1.1-2.2-1.1.4zM468 185.1c-3.5 3.9-4.6 4.6-5.3 3.4-.4-.8-1.2-1.5-1.8-1.5-.5 0-.1.9.9 2.1l2 2 4.6-4.7c2.5-2.7 4.6-5.2 4.6-5.6 0-1.2-.2-1.1-5 4.3zM474.1 182.5l-2.3 2.3 3.2 3.1c1.8 1.7 3.5 2.9 3.8 2.7.2-.3-1-1.7-2.8-3.2l-3.2-2.7 2.3-1.8c1.3-1 2.2-2 1.9-2.2-.3-.2-1.6.6-2.9 1.8zM501 182c-2.4 2.1-2.2 2.4 2.4 6 1.2.9 1.7 1 1.2.2-.4-.6-.3-1.2.2-1.2 1.6 0 2.2 1.3 1.1 2.7-.7.8-.8 1.3-.1 1.3.5 0 1.2-.7 1.6-1.5.3-.8 1-1.5 1.6-1.5.6 0 .8.4.5 1-.3.5-.2 1 .4 1 .5 0 1.2-.6 1.5-1.3.5-1 .7-1 1.2 0 .3.7 1 1.3 1.5 1.3.6 0 .7-.5.4-1-.3-.6-.1-1 .5-1s1.3.6 1.6 1.4c.3.8 1.3 1.7 2.2 2.1 1.4.5 1.4.4-.1-1.3-1.6-1.8-1.4-3.2.5-3.2.5 0 .6.5.2 1.1-.3.6.5.3 2-.6 1.6-1.1 2.6-1.3 2.6-.6 0 .6-.7 1.4-1.5 1.7-.8.4-1.5 1-1.5 1.5s.9.4 2-.3c2.5-1.6 2.3-5.7-.4-8.1-2.8-2.5-3.3-2.1-.7.7 2.1 2.2 2.1 2.4.4 3.1-1 .5-2.2.9-2.8 1-.5.1-1.4.3-2 .5-2.6.6-10.1.5-11.2-.3-.7-.5-1.6-.6-2.1-.3-.6.3-1.5-.1-2.2-.9-1-1.3-.9-1.9.5-3.5 2.3-2.6 1.5-2.6-1.5 0z"/><path d="M505.8 181.2c.5.5 1.6.8 2.3.6.8-.3.3-.7-1-1.1-1.7-.4-2.1-.3-1.3.5zM516.5 181c-1.6.7-1.7.9-.3.9.9.1 2-.4 2.3-.9.7-1.1.7-1.1-2 0zM547.9 183.2c-1.7 1.8-3.7 3.2-4.4 3-.8-.1-1.6.2-2 .8-.4.6.1.7 1.1.3 1.3-.5 1.5-.3.9.8-1.6 2.5 3-1.3 6.9-5.9 2.9-3.4 1-2.6-2.5 1zM477.9 182.8c-2.8 1.8-2.7 1.9 1.6 5.2 1.5 1.2 1.7 1.2 1 .1-.6-1.1-.4-1.3.9-.8 1.1.4 1.5.3 1.1-.4-.4-.6-1.3-.8-2-.5-1.5.5-3.8-1.7-2.8-2.7.9-1 2.5-.9 1.9.1-.3.5.1.9.9.9s1.5-.4 1.5-.9c0-.4-.5-.8-1.1-.8-.5 0-.7-.5-.4-1 .9-1.4.4-1.3-2.6.8zM543.6 182.2c.3.4 0 .8-.5.8-.6 0-1.1.4-1.1.8 0 .5.7.9 1.5.9s1.2-.4.9-.9c-.3-.4 0-.8.5-.8.6 0 1.1-.4 1.1-.8 0-.5-.7-.9-1.5-.9s-1.2.4-.9.9zM503.7 182.7c-1.3 1.3-.7 2.2 1.3 1.8 1.1-.2 2 0 2 .6 0 .5.5.9 1.1.9.5 0 .7-.5.4-1-.3-.6-.2-1 .4-1 .5 0 1.2.5 1.4 1 .3.6.4.5.3-.2-.2-.7-1.4-1.3-2.7-1.3-1.3.1-2.7-.3-3-.7-.3-.5-.8-.5-1.2-.1zM519 182.8c0 .5-1.2.9-2.7.8-1.4-.1-2.8.5-3 1.1-.3.7 0 1.3.7 1.3.6 0 .8-.5.5-1-.3-.6-.1-1 .4-1 .6 0 1.1.6 1.1 1.2 0 .9.3 1 .8.2.4-.6 1.5-1 2.5-.8 1.8.2 2.3-1.1.7-2.1-.5-.3-1-.2-1 .3zM489.6 187.8c-1.6 2.1-2 2.2-2.8.8-.5-.9-1.3-1.6-1.9-1.6-.5 0-.1 1 1 2.2l2 2.1 2-2.4c1.6-1.9 2.2-2.2 3.2-1.2 1.1 1.1 1 1.3-.3 1.3-.9 0-1.8.7-2.2 1.5-.5 1.3-.2 1.3 1.9-.1 3-1.9 3.1-2.6.7-4-1.4-.9-2.1-.7-3.6 1.4zM470.1 186.9c-1.1.7-.9 1 .8 1.6 2 .6 2.6 1.7 2.1 4-.1.5.5.4 1.2-.3 1.1-1.1.9-1.7-.9-3.1-1.2-1-1.9-2.1-1.6-2.5.9-.9 0-.7-1.6.3zM499 187.2c0 .7 1.2 2.1 2.5 3.1 3.2 2.3 3.2 1.7 0-1.7-1.4-1.5-2.5-2.1-2.5-1.4zM552.8 186.8c.8.5 1.3 1.2 1.3 1.6-.3 2 .1 2.5 1.6 1.9 1.5-.6 1.5-.7-.1-1.3-1-.3-1.7-1-1.6-1.5.1-.5-.4-1.1-1.2-1.3-1.1-.3-1.1-.2 0 .6zM549.1 190c-1.3 1.1-1.9 2-1.3 2 1 0 4.2-2.7 4.2-3.6 0-.7-.4-.5-2.9 1.6zM458 190c0 .5.7.7 1.5.4.8-.4 1.5-.8 1.5-1 0-.2-.7-.4-1.5-.4s-1.5.4-1.5 1zM467 189.4c0 .2.7.6 1.5 1 .8.3 1.5.1 1.5-.4 0-.6-.7-1-1.5-1s-1.5.2-1.5.4zM482 190c0 .5.7.7 1.5.4.8-.4 1.5-.8 1.5-1 0-.2-.7-.4-1.5-.4s-1.5.4-1.5 1zM539.1 189.4c.2.2 1.5.9 2.9 1.6 2.3 1.2 2.4 1.2 1.1-.3-.7-1-2-1.7-2.9-1.7-.8 0-1.3.2-1.1.4zM497.3 191.5c0 .8.4 1.2.9.9.4-.3.8-.9.8-1.5 0-.5-.4-.9-.8-.9-.5 0-.9.7-.9 1.5zM525 191.1c0 .5.5.7 1 .4.6-.3 1-.8 1-1.1 0-.2-.4-.4-1-.4-.5 0-1 .5-1 1.1zM450.5 192c-.3.6.1.7.9.4 1.8-.7 2.1-1.4.7-1.4-.6 0-1.3.4-1.6 1zM460.5 192c.3.5.8 1 1.1 1 .2 0 .4-.5.4-1 0-.6-.5-1-1.1-1-.5 0-.7.4-.4 1zM484.5 192c.3.5.8 1 1.1 1 .2 0 .4-.5.4-1 0-.6-.5-1-1.1-1-.5 0-.7.4-.4 1zM508.5 192c.3.5.8 1 1.1 1 .2 0 .4-.5.4-1 0-.6-.5-1-1.1-1-.5 0-.7.4-.4 1zM556.5 192c.3.5.8 1 1.1 1 .2 0 .4-.5.4-1 0-.6-.5-1-1.1-1-.5 0-.7.4-.4 1zM565 192c0 .5.5 1 1.1 1 .5 0 .7-.5.4-1-.3-.6-.8-1-1.1-1-.2 0-.4.4-.4 1zM562.5 284c-.4.6-.9.8-1.3.6-.4-.2-.8.8-.8 2.2-.1 1.5.1 2.1.3 1.4.3-.6.9-.9 1.5-.6.5.3.2 1.5-.9 2.7-1.6 1.9-1.6 2 0 .8 1-.8 1.7-.9 1.7-.3 0 .6-.5 1.4-1 1.7-.6.4-.8 1.6-.4 2.7.3 1.1.2 1.8-.3 1.5-.5-.3-.9.3-.9 1.3s.4 1.6.8 1.4c.4-.3.8 0 .8.5 0 .6-.5 1.1-1.2 1.1-.9 0-.9.3-.1 1.1 1.7 1.7 3.5.1 2.3-2.1-1.3-2.4-1.3-3.1.1-2.8.6.2 1.4-.4 1.6-1.2.4-1.3.3-1.3-.6 0-.9 1.3-1.1 1.3-1.1-.1 0-.9.3-1.9.7-2.3 1.2-1.2 1.2-3.6 0-3.6-.8 0-.7-.4.2-.9.7-.5 1-1.4.7-2-.4-.6-1.2-.8-1.8-.5-.6.4-.8.1-.6-.7.3-.8 1.1-1.3 1.7-1.2.6.2 1.1-.2 1.1-.7 0-1.3-1.7-1.3-2.5 0zM560.8 305.2c-.6 1.7.2 4.8 1.3 4.8.5 0 .6.7.2 1.6-.5 1.3-.8 1.3-1.5.2-.8-1-.9-1-.6.1.2.8 1.4 1.5 2.6 1.6 1.6.1 1.9-.2 1.1-1.1-.7-.8-.6-1.4.3-1.7.9-.4.9-.6-.2-.6-1.3-.1-1.3-.3 0-1.2 1.3-.9 1.3-1-.2-.6-.9.3-1.9-.1-2.2-.9-.5-1.2-.1-1.4 1.7-.8 1.2.3 2 .5 1.7.2-3.3-2.7-3.8-2.9-4.2-1.6zM294 322.5c.5.6.8 2.1.5 3.3-.5 2.6 1.4 4 2.6 2.1.6-1 .8-.8.6.8-.1 1.7-.5 2-1.8 1.2-1-.5-2-.9-2.2-.9-1.1 0 0 3 1.8 5 1.7 1.9 1.7 2.1.1 3.9-1 1.1-1.5 2.6-1.1 3.3.3.7.1.6-.7-.3-1.3-1.6-5.1-2.3-4.2-.7.3.5 1 .6 1.5.3s.6.1.3.9c-.3.9-.9 1.4-1.3 1.2-.4-.3-.7.4-.7 1.5 0 1.9.1 1.9 1.3.3 1.4-2 5.9-2.8 6.9-1.2.3.5.1 1.5-.5 2.1-.9.9-1 .8-.5-.7.5-1.4.3-1.7-.7-1.4-1.7.6-2 4.7-.4 6.8 1 1.3 1.1 2.1.6 4.7 0 .3-1.2-.3-2.4-1.6-2-1.8-2.6-1.9-3.6-.8-.9 1.1-.8 1.7.4 2.7.8.7 1.2 1.7.8 2.3-1 1.7-1.1 4.7-.1 5.3.4.3.5 1.1.1 1.7-1 1.6-1.1 3-.1 4.3.5.7.2 1.7-.7 2.4-1.2 1-1.3 1.6-.4 2.6.9 1.1.8 1.4 0 1.4-.7 0-.9.5-.5 1.1.4.8.9.7 1.5-.2.7-1.2.9-1.1.9 0s.3 1.1 1.3-.3c1.2-1.6 1.3-1.6 1.3.3 0 1.1-.5 1.7-1 1.4-.5-.4-.6-.1 0 .8 1.4 2.3 1.4 4.2 0 3-.7-.6-1.6-.8-1.9-.4-.4.3-.7.1-.7-.5 0-.7.5-1.2 1.1-1.2.5 0 .7-.5.4-1-1-1.6-2.7 0-2.2 2.1.3 1 .1 2.2-.5 2.5-.5.4-.3 1.3.6 2.3 1.2 1.3 1.3 2 .4 2.9-1.4 1.4-2 4.5-.8 3.7.4-.3 1 .2 1.4 1 .3.8.1 1.7-.4 2-.9.6-.8 2.4.3 4.2.4.6.3 1.4-.2 1.7-1 .7-.9 3.1.2 4.2.4.4.2 1.3-.4 2.1-.9.9-.8 1.7 0 2.7.9 1 .8 1.6-.4 2.6-1.3 1.1-1.2 1.6.6 4.1 1.9 2.8 1.6 3.5-1.4 3-.5-.1-.6.3-.2.8.3.6 1.2.8 1.9.5 1.3-.5 4.4 2.4 3.8 3.5-.2.3.2.7.9 1 .8.2 1-.2.6-1.3-.4-.9-.3-1.4.2-1.1.6.3.9 1.4.8 2.4-.1 1.5-.5 1.7-1.8 1-1-.5-2-.9-2.2-.9-1.1 0 0 3 1.8 5 1.7 1.9 1.7 2.1.1 3.9-1 1.1-1.5 2.6-1.1 3.3.3.7.1.6-.7-.3-1.3-1.6-5.1-2.3-4.2-.7.3.5 1 .6 1.5.3s.6.1.3.9c-.3.9-.9 1.4-1.3 1.2-.4-.3-.7.4-.7 1.5 0 1.9.1 1.9 1.3.3 1.4-2 5.9-2.8 6.9-1.2.3.5.1 1.5-.5 2.1-.9.9-1 .8-.5-.7.5-1.4.3-1.7-.7-1.4-1.9.6-1.9 4.9-.1 7 1.2 1.4 1.2 2 .2 3.3-.9 1.1-1.6 1.2-2.5.5-2.2-1.8-3.9 2-2.2 4.7.5.7.5 1.9.1 2.5-1.1 1.7-1.3 13.8-.3 14.4.4.2.6 1.6.3 2.9-.3 1.5 0 2.5.7 2.5s.9-.3.6-.7c-.4-.3-.2-1.2.4-1.9 1.7-2.1 4.6 0 4.5 3.2-.2 2.7-2.6 4.8-2.6 2.2 0-1-.3-.9-1.1.2-.9 1.3-1 1.3-.6 0 .2-.8.9-1.5 1.5-1.5 1.8 0 2.3-1.2.7-1.9-.9-.3-1.8.1-2.1.9-.4.8-.9 1.3-1.3 1.1-.3-.2-.7 1.1-.7 3-.1 1.9.3 3.4.8 3.4s.7-.4.3-.9c-.3-.5 0-1.3.7-1.7 2-1.3 4.5-1.1 4.5.2 0 .7-.6 1-1.3.7-.6-.2-1.8.5-2.6 1.6-.8 1.2-1.9 1.8-2.4 1.3-.5-.4-.1.2.8 1.4 1.4 1.6 1.5 2.3.5 3.3-.6.7-.7 1.2-.2 1.1 2.2-.5 2.7.1 1.5 1.5-.7.8-.9 1.5-.5 1.5s.2.6-.4 1.4c-.7.8-.8 1.7-.3 2 .5.3.8 1.9.7 3.6-.1 1.7.1 3.3.6 3.6.5.3.7 1 .3 1.5-.3.6.6 2.1 2.1 3.5 1.4 1.3 2.3 2.9 2 3.4-.4.6-.1.9.6.8.8-.2 1.4.7 1.4 2.2.1 2.7-1.3 5.3-2.5 4.5-.6-.4-.6 4.6 0 5.2.1.2.4.7.5 1.3.1.5.4 1.2.5 1.5.1.3.4 1.4.5 2.5.1 1.1.4 2.2.5 2.5.1.3.4.9.5 1.5.1.5.4 1.3.5 1.7.1.5.2 1.2.1 1.7-.3 1.2 2.1 2.6 3.1 2 .5-.3.5-1.1.1-1.7-1.2-1.8-1-23.1.2-23.9.6-.5.5-.8-.3-.8s-1-.5-.6-1.3c.5-.8.2-.7-1 .2-1.5 1.3-1.7 1.2-1.2-1.2.2-1.4-.1-3-.8-3.6-.8-.7-1.2-3.2-1.1-6.6.1-3.1-.2-5.8-.7-6.1-.4-.3-.6-1-.2-1.5.3-.5.9-.7 1.3-.5 1.8 1.1.6-3-1.3-4.5-2-1.7-2.1-1.7-.2-3.8 1.1-1.2 1.5-2.1 1.1-2.1-.4 0-.1-.8.8-1.8 1.9-2.1 2-3.2.3-5.2-.7-.9-1.2-3.8-1.1-6.8.1-2.9-.2-5.5-.7-5.8-.5-.3-.2-1.4.8-2.5 1.6-1.8 1.5-2-.7-3.8-2.2-1.8-2.3-2.1-.8-3.8 1.2-1.3 1.5-3.7 1.4-9.3-.1-4.1.1-8 .4-8.5 1-1.9.9-3.4-.2-3.2-1.3.2-1.7-3.1-.7-4.8.5-.9.5-7 0-7-.1 0-.3-1.6-.4-3.5-.2-4.7-2-7.7-3.8-6.5-.8.6-.5.2.7-.9 1.1-1 1.9-2.3 1.8-2.7-.2-.5.2-.9.8-.9.8 0 .7-.5-.1-1.5-1-1.3-1-1.9.2-3.3s1.4-5.1 1.3-19.2c-.1-9.7.3-18.1.8-18.8.6-.8.5-1.2-.3-1.2-1 0-1-.3-.1-1.4.9-1 .9-1.6.1-2.1s-.8-1.1-.1-1.9c.6-.7.8-1.6.3-2-.8-.9-1.1-13.6-.3-15.1 1-1.9.9-3.4-.2-3.2-1.5.3-1.7-3.4-.3-5.2 1.2-1.5 1.2-1.6-.9-4.8-1.3-2-1.3-2.3.7-3.8 1.2-.8 1.7-1.5 1.1-1.5-.7 0-1.4.4-1.8 1-.3.5-1.2.7-2 .4-.8-.4-1.3-.9-1-1.3.2-.4-.2-.8-1-.8-1 0-1.2.4-.5 1.2zm2.6 3c-.1.8-.5 1.7-.8 2.1-.5.4-.4-1.6.1-3.4.3-.9.9.1.7 1.3zm1.4 7c-.6.7-.7 1.5-.3 1.8.3.4.4.7.1.7-.3 0-1.2-.8-2.1-1.8-1.5-1.7-1.5-1.8.8-1.8 1.7 0 2.1.3 1.5 1.1zm1 8c-.5.6-.6 1.6-.2 2.1.4.4-.2.2-1.3-.6s-2.2-1.6-2.4-1.7c-.2-.1.2-.9.9-1.8 1-1.2 1.6-1.3 2.6-.4 1 .8 1.1 1.5.4 2.4zm-.5 9.5c-.1 2.8.2 5.3.7 5.6.5.3.4 1.2-.2 1.9-.8 1-.8 1.5 0 2 .7.4.7 1.2.2 1.8-.4.7-.8 9.9-.7 20.5 0 17.3-.1 19.5-1.7 20.9-1.1 1-1.5 2-.9 2.7 1.4 1.7 1 2.9-1.6 4.9-1.3 1-2 2.3-1.7 2.8.4.6 1.1.6 1.9-.1 1.7-1.4 2.9.4 3 4.5 0 1.6.4 3.7 1 4.5.7 1.2.6 1.3-.7.3-.8-.7-1.7-1.1-2-.8-.3.3-1.1-.1-1.8-1-.7-.8-.9-1.5-.6-1.5.4 0-.2-1.3-1.3-2.9-1.8-2.5-1.9-3-.6-4.1 1.2-1 1.3-1.6.4-2.6-.8-1-.9-1.8 0-2.7.6-.8.8-1.7.4-2.1-1.1-1.1-1.2-3.5-.2-4.2.5-.3.6-1.1.2-1.7-1.2-1.9-1.2-3.6-.2-4.3.6-.3.4-1.5-.5-2.9-1.4-2-1.4-2.5 0-3.6 1.3-1 1.3-1.4-.1-2.9-1.3-1.5-1.4-1.9-.1-2.9 1-.8 1.6-.9 2.1-.1 1.2 2 2.3 0 1.9-3.6-.3-3 0-3.5 1.4-3s1.3.3-.2-.9c-1.3-1-2.3-1.1-3.1-.5-.9.7-1.6.6-2.4-.4-.9-1-.8-1.6.4-2.6 1.2-1 1.3-1.5.3-2.8-1.3-1.6-1.3-1.9.3-3.9.6-.6.6-1.4.1-1.7-1-.6-.9-3.6.1-5.3.4-.6 0-1.6-.8-2.3-.8-.7-1.2-1.7-.9-2.2.3-.5 1.6 0 2.9 1.2 1.8 1.7 2.5 1.9 3.1.8 1.2-1.8 1.2-3.1 0-4.7-1.3-1.7-1.7-4.3-.6-3.6.5.3 1.1.1 1.5-.5 1-1.7 1.2-1.2 1 4zm-.5 78.5c-.6.7-.7 1.5-.3 1.8.3.4.4.7.1.7-.3 0-1.2-.8-2.1-1.8-1.5-1.7-1.5-1.8.8-1.8 1.7 0 2.1.3 1.5 1.1zm1 8c-.5.6-.6 1.6-.2 2.1.4.4-.2.2-1.3-.6s-2.2-1.6-2.4-1.7c-.2-.1.2-.9.9-1.8 1-1.2 1.6-1.3 2.6-.4 1 .8 1.1 1.5.4 2.4zm-.5 10.3c0 3.5-.6 6.6-1.4 7.6-1.2 1.4-1.1 2 .8 4 1.9 2 2 2.4.6 3.6-.8.7-1.2 1.7-.8 2.4.4.6.9 2 1 3.1.2 1.4 0 1.6-.5.7-.7-1-1.3-.9-2.8.5-1.1 1-1.5 1.5-1 1 1.7-1.2 2.8-.8 2.2.9-.5 1.3-.3 1.4.7.6 1-.9 1.3-.6 1.3 1.2 0 2-.3 2.2-1.8 1.2-1-.6-1.6-1.8-1.3-2.6.3-.8-.4-.4-1.5 1-1.2 1.5-1.8 1.8-1.4.7.4-1 .1-1.7-.6-1.7s-.4-.7.7-1.8c1-.9 1.4-1.4.9-1-.6.5-1.3.8-1.7.8-.9 0-.5-10.3.5-11.8.4-.7.4-1.8-.1-2.5-.8-1.1-.9-2-.4-4.3 0-.4.7-.1 1.4.5 1.1.8 1.8.6 3.2-.9 1.5-1.7 1.6-2.2.4-3.6-1.5-1.8-2.2-4.7-.9-3.9.5.3 1.1.1 1.5-.5 1-1.6 1.1-1.3 1 4.8zm2.1 32.6c.1.9-.3 2-1 2.5-.9.7-1.2.1-1.2-2.4 0-3.4 1.7-3.4 2.2-.1zm-3.3 6.8c-1.5 1.7-1.5 2 .6 4.2 1.9 2 2 2.4.6 3.6-.8.7-1.2 1.7-.8 2.4.4.6.8 2 1 3.1.1 1.1-.1 1.5-.3.8-.3-.7-1.2-.9-1.9-.7-1.1.5-1.2.9-.2 1.9.7.7 1.5 1.1 1.8.9.4-.2.5 1 .4 2.6-.1 1.6.3 3.5 1.1 4.1.7.6 1.1 1.6.8 2.4-.4.9-1.2.6-3-1.2-1.3-1.3-2.2-2.8-1.9-3.3.3-.5.1-1.1-.3-1.4-.5-.3-.8-1.8-.7-3.3.1-1.5-.2-3.3-.7-4-.5-.7-.5-1.4.2-1.8.6-.3.8-1.1.5-1.6-.4-.5.1-1.2 1-1.5 1.4-.6 1.4-.8-.2-2-1.7-1.3-1.7-1.4.2-.8 1.8.5 1.7.3-.3-1.2s-2.1-1.8-.7-3.4c.8-.9 2.2-1.7 3-1.7 1.3 0 1.3.3-.2 1.9zm5.2 36c0 4-.4 7.8-.7 8.4-.4.6-.4 1.4-.1 1.8.4.4.8 1.8.9 3.2.1 2.2-.9 2.5-1.2.3-.1-.5-.3-1.1-.4-1.4-.1-.3-.4-1.4-.5-2.5-.1-1.1-.4-2.2-.5-2.5-.1-.3-.4-1-.5-1.5-.1-.6-.4-1.2-.5-1.5-.8-1.5-.4-3.2.9-4.9.9-1 1.7-2.7 1.7-3.7.2-2.3.3-2.9.7-2.9.1 0 .2 3.3.2 7.2z"/><path d="M296.6 338.9c-.4.5-.2 1.2.3 1.5.5.4 1.2.2 1.5-.3.4-.5.2-1.2-.3-1.5-.5-.4-1.2-.2-1.5.3zM296.5 347.9c-.3.5-.2 1.2.3 1.5.5.3.9-.1.9-.9 0-1.7-.3-1.9-1.2-.6zM292.3 354.7c1 1.1 1.4 2.4.9 2.7-1 .6-1 3.6.1 5.3.4.6.3 1.4-.2 1.7-1 .7-.9 3.1.2 4.2.4.4 0 1.5-.9 2.5s-1.1 1.9-.5 2.3c.5.4 1.2.2 1.6-.4.4-.6 1.3-.7 2.3-.1 1.6.8 1.7.3 1.7-4.7-.1-3.2.3-6.2.7-6.9.5-.6.4-1.4-.2-1.8-.8-.5-.8-1 0-2 .7-.8.7-1.5.1-1.9-.5-.4-1.3-.1-1.6.5-.5.7-1.6.2-3.3-1.3-2.4-2-2.5-2-.9-.1zm4.8 2.7c-.9 1.1-.9 1.6 0 2.2.9.5.7 1.1-.6 2.1-1.1.7-1.3 1.3-.7 1.3 1.3 0 1.2 2.6-.1 4.7-.5.8-.3 1.3.5 1.4 1 0 1 .2-.1.6-1.1.5-1.1.7 0 1.5s1.1.9-.2.5c-.9-.3-2.3 0-3 .6-.7.7-.5.2.4-1 1.1-1.2 1.4-2.4.9-2.7-1.1-.7-1.1-2.4.1-4.3.4-.6.3-1.4-.1-1.7-1.2-.7-.7-5.1.5-5.1.6 0 1.5-.3 1.9-.8 1.3-1.3 1.7-.8.5.7z"/><path d="M294.4 359.9c0 1.1.5 1.7 1.3 1.4 1-.4 1.1-.9.2-1.9-1.5-1.8-1.5-1.8-1.5.5zM294.9 364.2c-.5 1.8-.6 3.8-.1 3.4.7-.8 1.2-3.6.6-3.6-.2 0-.4.1-.5.2zM296.5 378.9c.3 3.2-1.8 6.1-3 4.1-.3-.6-1.1-.8-1.6-.4-.6.4-.4 1.3.6 2.4 1.4 1.5 1.4 1.9.1 2.9-1.4 1.1-1.4 1.6 0 3.6.9 1.4 1.1 2.6.5 2.9-1 .7-1 2.4.2 4.2.3.6.3 1.4 0 1.8-1.1 1.1-1.2 3.5-.2 4.2.6.3.5 1.1-.2 2-.9 1.1-.9 1.8-.2 2.5.8.8 1.4.5 2.2-.9.8-1.5.8-2.3 0-2.7-.7-.5-.4-1.4.9-2.9 1.6-1.8 1.8-3.6 1.8-13.8-.1-6.4-.4-11.9-.7-12.3-.4-.3-.5.8-.4 2.4zm-1 5.1c.7-.6 1.1.4 1.1 3.5 0 2.4-.4 4.1-.8 3.9-.4-.3-.8 0-.8.5 0 .6.6 1.1 1.3 1.1.8 0 .7.4-.3 1-1.3.9-1.3 1 0 1.1 1.2 0 1.2.2.1.6-1.1.5-1.1.7 0 1.4 1.2.7 1.1.9-.1.9-1.3 0-1.3.1 0 1 1.3.8 1.2 1.2-.7 3.1-1.7 1.7-2.1 1.9-1.9.6.1-.9.5-1.9.9-2.3.3-.4.3-1.2 0-1.8-1.2-1.8-1.2-3.5-.2-4.2.6-.3.4-1.5-.5-2.9-1.4-2-1.4-2.5 0-3.6 1.3-1 1.2-1.4-.3-3.3-1-1.2-1.1-1.5-.3-.9.8.8 1.8.9 2.5.3zm-1.2 23.5c-.3.9-.8 1.4-1 1.1-.3-.3-.2-.9.2-1.5.9-1.6 1.5-1.3.8.4z"/><path d="M294.1 388.4c-.8 1-.9 1.6-.1 2.1.5.3 1 .5 1.1.3.4-1.8.7-3.8.4-3.8-.1 0-.8.6-1.4 1.4zM292.7 415.5c1.1 1.6 2.1 3.3 2.2 3.7.1.5.4.9.8 1 1 .4 1.1-6.2.2-6.8-.4-.2-1.1 0-1.4.6-.5.8-1.2.7-2.3-.2-1.1-.8-.9-.3.5 1.7zm2.9.5c0 1.2-.4 1.6-.9 1.1s-.6-1.4-.3-2c1-1.5 1.2-1.4 1.2.9zM296.6 434.9c-.4.5-.2 1.2.3 1.5.5.4 1.2.2 1.5-.3.4-.5.2-1.2-.3-1.5-.5-.4-1.2-.2-1.5.3zM296.5 443.9c-.3.5-.2 1.2.3 1.5.5.3.9-.1.9-.9 0-1.7-.3-1.9-1.2-.6zM296 451.5c-.9 1.1-1.6 1.2-2.6.5-1.4-1.2-1.5.5-.1 2.7.5.7.5 1.9.1 2.5-1.5 2.3-1.1 4.6.5 4.1 1.4-.4 1.4-.3.1.9-1.9 1.6-2.4 6.4-.5 4.8.6-.5 1.5-.7 1.8-.4 1.2 1.2 2.8-.7 1.7-2.1-.7-.9-.6-1.6.5-2.5 1.4-1.2 1.3-1.6-.6-3.6s-2-2.6-.8-4 2.2-4.4 1.4-4.4c-.1 0-.8.7-1.5 1.5zm1 .9c0 .2-.6.9-1.4 1.5-1.1.9-1.6.9-2.2 0-.4-.7-.3-.9.4-.5.6.3 1.3.2 1.7-.4.6-1 1.5-1.4 1.5-.6zm-.7 9.8c-1.5 1.7-1.5 2.1-.3 2.8 1.1.7.9.9-.7.7-2.1-.1-2.1-.3-.8-2.3 1.2-1.9 1.2-2.4 0-3.4-.8-.7-1.2-1.7-.9-2.2.3-.5 1.4-.2 2.5.8 1.8 1.6 1.8 1.8.2 3.6z"/><path d="M294 458.4c0 .2.8 1 1.8 1.7 1.5 1.3 1.6 1.2.3-.4s-2.1-2.1-2.1-1.3zM294.9 486.7c-1.3 1.6-1.2 1.7.4.4 1.6-1.3 2.1-2.1 1.3-2.1-.2 0-1 .8-1.7 1.7zM297.4 491.8c.3.6-.2 1.5-1.1 2.1-1 .6-1.3 1.1-.7 1.1 2 0 3.7-2.7 2.3-3.6-.7-.4-.9-.3-.5.4zM294.5 496.9c-.7 1.2 1.2 2.4 2.5 1.6 1.1-.7.4-2.5-1-2.5-.5 0-1.1.4-1.5.9zM295.5 503.7c.2 1 .4 2 .5 2.3.1.3.2.8.2 1.1-.1.4.9 1.5 2.1 2.5 2.2 1.9 2.2 1.9.6-.1-.9-1.1-1.5-2.8-1.4-3.7.2-.9-.3-2.2-1-2.8-1-.9-1.3-.7-1 .7zM300.3 522.2c-.8 1.2-1 3-.3 4.3.1.3.3.9.4 1.4.4 3 1.2 1.3 1.2-2.5 0-4.9 0-4.9-1.3-3.2zM291.5 335c-.4.6-.3 1.6.3 2.2.6.6 1.2.6 1.7-.2.4-.6.3-1.6-.3-2.2-.6-.6-1.2-.6-1.7.2zM563.5 396c-.3.5-.1 1 .4 1 .6 0 1.1-.5 1.1-1 0-.6-.2-1-.4-1-.3 0-.8.4-1.1 1zM289.4 424c0 1.3.4 1.6 1 1 .7-.7.7-1.3 0-2-.6-.6-1-.3-1 1zM291.5 431c-.4.6-.3 1.6.3 2.2.6.6 1.2.6 1.7-.2.4-.6.3-1.6-.3-2.2-.6-.6-1.2-.6-1.7.2zM564.5 463.9c-.3.5-.1 1.2.4 1.5.5.3 1.1-.1 1.5-.9.6-1.6-.9-2.1-1.9-.6zM570 464.6c0 .8.5 1.2 1 .9.6-.4.8-1.1.5-1.6-.9-1.4-1.5-1.1-1.5.7zM293.6 474.8c-.3.4.4.9 1.5.9 2.3.2 2.5-.3.4-1-.8-.4-1.6-.3-1.9.1zM546.8 482.9c.3.8.1 1.2-.4.8-.6-.3-1.1.4-1.1 1.6-.2 2.1-.1 2.2 1.3.3.8-1.1 1.4-2.4 1.4-2.9 0-.4.5-.5 1-.2.6.4.8 1.1.5 1.6-1.3 2 .7 2.8 3 1.3 1.4-.9 2.3-2 2-2.4-.3-.5.5-1 1.7-1.3 1.3-.2-.5-.3-3.8-.3-4.9.1-6 .4-5.6 1.5zm6.6-.1c.2.4-.4 1.3-1.4 2-1.6 1-1.8.8-1.7-.8.1-2 2.1-2.7 3.1-1.2zM555 486c0 .5.5 1 1 1 .6 0 1-.5 1-1 0-.6-.4-1-1-1-.5 0-1 .4-1 1zM546 488c-.8.5-1 1-.5 1 .6 0 1.7-.5 2.5-1s1.1-1 .5-1c-.5 0-1.7.5-2.5 1zM552 488.1c0 .5.5.7 1 .4.6-.3 1-.8 1-1.1 0-.2-.4-.4-1-.4-.5 0-1 .5-1 1.1zM550 488.9c0 .6.4 1.3 1 1.6.6.3.7-.1.4-.9-.7-1.8-1.4-2.1-1.4-.7zM556 488.9c0 .7-.4 1-.8.7-.5-.3-1.6.4-2.5 1.5-.9 1-1.2 1.9-.7 1.9.6 0 1.3-.7 1.6-1.5.4-.8 1-1.3 1.4-1 1 .6 2.4-1.4 1.6-2.2-.3-.4-.6-.1-.6.6zM547 490c-1.1.7-1.1 1-.2 1 .7 0 1 .4.7 1-.4.6.1.7 1.1.3 1.1-.4 1.3-.8.6-1.1-.7-.2-1-.8-.6-1.3.7-1.1.3-1.1-1.6.1zM549 494c0 .5.5 1 1.1 1 .5 0 .7-.5.4-1-.3-.6-.8-1-1.1-1-.2 0-.4.4-.4 1zM510.5 515c-.3.5-1.2.7-1.9.4-.7-.3-1.6.2-2 1.2-.6 1.5-.8 1.5-3 0-1.9-1.2-2.4-1.2-2.2-.2.1.8.7 2 1.4 2.8.6.8 1.1 1.7.9 1.9-.1.2.2.1.8-.4.6-.5.4-1.1-.5-1.7-1.1-.7-1.1-1-.2-1 .7 0 1.5.7 1.8 1.5.6 1.6.7 1.5 4.8-3.3 1.1-1.2 1.6-2.2 1.3-2.2-.3 0-.8.4-1.2 1zm-1.5 1.4c0 .2-.8 1-1.7 1.7-1.6 1.3-1.7 1.2-.4-.4 1.3-1.6 2.1-2.1 2.1-1.3zM497 519c1.4.9.7 1.4-1.3 1.1-.5-.1-.5.4-.1 1.1 1.3 2.1 1.3 3.8.1 3.8-.7 0-.6.4.3.9 1.6 1.1 3.3.4 2.5-.9-.3-.4.2-1.3 1-2 1.4-1.1 1.4-1.5-.1-3.1-1-1.1-2.2-1.9-2.8-1.9-.6 0-.4.5.4 1zm2.4 1.9c.3.5-.1 1.4-.8 2-1.2 1-1.4.9-1.1-.6.2-1 .4-1.9.4-2.1.2-.5 1-.2 1.5.7zM464.5 530.1c-.4.6-.4 1.3-.1 1.6.3.4.6.1.6-.6s.5-.9 1.2-.5.8.3.4-.4c-.9-1.5-1.3-1.5-2.1-.1zM467.7 531.6c-2.8 2.4-3.9 4.6-1.2 2.4 1.6-1.3 2.1 0 .6 1.5-.6.6.1 2.2 1.8 4.1 2.6 2.9 2.9 3 3.9 1.3.9-1.4.8-2.1-.4-3.4-1.4-1.3-1.4-1.7 0-3.1.9-.8 1.6-2 1.6-2.5v-1.7c0-1.6-3.8-.8-6.3 1.4zm6.3-1.2c0 .2-.9 1.3-2 2.6-2.4 2.8-2.5 3.4-.5 5.4.8.8 1.1 1.7.7 2-.5.3-1.8-.6-3-1.9-1.3-1.5-1.7-2.7-1.1-3.1.6-.3.8-1.2.5-1.9-.6-1.6.8-3 3.4-3.2 1.1-.1 2 0 2 .1zM443.5 547.1c-.4.6-.5 1.2-.2 1.5.2.3.7-.2 1-1.1.7-1.7.1-2-.8-.4zM435.6 551.3c.3 1 .9 1.5 1.2 1.2.3-.3 0-1.1-.7-1.8-1-.9-1.1-.8-.5.6zM443.4 551.8c.4.3 1.4.7 2.2.8.9.1 1.3 0 1-.4-.4-.3-1.4-.7-2.2-.8-.9-.1-1.3 0-1 .4zM437.3 556.5c0 .8.4 1.2.9.9.4-.3.8-.9.8-1.5 0-.5-.4-.9-.8-.9-.5 0-.9.7-.9 1.5zM338.8 593.9c.3.9.1 1.2-.6.7-.7-.4-1-.2-.7.7.7 1.5 6.5 5.2 6.5 4 .1-.4.7.3 1.5 1.7.7 1.4 1.6 2.3 1.9 2 .3-.3 1.2.4 2.1 1.5 1.4 1.9 1.5 1.9.8.1-.4-1.1-.2-1.7.3-1.3.5.3 1-.3 1-1.3s-.4-1.6-.8-1.4c-.4.3-.8 0-.8-.5 0-.6.5-1.1 1.1-1.1.5 0 .7-.5.4-1-.4-.6-1.4-.8-2.4-.5-1.2.3-1.7-.1-1.8-1.5-.1-1.1.2-2 .8-2 .5 0 .9.4.9.8 0 .5.6.9 1.4.9 1.5 0 1.6-2.1.1-3.4-.4-.4-.5-.2-.1.4.9 1.6.1 1.6-2.6.2-1.2-.6-1.8-.7-1.4-.1.3.5-.1 1.3-1 1.6-2.3.9-3.1.7-1.5-.3.9-.6 1-1.1.2-1.5-1-.6-1.5.6-1.2 2.6.1 1-1.3 1-2.2.1-.4-.3-.3-1.1.3-1.7.6-.8.3-1.2-.9-1.2s-1.7.5-1.3 1.5zm5.1 2.2c1.3-.7 2.2-.8 2.6-.1.3.5.1 1-.5 1s-.8.5-.4 1.1c.3.6 1.4.9 2.3.6 1.1-.3 1.6.3 1.7 1.9.2 2.7-1.6 2.7-3.2 0-.6-1.1-2-2.1-2.9-2.2-1-.1-2.5-1.1-3.4-2-1.5-1.7-1.5-1.7.1-.5 1.2.9 2.2 1 3.7.2zM369 609.5c-.7.9-.8 1.5-.2 1.5.5 0 1.2-.7 1.6-1.5.3-.8.4-1.5.2-1.5s-.9.7-1.6 1.5zM371.1 611c-3.1 2.6-1.7 2.6 1.6 0 1.4-1.1 2.2-2 1.7-2-.5.1-2 1-3.3 2zM379.3 611c1.4 1.1 2.8 2 3.2 2 .4 0-.4-.9-1.8-2s-2.8-2-3.2-2c-.4 0 .4.9 1.8 2zM374.6 611.8c-.2.4.4.8 1.4.8 1 0 1.6-.4 1.4-.8-.3-.4-.9-.8-1.4-.8-.5 0-1.1.4-1.4.8zM380.6 619.7c-.6 1.4-.5 1.5.5.6.7-.7 1-1.5.7-1.8-.3-.3-.9.2-1.2 1.2zM412.7 636.1c.7.7 1.5 1 1.8.7.3-.3-.2-.9-1.2-1.2-1.4-.6-1.5-.5-.6.5zM463 178c0 .5.5 1 1 1 .6 0 1-.5 1-1 0-.6-.4-1-1-1-.5 0-1 .4-1 1zM438 188c-.8.5-1 1-.5 1 .6 0 1.7-.5 2.5-1s1.1-1 .5-1c-.5 0-1.7.5-2.5 1zM564.6 214.4c1 .8 2.1 1.2 2.4 1 .5-.6-2.1-2.4-3.4-2.4-.6 0-.1.6 1 1.4zM565.5 220c-.4.6-1.1.7-1.7.4-.7-.4-.8-.2-.4.5.6.9 1.1.9 2.2 0 1.4-1.1 1.8-1.9 1-1.9-.3 0-.8.5-1.1 1zM564 226c2 1.3 3.3 1.3 2.5 0-.3-.6-1.4-1-2.3-1-1.5 0-1.5.2-.2 1zM570.4 229.9c0 1.1.5 1.7 1.3 1.4 1-.4 1.1-.9.2-1.9-1.5-1.8-1.5-1.8-1.5.5zM572.7 240.9c-.3 1.3-.1 1.8.9 1.4.7-.2 1-1.1.7-1.9-.7-1.9-1-1.8-1.6.5zM573.4 258.4c.1.8.5 1.8.8 2.2.4.3.5-.1.4-1-.1-.8-.5-1.8-.8-2.2-.4-.3-.5.1-.4 1zM563.3 335c.1 2.1 1 1.8 1.3-.5.1-.8-.2-1.5-.6-1.5-.5 0-.8.9-.7 2zM563.6 343.3c.3 1 .9 1.5 1.2 1.2.3-.3 0-1.1-.7-1.8-1-.9-1.1-.8-.5.6zM563.5 357.9c-.3.5-.2 1.2.3 1.5.5.3.9-.1.9-.9 0-1.7-.3-1.9-1.2-.6zM563 367.9c0 .6.4 1.3 1 1.6.6.3.7-.1.4-.9-.7-1.8-1.4-2.1-1.4-.7zM564.3 375.5c0 .8.4 1.2.9.9.5-.3.6-1 .3-1.5-.9-1.3-1.2-1.1-1.2.6zM563.5 380c.3.5.8 1 1.1 1 .2 0 .4-.5.4-1 0-.6-.5-1-1.1-1-.5 0-.7.4-.4 1zM289.4 328c0 1.3.4 1.6 1 1 .7-.7.7-1.3 0-2-.6-.6-1-.3-1 1zM573.4 407.5c0 1.9.3 3.5.7 3.5.8 0 .6-5.6-.2-6.4-.3-.3-.5 1-.5 2.9zM573.5 412.9c-.3.5-.2 1.2.3 1.5.5.3.9-.1.9-.9 0-1.7-.3-1.9-1.2-.6zM572.7 419.5c.3.8.9 1.2 1.4.9 1.2-.7 1.1-1.1-.5-1.7-1-.4-1.3-.1-.9.8zM572.4 426.2c-1 1.2-1.4 1.8-.7 1.5.6-.4 1.4-.3 1.8.3.3.5-.1 1-.9 1-2.4 0-2.6 1.5-.2 1.6 1.8.1 2.2-.4 2.2-3.2 0-1.9-.1-3.4-.2-3.4 0 0-.9 1-2 2.2zM571.2 432.3c-1.9 2.3.6 3.4 2.6 1.2 1-1 1.2-1.5.5-1.1-.6.3-1.3.1-1.5-.5-.2-.7-.8-.6-1.6.4zM563 447.7c0 .6.8 1.7 1.8 2.4 1.6 1.3 1.6 1.3.2-.6-.8-1.1-1.6-2.2-1.7-2.4-.2-.2-.3 0-.3.6zM571 455.8c0 .4.8 1.2 1.8 1.9 1.5.9 1.9.8 1.9-.3 0-.7-.4-1.1-.9-.8-.4.3-.8 0-.8-.5 0-.6-.4-1.1-1-1.1-.5 0-1 .3-1 .8zM564 416c.8.5 2 1 2.5 1 .6 0 .3-.5-.5-1s-1.9-1-2.5-1c-.5 0-.3.5.5 1zM300.5 454.9c-.3.5-.2 1.2.3 1.5.5.3.9-.1.9-.9 0-1.7-.3-1.9-1.2-.6zM300.5 486.9c-.3.5-.2 1.2.3 1.5.5.3.9-.1.9-.9 0-1.7-.3-1.9-1.2-.6zM745.5 522.1c-.3.3.2 1.2 1 1.9s1.5 1.1 1.6.9c.6-3 .5-3.6-.8-3.6-.7 0-1.6.4-1.8.8zM739.6 523.3c.3 1 .9 1.5 1.2 1.2.3-.3 0-1.1-.7-1.8-1-.9-1.1-.8-.5.6zM706.1 581.6c-1.4 3.1.2 6.9 2.6 6 .9-.4 2.1-.1 2.7.6.6.7 1 1.1.9.9-.2-.2.7-1.8 2-3.5 2.2-2.9 2.2-3.2.7-4.7-1.6-1.5-1.8-1.5-2.8.2-.8 1.3-.8 1.8.3 2.3.8.3 1.3 0 1.1-.7-.1-.7-.1-.9.1-.5.7 1.2.4 2.3-.7 2.4-2.3.3-2.4.5-1 1.5 1.3.9 1.3 1 0 .6-1.7-.4-2-3.3-.6-6.2.9-1.9.8-1.9-1.1-.3-1.1 1-2.4 1.8-2.9 1.8s-.3-.4.5-.9c.7-.5.9-1.1.4-1.4-.6-.4-1.5.5-2.2 1.9zm2.9 2.4c0 .5-.4 1-1 1-.5 0-1-.5-1-1 0-.6.5-1 1-1 .6 0 1 .4 1 1zM642.5 641.9c-.3.5-.2 1.2.3 1.5.5.3.9-.1.9-.9 0-1.7-.3-1.9-1.2-.6zM420.6 643.9c-.3.5 1.5 2.3 4.1 4 2.5 1.7 4.1 3.1 3.4 3.1-.7 0-.9.4-.6 1 .3.5 1 1 1.4 1 1.1 0 1-3.3-.1-4.7-.7-.9-.5-1.5.6-1.9 1.3-.5 1.4-.9.4-2.1-1-1.3-1.4-1.3-2.5.3-1.2 1.6-1.4 1.6-3.1.1-2.1-1.9-2.8-2.1-3.6-.8zm7.5 2.4c-.6.8-.7 1.8-.3 2.2.4.5.1.5-.6.1-1-.6-1-1.1-.1-2.2.6-.8 1.4-1.4 1.6-1.4.3 0 0 .6-.6 1.3zM646 650c.6 1.1 1.3 2 1.6 2 .2 0 0-.9-.6-2s-1.3-2-1.6-2c-.2 0 0 .9.6 2zM163.5 690.4c-1.8 1.3-1.8 1.5-.3 2.1 1.9.8 2 4.2 0 5-.9.3-1 1-.3 2.4 1.1 1.9 2.6 2.2 4.8.8.6-.4 1.4-.3 1.8.3.4.6 1.1.8 1.6.4.5-.3.7-1 .4-1.5-.4-.5-.1-.9.4-.9.6 0 1.1.4 1.1 1 0 .5.4 1 .9 1s.8-.8.7-1.7c-.2-1-1.1-1.8-2.2-1.8-1.3 0-1.9-.7-1.8-2.2.1-1.2-.2-2.1-.6-2-.4.1-1.6-.8-2.6-2.1-1.7-2.1-2.1-2.2-3.9-.8zm6.1 5.8c.1.5.2.9.4 1 .1.2.3 1.1.5 2.1.3 1.4 0 1.6-.9.8-.7-.6-1.6-.8-2-.4-1 1.1-3.7 1.2-3 .2.3-.5-.1-.9-.8-.9-.8 0-.6-.5.5-1.1.9-.6 1.5-1.4 1.2-1.9-.3-.5-.1-1.1.4-1.5 1.6-.9.1-3.4-1.7-2.8-1.5.4-1.5.3-.2-.6 1.2-.8 1.9-.5 3.5 1.6 1.1 1.5 2.1 3.1 2.1 3.5z"/><path d="M166.9 694.4c-.1.3-.2.9-.3 1.3-.1.5-.5 1.3-.9 2-.4.6-.3 1.4.2 1.7.5.4 1.2.2 1.6-.4.4-.6 1.2-.7 1.8-.3.8.5.8.2 0-.9-.7-.8-1-1.7-.7-2 .3-.3.1-.9-.5-1.3-.6-.3-1.2-.4-1.2-.1zM423.5 855c-1 1.1-2.2 1.7-2.8 1.3-.6-.3-.7-.1-.3.5.4.7.1 1.2-.6 1.2-1 0-1 .2.1.9.7.5 1.1 1.3.8 1.8-.3.5 0 1 .7 1 .8 0 1.2-.6.9-1.4-.4-.9 0-1.1 1.3-.7 1.4.4 1.6.3.5-.4-.9-.7-1-1.1-.2-1.7.7-.4 1.8-.1 2.6.5 2 1.6 4 .3 2.4-1.6-1-1.2-1.4-1.2-2-.2-.7 1-.9 1-1-.2-.1-.8-.1-1.8 0-2.3.2-1.2-.5-.8-2.4 1.3zm1.5.3c0 .2-1 1.2-2.2 2.3l-2.3 1.9 1.9-2.3c1.8-2.1 2.6-2.7 2.6-1.9zM725.5 566c-.3.5-.1 1 .4 1 .6 0 1.1-.5 1.1-1 0-.6-.2-1-.4-1-.3 0-.8.4-1.1 1zM733 566.1c0 .5.5.7 1 .4.6-.3 1-.8 1-1.1 0-.2-.4-.4-1-.4-.5 0-1 .5-1 1.1zM731 571.9c0 .6.4 1.3 1 1.6.6.3.7-.1.4-.9-.7-1.8-1.4-2.1-1.4-.7zM112.8 593.7c-.6 3-.1 11.2.6 11 1.2-.4 1.5-4.6.4-5.3-.5-.4 0-1.3 1.2-2.1 1.7-1.2 1.9-1.8.9-2.9-1.2-1.5-2.8-1.9-3.1-.7zm2.2 1.7c0 .3-.4.8-1 1.1-.5.3-1 .1-1-.4 0-.6.5-1.1 1-1.1.6 0 1 .2 1 .4zM119 605c0 .5.5 1 1 1 .6 0 1-.5 1-1 0-.6-.4-1-1-1-.5 0-1 .4-1 1zM113.3 612.3c.1 1 .7 1.8 1.2 1.7.6-.1 1.3.9 1.7 2.2l.6 2.3.1-2.3c.1-1.5.5-2.1 1.3-1.6.6.4.8.3.5-.4-.4-.5-1.5-.9-2.5-.8-.9.2-2-.4-2.4-1.3-.7-1.4-.7-1.3-.5.2zM118.6 612.4c1 .8 2.1 1.2 2.4 1 .5-.6-2.1-2.4-3.4-2.4-.6 0-.1.6 1 1.4zM123 612.5c0 .8.4 1.5 1 1.5.5 0 .7-.7.4-1.5-.4-.8-.8-1.5-1-1.5-.2 0-.4.7-.4 1.5zM119 617c0 .6.7 1 1.5 1s1.5-.2 1.5-.4-.7-.6-1.5-1c-.8-.3-1.5-.1-1.5.4zM124.3 617.8c1 .4 1.8 1.2 1.7 1.7-.1.5.4 1.1 1.2 1.3 1.1.3 1.1.2 0-.6-.8-.5-1.3-1.3-1.2-1.8 0-.5-.7-1-1.7-1.1-1.7-.3-1.7-.2 0 .5zM114 619.5c0 .8 2.9 1.2 3.9.5.9-.5.4-.8-1.3-.8-1.4 0-2.6.2-2.6.3zM121.6 620.3c.3.9-.3 1.3-1.7 1.3-1.3-.1-2.3.6-2.5 1.7-.1.9.2 1.5.7 1.1.5-.3.7-1 .3-1.6-.4-.6.3-.8 1.7-.6 1.6.2 2.5-.3 2.7-1.5.2-.9-.1-1.7-.7-1.7s-.8.6-.5 1.3zM113.5 622.1c-.4.6-.5 1.2-.2 1.5.2.3.7-.2 1-1.1.7-1.7.1-2-.8-.4zM133.4 642.1c-.3.5-1.6.7-3 .5-1.5-.3-2.2-.1-1.8.5.3.6.8.8 1.1.5.3-.3 1.5.6 2.6 2l2 2.6-2.4 2.1-2.3 2.2 1.8-2.2c1.5-1.9 1.6-2.5.6-3.8-.7-.8-2-1.5-2.8-1.5-1.2 0-1.3.3-.4 1.2 1.3 1.3 1.6 3.2.4 2.4-.4-.2-.8.8-.7 2.3 0 2.1.4 2.7 1.5 2.3 1.3-.5 1.3-.3.1 1.1-.8 1-1.1 2-.7 2.4.3.3.6.2.6-.3 0-.6 2.7-1 6.1-.9 3.3.1 6.2-.2 6.4-.5.2-.4-.5-1.7-1.6-2.8-1.1-1.2-1.7-2.2-1.4-2.2.3 0 0-1-.7-2.3-.7-1.2-1.2-3.1-1.3-4.1 0-2-3.1-3.1-4.1-1.5zm3.1 1.8c-.1.9.5 2.6 1.3 3.8.8 1.3 1.1 2.3.6 2.3-.4 0 .2 1 1.4 2.3l2.1 2.2h-5.3c-5.8 0-6.4-.8-3.1-4.5 1.7-1.9 1.7-2.1.2-3.8-1.1-1.2-1.3-2.2-.7-2.8 1.6-1.6 3.8-1.3 3.5.5zm-6 5.9c-1.7 1.5-1.8 1.5-.6 0 .7-.9.9-2.3.5-3-.6-1-.4-1.1.7 0 1.1 1 1 1.5-.6 3z"/><path d="M133.7 643.7c-.4.3 0 1.5 1 2.5 1.5 1.7 1.5 2-.7 4.3-1.3 1.4-2.2 2.5-1.9 2.6.2.1 2.1.2 4.1.3 3.6.2 3.7.1 2.1-1.6-.9-1-1.3-1.8-.9-1.8s.1-1-.6-2.3c-.7-1.2-1.2-2.5-1.3-2.9 0-1.1-1.1-1.8-1.8-1.1zm3 6c-.4.3-.3 1.1.3 1.8.6.8.2 1.1-1.5 1.1-2.3 0-2.3-.1-.8-1.8.9-1 1.8-1.8 2.1-1.8.3 0 .2.3-.1.7zM627.6 667.8c-.3.5.1.9.9.9s1.2-.4.9-.9c-.3-.4-.7-.8-.9-.8-.2 0-.6.4-.9.8zM145.9 673.2c0 .2-.2 1.3-.3 2.5-.2 1.5.2 1.9 1.2 1.5 1.1-.4 1.3-.1.7.8-.6.9-.4 1.1.4.6.9-.6.9-1.2-.3-2.5-.9-1-1.3-2.1-.9-2.4.3-.4.3-.7 0-.7-.4 0-.7.1-.8.2zM597.3 675.5c0 .8.4 1.5.9 1.5.4 0 .8-.4.8-.9 0-.6-.4-1.2-.8-1.5-.5-.3-.9.1-.9.9zM151 678c.8.5 2 1 2.5 1 .6 0 .3-.5-.5-1s-1.9-1-2.5-1c-.5 0-.3.5.5 1zM602 677.4c0 .2.8 1 1.8 1.7 1.5 1.3 1.6 1.2.3-.4s-2.1-2.1-2.1-1.3zM155.4 679.7c.2.9.8 1.8 1.5 1.9.6.1.7 0 .1-.3-.5-.2-.8-.9-.5-1.3.3-.5.1-1.1-.4-1.4-.5-.4-.8.2-.7 1.1zM599.7 678.7c-1 .9-.9 2.3.1 2.3.5 0 .9-.7.9-1.5 0-1.7-.1-1.8-1-.8zM149 680c0 .5.5 1 1 1 .6 0 1-.5 1-1 0-.6-.4-1-1-1-.5 0-1 .4-1 1zM152 681.4c0 .2.7.7 1.6 1 .8.3 1.2.2.9-.4-.6-1-2.5-1.4-2.5-.6zM150.5 684c-.3.6.1.7.9.4 1.8-.7 2.1-1.4.7-1.4-.6 0-1.3.4-1.6 1zM157 684.5c0 .8.2 1.5.4 1.5s.6-.7 1-1.5c.3-.8.1-1.5-.4-1.5-.6 0-1 .7-1 1.5zM597.9 684.7c-1.2 1.6-1.2 1.7.2.6.9-.7 1.9-1 2.2-.6.4.3.7.1.7-.5 0-1.7-1.6-1.5-3.1.5zM602.6 684.2c.3.5.9.7 1.2.4.3-.3 1.2 0 2.1.6 1.3 1 1.4 1 .4-.2-1.5-1.6-4.6-2.3-3.7-.8zM145.6 684.9c-.4.5.3.7 1.4.4 2.3-.6 2.6-1.3.6-1.3-.8 0-1.7.4-2 .9zM153.3 686.5c0 .8.4 1.2.9.9.5-.3.6-1 .3-1.5-.9-1.3-1.2-1.1-1.2.6zM573.5 692c.3.5 1.1 1 1.6 1 .6 0 .7-.5.4-1-.3-.6-1.1-1-1.6-1-.6 0-.7.4-.4 1zM561 694c0 .5.5 1 1.1 1 .8 0 .7.6-.2 1.7-.8.9-.9 1.4-.2 1 .6-.4 2.5.9 4.5 3.3 2.6 3.1 3.6 3.7 4.8 2.9 1.3-.9 1.3-1-.2-.6-1.1.4-2.4-.6-4-2.9-1.2-1.8-2.7-3.4-3.3-3.4-.5 0-.5-.4.2-.8.9-.6.7-1.1-.7-2-1.2-.7-2-.8-2-.2zM569 697c0 .5.5 1 1.1 1 .5 0 .7-.5.4-1-.3-.6-.8-1-1.1-1-.2 0-.4.4-.4 1zM561.2 700.2c.3.7 1.2 1.4 2.2 1.4 1.3.2 1.3.1.1-.3-.8-.2-1.3-.9-1-1.4.4-.5.1-.9-.5-.9-.7 0-1 .6-.8 1.2zM539.4 706.2c-.3.5-1 .5-1.6.2-.6-.4-.8-.2-.5.3.4.6-.2 2.1-1.2 3.4-1.6 1.9-2.1 2.1-3.4 1.1-.9-.8-1.8-.9-2.1-.3-.8 1.2 1.2 2.5 3.9 2.6 1.1 0 2.6.4 3.3.8.6.5 1.3.6 1.3.3.4-1.6.7-2.6.9-3.1.3-.6.7-2.2.9-3.5 0-.5.7-.7 1.4-.4.8.3 1.4-.1 1.4-.8 0-1.5-3.5-1.9-4.3-.6zm.6 1.8c-.6 1.1-.8 2-.4 2 .3 0 .1.6-.5 1.3-.6.8-.7 1.8-.3 2.3.4.4 0 .3-.9-.4-.9-.6-2-.8-2.4-.4-.5.4.5-1 2.1-3 3.2-4.2 4-4.8 2.4-1.8zM181 712c0 .5.5 1 1.1 1 .5 0 .7-.5.4-1-.3-.6-.8-1-1.1-1-.2 0-.4.4-.4 1z"/><path d="M184 711.8c0 .7-1.1 1.8-2.5 2.4-1.4.6-2.5 1.5-2.5 2 0 1.2 2.3.5 3.5-1 .7-.9 1-.6 1 1.1 0 1.3-.6 2.4-1.2 2.4-.7 0-1.3-.4-1.3-.9s-.5-.6-1-.3c-1.4.9-.1 2.8 1.5 2.1.7-.2 1.7 0 2.3.6.8.8 1 .2 1-1.9-.1-1.7.2-3.4.5-4 .3-.5.2-1.5-.4-2.3-.6-1.1-.9-1.1-.9-.2zM176.6 718.5c.4.8.9 1.5 1.3 1.5s.8-.7.8-1.5-.6-1.5-1.3-1.5c-.8 0-1.1.6-.8 1.5zM519.6 728.2c.3.5 1 .6 1.5.3 1.3-.9 1.1-1.2-.6-1.2-.8 0-1.2.4-.9.9zM493.3 743.5c0 .8.4 1.5.9 1.5.4 0 .8-.4.8-.9 0-.6-.4-1.2-.8-1.5-.5-.3-.9.1-.9.9zM220.6 743.8c-.3.5.1.9.9.9s1.2-.4.9-.9c-.3-.4-.7-.8-.9-.8-.2 0-.6.4-.9.8zM210.6 747.8c-.3.5.1.9.9.9s1.2-.4.9-.9c-.3-.4-.7-.8-.9-.8-.2 0-.6.4-.9.8zM482 749.4c0 .2.8 1 1.8 1.7 1.5 1.3 1.6 1.2.3-.4s-2.1-2.1-2.1-1.3zM246.8 755.7c.7.3 1.6.2 1.9-.1.4-.3-.2-.6-1.3-.5-1.1 0-1.4.3-.6.6zM453.4 755.8c.3.6-.2 1.3-1.1 1.5-1.6.4-1.6.5-.1.6 2.1.1 3.2-1.5 1.7-2.5-.7-.4-.9-.3-.5.4z"/><path d="M459.1 756c-.1.9.5 2.2 1.2 2.9 1 1 .6 1.7-1.8 3.6-1.6 1.3-3.2 2.2-3.5 1.9-.3-.3.5-1.4 1.8-2.5 1.3-1 2.1-2.3 1.7-2.9-.8-1.3-3.5-1.3-3.5.1 0 .5-.4.7-1 .4-.5-.3-1-.1-1 .4 0 .6-.5 1.1-1.1 1.1-.5 0-.8-.4-.5-.9.3-.5-.1-1.2-.9-1.5-1.2-.4-1.3-.2-.5 1.3.7 1.4.6 2.1-.2 2.3-.7.3-.4.7.7 1.2 1.1.4 1.6.4 1.2 0-.4-.4.7-1.6 2.4-2.6 1.7-1.1 3.3-1.7 3.5-1.5.6.6-6 6.2-6.9 5.9-.5-.1-.6.2-.2.8.5.8 1.1.7 2.1-.1 1.1-.9 1.8-.8 3.2.2.9.7 1.4 1 1 .5-.4-.4.6-1.9 2.3-3.3 2.5-2.2 3.2-2.3 4.6-1.2 1.5 1.3 1.5 1.2.2-.9-.8-1.2-1.7-2.2-2.2-2.2-.4 0-1.2-1-1.7-2.3-.5-1.3-.9-1.6-.9-.7zM243.5 757c-.3.5-.1 1 .4 1 .6 0 1.1-.5 1.1-1 0-.6-.2-1-.4-1-.3 0-.8.4-1.1 1zM249.6 758.6c-.8 2-.8 2.4.2 2.4.4 0 .8-.9.9-2 .2-2.4-.3-2.6-1.1-.4zM240.6 759.8c-.3.5.1.9.9.9s1.5-.4 1.5-.9c0-.4-.4-.8-.9-.8-.6 0-1.2.4-1.5.8zM245 760c0 .5.5 1 1 1 .6 0 1-.5 1-1 0-.6-.4-1-1-1-.5 0-1 .4-1 1zM251 762c-1.3.8-1.2 1 .3 1 .9 0 1.7-.5 1.7-1 0-1.2-.1-1.2-2 0zM242.6 763.6c-.5 1.4-.4 1.5.9.4 1.7-1.4 1.9-2 .6-2-.5 0-1.2.7-1.5 1.6zM254.1 762.7c.4 2.2-.2 3.2-1.6 2.7-.8-.4-1.5-.4-1.5-.1 0 .3.7.7 1.5 1.1 1.8.6 4.1-2.9 2.5-3.9-.6-.4-1-.3-.9.2z"/><path d="M459.6 765.1c-1.1 1-1.6 2.2-1.3 2.6.4.3.7.1.7-.6s.4-1 .8-.7c.4.2 1.3-.4 2-1.5 1.5-2.4.3-2.4-2.2.2zM247 765c.8.5 2 1 2.5 1 .6 0 .3-.5-.5-1s-1.9-1-2.5-1c-.5 0-.3.5.5 1zM462.6 766.7c-.6 1.4-.5 1.5.5.6.7-.7 1-1.5.7-1.8-.3-.3-.9.2-1.2 1.2zM279 775.9c0 .6.4 1.2.8 1.5.5.3.9-.1.9-.9s-.4-1.5-.9-1.5c-.4 0-.8.4-.8.9zM328.6 805.8c-.3.5.1.9.9.9s1.2-.4.9-.9c-.3-.4-.7-.8-.9-.8-.2 0-.6.4-.9.8zM325 810c0 .5.5 1 1.1 1 .5 0 .7-.5.4-1-.3-.6-.8-1-1.1-1-.2 0-.4.4-.4 1zM329.6 814.2c.3.5 1 .6 1.5.3 1.3-.9 1.1-1.2-.6-1.2-.8 0-1.2.4-.9.9zM353.5 818c-.3.5-.1 1 .4 1 .6 0 1.1-.5 1.1-1 0-.6-.2-1-.4-1-.3 0-.8.4-1.1 1zM356 818.6c0 .6.7 1.9 1.6 3 1.4 1.8 1.4 1.8.3-.6-1.4-3.1-1.9-3.6-1.9-2.4zM361.3 822.8c-1 .7-1 1.2 0 2.7 1.1 1.4 1.6 1.5 2.2.5.6-.9.4-1.1-.5-.5-1 .6-1.2.3-.8-1.3.4-1.2.5-2.2.5-2.2-.1 0-.8.4-1.4.8zM355.5 824c.3.5 1.1 1 1.6 1 .6 0 .7-.5.4-1-.3-.6-1.1-1-1.6-1-.6 0-.7.4-.4 1zM352.1 824.7c-.1 1.7 1.6 2.5 2.5 1.2.4-.7.3-.9-.4-.5-.5.3-1.3 0-1.5-.6-.4-.9-.6-1-.6-.1zM354.1 828c-.9.5-.4.7 1.3.7 2.9 0 3.2-.2 1.3-1-.8-.3-2-.2-2.6.3zM362.5 828.3c-1.5 1.2-1.6 1.5-.4 2.2.8.5 1.1.5.7 0-.4-.4 0-1.4 1-2.1 2.3-1.8 1.1-1.8-1.3-.1zM359 829.9c0 .6.4 1.3 1 1.6.6.3.7-.1.4-.9-.7-1.8-1.4-2.1-1.4-.7zM364.5 830.1c-.4.6-.4 1.3-.1 1.6.3.4.6.1.6-.6s.5-.9 1.2-.5.8.3.4-.4c-.9-1.5-1.3-1.5-2.1-.1zM396 839.4c0 .2.8 1 1.8 1.7 1.5 1.3 1.6 1.2.3-.4s-2.1-2.1-2.1-1.3z"/></svg>