<?xml version="1.0" encoding="UTF-8" standalone="no"?>
<!-- Created with Inkscape (http://www.inkscape.org/) -->

<svg
   xmlns:dc="http://purl.org/dc/elements/1.1/"
   xmlns:cc="http://creativecommons.org/ns#"
   xmlns:rdf="http://www.w3.org/1999/02/22-rdf-syntax-ns#"
   xmlns:svg="http://www.w3.org/2000/svg"
   xmlns="http://www.w3.org/2000/svg"
   xmlns:sodipodi="http://sodipodi.sourceforge.net/DTD/sodipodi-0.dtd"
   xmlns:inkscape="http://www.inkscape.org/namespaces/inkscape"
   version="1.1"
   id="svg10"
   width="231"
   height="97"
   viewBox="0 0 231 97"
   sodipodi:docname="enter.svg"
   inkscape:version="0.92.3 (2405546, 2018-03-11)">
  <metadata
     id="metadata16">
    <rdf:RDF>
      <cc:Work
         rdf:about="">
        <dc:format>image/svg+xml</dc:format>
        <dc:type
           rdf:resource="http://purl.org/dc/dcmitype/StillImage" />
        <dc:title></dc:title>
      </cc:Work>
    </rdf:RDF>
  </metadata>
  <defs
     id="defs14" />
  <sodipodi:namedview
     pagecolor="#ffffff"
     bordercolor="#666666"
     borderopacity="1"
     objecttolerance="10"
     gridtolerance="10"
     guidetolerance="10"
     inkscape:pageopacity="0"
     inkscape:pageshadow="2"
     inkscape:window-width="1920"
     inkscape:window-height="1028"
     id="namedview12"
     showgrid="false"
     inkscape:zoom="2.7013928"
     inkscape:cx="48.48056"
     inkscape:cy="66.599189"
     inkscape:window-x="-8"
     inkscape:window-y="-8"
     inkscape:window-maximized="1"
     inkscape:current-layer="svg10" />
  <path
     style="fill:#000000"
     d="m 131.90875,62.80458 c -5.68256,-2.103327 -9.44669,-2.700208 -20.00001,-3.171425 L 98.908741,59.052692 v -11.5 -11.5 L 112.40874,35.43752 c 9.4659,-0.431345 15.59081,-1.253105 20.49683,-2.750001 3.84825,-1.17415 7.34637,-2.13483 7.77361,-2.13483 1.17705,0 0.41332,34.288608 -0.77043,34.589048 -0.55,0.139593 -4.15,-0.912128 -8,-2.337157 z m 8.00247,-14.302862 c 0.4009,-8.278036 0.49291,-15.286979 0.20446,-15.575429 -0.28845,-0.28845 -4.50301,0.55105 -9.36569,1.865547 l -8.84125,2.389999 v 10.350882 10.350882 l 8.00001,2.756181 c 4.4,1.5159 8.28655,2.791446 8.63678,2.834547 0.35022,0.0431 0.96478,-6.694573 1.36569,-14.972609 z m -10.25247,9.388693 -4.25,-1.504386 v -8.441417 c 0,-7.841819 0.15982,-8.500289 2.25,-9.270241 4.38056,-1.61365 7.75,-2.147814 7.75,-1.228625 0,0.512135 -1.8,1.235262 -4,1.60695 -3.7531,0.634081 -4,0.886411 -4,4.087898 0,3.232879 0.18384,3.412102 3.5,3.412102 1.925,0 3.5,0.45 3.5,1 0,0.55 -1.575,1 -3.5,1 -3.3256,0 -3.5,0.172401 -3.5,3.459858 0,3.170097 0.335,3.560227 4,4.658288 2.2,0.659136 4,1.5772 4,2.040142 0,1.084251 -0.61783,0.996082 -5.75,-0.820569 z m -9.25001,-10.337719 v -10 h -10 -10 v 10 10 h 10 10 z m -11,1 c 0,-6.754869 -0.0855,-7 -2.44098,-7 -1.34254,0 -2.7191,-0.45 -3.05902,-1 -0.38803,-0.627843 1.82295,-1 5.94098,-1 3.70601,0 6.55902,0.434975 6.55902,1 0,0.55 -1.2375,0.998986 -2.75,0.997747 l -2.75,-0.0023 0.33206,7.002253 c 0.21625,4.560149 -0.0453,7.0023 -0.75,7.0023 -0.67303,0 -1.08206,-2.646098 -1.08206,-7 z m -20.39388,1.490485 c -2.661578,-3.624887 -4.615632,-6.814303 -4.342343,-7.087592 0.273289,-0.273289 2.23824,1.879468 4.366557,4.783906 l 3.869669,5.280795 0.29569,-6.733797 c 0.385516,-8.779421 2.225465,-8.765451 2.134025,0.0162 -0.114289,10.975992 -0.739414,11.345761 -6.323598,3.740485 z m 56.5686,-1.740485 -0.17471,-8.75 h 4.87756 c 6.17957,0 8.01729,1.790938 6.35544,6.193663 -0.89079,2.359986 -0.84388,3.907179 0.21132,6.969931 0.96067,2.78837 1.02075,3.826222 0.20597,3.558176 -0.63266,-0.208134 -1.30591,-1.468178 -1.49611,-2.800098 -0.51663,-3.617824 -2.03174,-4.921672 -5.71913,-4.921672 -3.17923,0 -3.33629,0.180263 -3.70284,4.25 -0.21054,2.3375 -0.46141,0.3125 -0.5575,-4.5 z m 9.62939,-4.627747 c -0.27159,-2.341946 -0.73168,-2.622253 -4.3041,-2.622253 -3.59543,0 -4.03134,0.271284 -4.30988,2.682176 -0.27472,2.377914 0.0656,2.720439 3,3.019486 4.84219,0.493468 5.95737,-0.11824 5.61398,-3.079409 z m -89.596171,4.127747 0.292064,-7.75 5.841547,-0.302635 c 3.901663,-0.202135 5.625506,0.04693 5.190983,0.75 -0.35781,0.578949 -2.649006,1.052635 -5.091547,1.052635 -4.070382,0 -4.440983,0.208626 -4.440983,2.5 0,2.24376 0.403934,2.5 3.940983,2.5 2.167541,0 4.219098,0.45 4.559017,1 0.377502,0.610812 -1.156282,1 -3.940983,1 -4.380947,0 -4.559017,0.115136 -4.559017,2.94774 0,2.8427 0.187081,2.960829 5.25,3.315018 l 5.25,0.367277 -6.292064,0.184983 -6.292065,0.184982 z m 15.792064,-0.333333 c 0,-6.022223 0.318729,-7.977091 1.25,-7.666667 0.6875,0.229167 1.205,0.941667 1.15,1.583333 -0.055,0.641667 -0.1675,4.091667 -0.25,7.666667 -0.219638,9.517634 -2.15,8.096049 -2.15,-1.583333 z"
     id="path26"
     inkscape:connector-curvature="0" />
</svg>
