<?xml version="1.0" encoding="UTF-8" standalone="no"?>
<!-- Created with Inkscape (http://www.inkscape.org/) -->

<svg
   xmlns:dc="http://purl.org/dc/elements/1.1/"
   xmlns:cc="http://creativecommons.org/ns#"
   xmlns:rdf="http://www.w3.org/1999/02/22-rdf-syntax-ns#"
   xmlns:svg="http://www.w3.org/2000/svg"
   xmlns="http://www.w3.org/2000/svg"
   xmlns:sodipodi="http://sodipodi.sourceforge.net/DTD/sodipodi-0.dtd"
   xmlns:inkscape="http://www.inkscape.org/namespaces/inkscape"
   version="1.1"
   id="svg10"
   width="736"
   height="267"
   viewBox="0 0 736 267"
   sodipodi:docname="sitex.svg"
   inkscape:version="0.92.3 (2405546, 2018-03-11)">
  <metadata
     id="metadata16">
    <rdf:RDF>
      <cc:Work
         rdf:about="">
        <dc:format>image/svg+xml</dc:format>
        <dc:type
           rdf:resource="http://purl.org/dc/dcmitype/StillImage" />
        <dc:title></dc:title>
      </cc:Work>
    </rdf:RDF>
  </metadata>
  <defs
     id="defs14" />
  <sodipodi:namedview
     pagecolor="#ffffff"
     bordercolor="#666666"
     borderopacity="1"
     objecttolerance="10"
     gridtolerance="10"
     guidetolerance="10"
     inkscape:pageopacity="0"
     inkscape:pageshadow="2"
     inkscape:window-width="1920"
     inkscape:window-height="1028"
     id="namedview12"
     showgrid="false"
     inkscape:zoom="0.84785562"
     inkscape:cx="559.02264"
     inkscape:cy="11.040915"
     inkscape:window-x="-8"
     inkscape:window-y="-8"
     inkscape:window-maximized="1"
     inkscape:current-layer="svg10" />
  <g
     id="g163"
     transform="translate(8.2561171,-1.1794441)">
    <path
       style="fill:#f6cb66"
       d="m 96.75,240.33772 c 0.6875,-0.27741 1.8125,-0.27741 2.5,0 0.6875,0.27741 0.125,0.50439 -1.25,0.50439 -1.375,0 -1.9375,-0.22698 -1.25,-0.50439 z M 31.2,238.8 c -1.530501,-1.5305 -1.674745,-32.04441 -0.164816,-34.86574 0.997142,-1.86318 2.329282,-1.92557 36.25,-1.69783 L 102.5,202.47286 68.086414,202.74975 c -23.709143,0.19076 -34.836603,0.62796 -35.773536,1.40555 -1.067871,0.88625 -1.301201,4.69557 -1.086413,17.73668 L 31.5,238.5 l 11,0.55233 11,0.55232 -10.55,0.19768 C 35.837657,239.93559 32.008987,239.60899 31.2,238.8 Z m 24.55,0.53772 c 0.6875,-0.27741 1.8125,-0.27741 2.5,0 0.6875,0.27741 0.125,0.50439 -1.25,0.50439 -1.375,0 -1.9375,-0.22698 -1.25,-0.50439 z m 10.51375,-0.0553 c 1.520062,-0.22986 3.770062,-0.22371 5,0.0136 1.229937,0.23736 -0.01375,0.42542 -2.76375,0.41792 -2.75,-0.008 -3.756313,-0.20172 -2.23625,-0.43157 z m 44.98625,0.0282 c 0.9625,-0.25152 2.5375,-0.25152 3.5,0 0.9625,0.25153 0.175,0.45733 -1.75,0.45733 -1.925,0 -2.7125,-0.2058 -1.75,-0.45733 z m 6.5625,-0.99378 c 0.72187,-0.28887 1.58437,-0.25335 1.91667,0.0789 0.33229,0.33229 -0.25834,0.56864 -1.3125,0.52522 -1.16495,-0.048 -1.4019,-0.28494 -0.60417,-0.60416 z m 4,-1 c 0.72187,-0.28887 1.58437,-0.25335 1.91667,0.0789 0.33229,0.33229 -0.25834,0.56864 -1.3125,0.52522 -1.16495,-0.048 -1.4019,-0.28494 -0.60417,-0.60416 z m 7,-2 c 0.72187,-0.28887 1.58437,-0.25335 1.91667,0.0789 0.33229,0.33229 -0.25834,0.56864 -1.3125,0.52522 -1.16495,-0.048 -1.4019,-0.28494 -0.60417,-0.60416 z m 11.74637,-4.78509 c 1.06762,-0.8075 2.39113,-1.46819 2.94113,-1.46819 0.55,0 0.12649,0.66069 -0.94113,1.46819 -1.06762,0.80751 -2.39113,1.4682 -2.94113,1.4682 -0.55,0 -0.12649,-0.66069 0.94113,-1.4682 z m 9.62254,-5.98657 c 7.83112,-6.44701 11.62238,-11.63858 14.86043,-20.34915 1.5735,-4.23285 2.8828,-7.15932 2.90954,-6.50329 0.0267,0.65603 -1.15923,4.45138 -2.63548,8.4341 -2.29487,6.19121 -3.81752,8.37473 -10.5,15.05721 -4.29875,4.29875 -8.3176,7.8159 -8.93078,7.8159 -0.61319,0 1.32015,-2.00465 4.29629,-4.45477 z m -41.38187,-24.4094 c 10.57669,-3.15694 13.86094,-8.48386 9.02279,-14.63458 C 114.21648,180.91716 107.29533,178.40778 79,171.42556 72.792028,169.89367 56.695399,163.21093 51.542191,160.02608 46.486852,156.9017 36.667805,145.21338 34.298794,139.5 29.776235,128.59289 30.671322,111.43021 36.339342,100.37391 38.781164,95.610772 46.45637,87.545952 52.548863,83.341548 61.144412,77.409793 71.492712,73.918308 86.096236,72.022763 97.443899,70.549831 180.30328,70.703281 181.8,72.2 c 1.41311,1.413112 1.73346,34.35227 0.34245,35.21196 -0.47165,0.2915 -21.72045,0.58259 -47.21954,0.64687 -49.57644,0.12497 -49.855879,0.15198 -53.362206,5.15796 -2.565057,3.66214 -1.913804,6.75951 2.247263,10.68805 3.805182,3.59253 7.402091,4.90666 31.692033,11.57869 15.30618,4.20434 19.55989,5.68086 27.33989,9.49 10.58668,5.18331 17.93723,12.03437 22.27857,20.76469 3.11208,6.25831 3.29543,7.23964 3.49063,18.68351 l 0.20603,12.07827 -0.74303,-12 c -0.65794,-10.62588 -1.09769,-12.69715 -3.84025,-18.08814 -3.27272,-6.43313 -11.36841,-14.64268 -17.33881,-17.58269 -11.47377,-5.65003 -14.73473,-6.90883 -25.00966,-9.65427 -6.26085,-1.67289 -14.98337,-3.77448 -19.38337,-4.67021 -4.4,-0.89573 -9.8,-2.45769 -12,-3.47103 -11.370297,-5.23727 -13.850517,-6.70885 -14.792824,-8.77699 -1.070073,-2.34856 -4.106266,-3.03798 -5.247436,-1.19153 -0.429743,0.69534 -1.332274,0.4552 -2.599547,-0.69166 -1.84044,-1.66558 -2.092629,-1.66739 -4.856189,-0.0349 -1.849996,1.09282 -3.844554,1.48858 -5.45947,1.08326 C 55.608461,120.9359 55,121.16779 55,122.39159 c 0,1.97671 -1.36413,2.07951 -2.908095,0.21915 -1.662219,-2.00285 -5.880034,-2.57096 -7.208,-0.97085 -0.620837,0.74806 -2.311194,1.367 -3.75635,1.37542 -4.179909,0.0244 -5.066973,1.20813 -5.267105,7.02886 -0.245965,7.15378 4.223109,16.44616 11.412507,23.7296 8.997591,9.11529 21.388892,14.218 52.996203,21.82371 5.99268,1.44203 14.96251,5.51402 17.96128,8.15381 2.30034,2.02496 3.30093,7.78707 1.88997,10.88378 -1.26745,2.78175 -7.51438,5.89777 -13.62041,6.79397 -2.82713,0.41495 -2.15286,0.0358 2.29954,-1.29321 z M 71.683114,116.8125 c -0.319226,-0.79773 -0.556183,-0.56078 -0.604167,0.60417 -0.04342,1.05416 0.192928,1.64479 0.52522,1.3125 0.332291,-0.3323 0.367818,-1.1948 0.07895,-1.91667 z m 111.395836,44.60417 c 0.048,-1.16495 0.28494,-1.4019 0.60416,-0.60417 0.28887,0.72187 0.25335,1.58437 -0.0789,1.91667 -0.3323,0.33229 -0.56864,-0.25834 -0.52522,-1.3125 z M 183.15789,152 c 0,-1.375 0.22698,-1.9375 0.50439,-1.25 0.27741,0.6875 0.27741,1.8125 0,2.5 -0.27741,0.6875 -0.50439,0.125 -0.50439,-1.25 z m -0.0132,-26.1849 c -0.0796,-6.9767 0.29418,-13.8392 0.83057,-15.25 L 184.9505,108 h 23.19142 c 12.75528,0 22.96759,0.22382 22.69404,0.49738 -0.27356,0.27356 -10.36106,0.74651 -22.41667,1.05102 -12.05561,0.3045 -22.25774,0.89163 -22.67141,1.30474 -0.41366,0.4131 -1.13606,6.80264 -1.60532,14.19898 L 183.28936,138.5 183.14468,125.8151 Z M 233.28601,124.5 c 0.008,-2.75 0.20172,-3.75631 0.43157,-2.23625 0.22986,1.52006 0.22371,3.77006 -0.0136,5 -0.23736,1.22994 -0.42542,-0.0138 -0.41792,-2.76375 z m -1.01365,-9.5 c 0,-2.475 0.19502,-3.4875 0.43337,-2.25 0.23836,1.2375 0.23836,3.2625 0,4.5 -0.23835,1.2375 -0.43337,0.225 -0.43337,-2.25 z M 171.59075,55.803727 c -8.03649,-0.473073 -12.17768,-1.124227 -12.73469,-2.002386 -0.45399,-0.715738 -0.83233,-8.131698 -0.84075,-16.479912 -0.0126,-12.479692 0.2641,-15.457985 1.55612,-16.75 C 160.90414,19.238718 164.4632,19 183,19 c 25.60793,0 24.9485,-0.24495 25.09392,9.321429 0.15821,10.408569 -0.24331,25.154084 -0.69743,25.611904 -1.31316,1.323882 -2.28404,-2.456354 -2.65698,-10.345286 -0.36768,-7.7778 -0.71016,-9.145866 -2.69119,-10.75 C 200.79988,31.827121 199.14364,31 198.36778,31 c -0.77586,0 -1.91488,-1.10665 -2.53115,-2.459222 -0.94616,-2.076591 -1.43366,-2.291623 -3.13324,-1.382038 -2.80024,1.498646 -14.84761,1.96646 -16.44749,0.638676 -0.71733,-0.59533 -1.61783,-0.768824 -2.00111,-0.385544 -0.38328,0.383281 -0.0475,1.098198 0.74615,1.588706 1.21617,0.751636 1.17232,0.995707 -0.27897,1.552616 -2.70883,1.039477 -4.94987,-0.259783 -4.25024,-2.464111 0.74284,-2.340504 -1.01333,-3.726045 -1.87537,-1.479585 -0.34963,0.911104 -1.25437,1.351977 -2.10479,1.025641 C 165.67121,27.320336 165,27.498646 165,28.031385 165,28.564123 165.675,29 166.5,29 c 2.49459,0 1.68159,2.980463 -1.10166,4.038649 -1.53881,0.585056 -2.39326,1.532214 -2.09154,2.318478 0.28056,0.731132 0.83626,3.939758 1.23489,7.130281 0.39863,3.190522 1.43984,6.636069 2.31379,7.656771 2.01131,2.349042 6.14452,2.484136 6.14452,0.200833 0,-1.539983 0.12708,-1.539983 1.82874,0 C 175.83455,51.255256 178.28299,52 180.26972,52 c 3.85549,0 5.34183,1.195321 4.0344,3.244466 -0.61527,0.964316 -3.60108,1.095662 -12.71337,0.559261 z M 163,47 c 0,-0.55 -0.47656,-1 -1.05902,-1 -0.58246,0 -0.7809,0.45 -0.44098,1 0.33992,0.55 0.81648,1 1.05902,1 C 162.80156,48 163,47.55 163,47 Z m 17,-22.531385 c 0,-1.612079 -2.66157,-3.140377 -3.68563,-2.11632 C 175.60214,23.064525 177.86193,26 179.12244,26 179.6051,26 180,25.310877 180,24.468615 Z m 1,19.114718 C 181,42.7125 181.7125,42 182.58333,42 c 1.76593,0 1.45839,2.152759 -0.39583,2.770833 C 181.53437,44.988542 181,44.454167 181,43.583333 Z m 1.1875,-5.645833 c 0.24062,-0.721875 1.02812,-1.509375 1.75,-1.75 0.75,-0.25 1.125,0.125 0.875,0.875 -0.24063,0.721875 -1.02813,1.509375 -1.75,1.75 -0.75,0.25 -1.125,-0.125 -0.875,-0.875 z"
       id="path179"
       inkscape:connector-curvature="0" />
    <path
       style="fill:#f3a05d"
       d="m 42.5,239 -11,-0.5 -0.275332,-16.36701 c -0.182179,-10.82954 0.09708,-16.81575 0.825402,-17.69332 0.86709,-1.04478 8.779215,-1.40041 37.275332,-1.67542 31.402718,-0.30306 36.882938,-0.58416 41.544358,-2.13099 7.63792,-2.53453 10.521,-5.68327 9.84161,-10.7485 -0.29237,-2.17976 -1.10761,-4.65727 -1.81164,-5.50558 -1.99805,-2.4075 -12.28253,-7.25402 -18.63946,-8.78377 -31.599447,-7.60418 -43.990534,-12.70717 -52.987313,-21.82164 -7.189398,-7.28344 -11.658472,-16.57582 -11.412507,-23.7296 0.200132,-5.82073 1.087196,-7.0045 5.267105,-7.02886 1.445156,-0.008 3.135513,-0.62736 3.75635,-1.37542 1.327966,-1.60011 5.545781,-1.032 7.208,0.97085 C 53.63587,124.4711 55,124.3683 55,122.39159 c 0,-1.2238 0.608461,-1.45569 2.544534,-0.96977 1.614916,0.40532 3.609474,0.01 5.45947,-1.08326 2.76356,-1.63247 3.015749,-1.63066 4.856189,0.0349 1.267273,1.14686 2.169804,1.387 2.599547,0.69166 1.14117,-1.84645 4.177363,-1.15703 5.247436,1.19153 0.942307,2.06814 3.422527,3.53972 14.792824,8.77699 2.2,1.01334 7.6,2.5753 12,3.47103 4.4,0.89573 13.12252,2.99732 19.38337,4.67021 10.27493,2.74544 13.53589,4.00424 25.00966,9.65427 5.95724,2.93353 14.06623,11.15112 17.35032,17.58269 2.82705,5.5365 3.14662,7.13015 3.52693,17.58814 0.39928,10.9794 0.27231,11.90037 -2.80468,20.34416 -2.85475,7.83392 -3.99997,9.62125 -10.02588,15.64716 -7.95206,7.95206 -16.2861,12.56685 -30.03875,16.63331 -9.3741,2.77178 -9.48958,2.77986 -40.40097,2.82755 C 67.45,239.47848 48.55,239.275 42.5,239 Z m 81.69722,-4.06307 c 13.95291,-3.80446 22.04549,-8.33091 30.03376,-16.7989 5.27187,-5.58846 6.85905,-8.12215 9.17556,-14.64741 2.53872,-7.15117 2.76523,-8.87809 2.41872,-18.44034 -0.31362,-8.65444 -0.81351,-11.40414 -2.78188,-15.30196 -3.2588,-6.45316 -6.10897,-8.22877 -11.15334,-6.94838 -4.12418,1.04683 -10.73427,-0.24417 -13.03617,-2.54607 -0.91237,-0.91237 -1.47938,-0.79046 -2.46958,0.53093 -1.19556,1.59543 -1.39465,1.56212 -2.85101,-0.47698 -1.69153,-2.36837 -7.01411,-2.74893 -9.65681,-0.69046 -0.75706,0.58969 -2.16397,1.3529 -3.12647,1.69602 C 118.90504,161.97108 118.28884,165 120,165 c 0.55,0 1,0.47039 1,1.04531 0,0.65367 -1.31545,0.79854 -3.51096,0.38666 -2.30391,-0.43222 -4.05616,-0.20619 -5.09678,0.65744 -1.33232,1.10573 -1.73814,1.04392 -2.53873,-0.38665 C 108.69089,164.62523 107,164.47011 107,166.44098 c 0,2.27552 -2.18328,3.02886 -3.51195,1.2118 C 102.82336,166.74375 101.80412,166 101.22309,166 c -0.58103,0 -1.255874,-0.5625 -1.499647,-1.25 -0.319807,-0.90194 -1.230421,-0.67615 -3.270282,0.81085 C 93.077432,168.02166 92.201685,170 94.488095,170 c 0.910119,0 2.246775,0.59201 2.970347,1.31558 0.723572,0.72358 3.879218,1.88931 7.012548,2.59051 5.61272,1.25607 12.36129,5.04112 15.83829,8.88317 2.35782,2.60536 3.22956,8.49565 1.7765,12.00365 -1.49664,3.6132 -4.91601,5.5988 -13.95528,8.10371 -6.53768,1.81168 -10.396851,2.0162 -39.158098,2.07515 -17.548114,0.036 -32.551335,0.31316 -33.34049,0.61598 -0.789156,0.30283 -1.698028,1.53197 -2.019716,2.73142 -0.556244,2.07403 -0.887125,28.45921 -0.362196,28.88236 0.513481,0.41392 65.545153,1.28575 72.75,0.97531 4.1806,-0.18014 12.23445,-1.61408 18.19722,-3.23991 z m -1.68714,-71.95324 c 0.34546,-0.55897 1.04702,-0.75742 1.55902,-0.44098 1.38704,0.85723 1.12841,1.45729 -0.62812,1.45729 -0.85746,0 -1.27636,-0.45734 -0.9309,-1.01631 z M 91,162.7 c 0,-1.67231 -2.027693,-3.7 -3.7,-3.7 -1.859822,0 -1.604324,2.0485 0.45,3.60795 2.238426,1.69921 3.25,1.72786 3.25,0.0921 z M 71.078947,117.41667 c 0.04798,-1.16495 0.284941,-1.4019 0.604167,-0.60417 0.288871,0.72187 0.253344,1.58437 -0.07895,1.91667 -0.332292,0.33229 -0.568641,-0.25834 -0.52522,-1.3125 z M 184.34339,54.356322 c 0.12469,-1.47798 -0.65864,-1.922325 -3.84339,-2.180166 -2.2,-0.178114 -4.7875,-1.035358 -5.75,-1.904987 -1.59865,-1.444396 -1.75,-1.438009 -1.75,0.07384 0,2.283303 -4.13321,2.148209 -6.14452,-0.200833 -0.87395,-1.020702 -1.91516,-4.466249 -2.31379,-7.656771 -0.39863,-3.190523 -0.95433,-6.399149 -1.23489,-7.130281 -0.30172,-0.786264 0.55273,-1.733422 2.09154,-2.318478 C 168.18159,31.980463 168.99459,29 166.5,29 c -0.825,0 -1.5,-0.435877 -1.5,-0.968615 0,-0.532739 0.67121,-0.711049 1.49157,-0.396246 0.85042,0.326336 1.75516,-0.114537 2.10479,-1.025641 0.86204,-2.24646 2.61821,-0.860919 1.87537,1.479585 -0.69963,2.204328 1.54141,3.503588 4.25024,2.464111 1.45129,-0.556909 1.49514,-0.80098 0.27897,-1.552616 -0.79366,-0.490508 -1.12943,-1.205425 -0.74615,-1.588706 0.38328,-0.38328 1.28378,-0.209786 2.00111,0.385544 1.59988,1.327784 13.64725,0.85997 16.44749,-0.638676 1.69958,-0.909585 2.18708,-0.694553 3.13324,1.382038 C 196.4529,29.89335 197.59192,31 198.36778,31 c 0.77586,0 2.4321,0.827121 3.68054,1.838047 1.97903,1.602518 2.32533,2.980033 2.70248,10.75 0.23792,4.901574 0.89643,9.474453 1.46334,10.161953 0.81042,0.982799 -0.78567,1.25 -7.4667,1.25 -4.67359,0 -9.86166,0.272845 -11.52905,0.606322 -2.5353,0.507059 -3.00597,0.302418 -2.875,-1.25 z M 183.77083,43.1875 C 183.98854,42.534375 183.45417,42 182.58333,42 181.7125,42 181,42.7125 181,43.583333 c 0,1.765927 2.15276,1.45839 2.77083,-0.395833 z m 1.04167,-6.125 c 0.25,-0.75 -0.125,-1.125 -0.875,-0.875 -0.72188,0.240625 -1.50938,1.028125 -1.75,1.75 -0.25,0.75 0.125,1.125 0.875,0.875 0.72187,-0.240625 1.50937,-1.028125 1.75,-1.75 z M 161.5,47 c -0.33992,-0.55 -0.14148,-1 0.44098,-1 0.58246,0 1.05902,0.45 1.05902,1 0,0.55 -0.19844,1 -0.44098,1 -0.24254,0 -0.7191,-0.45 -1.05902,-1 z m 15.47994,-22.524166 c -0.69572,-0.838291 -0.99522,-1.793884 -0.66557,-2.123539 1.02406,-1.024057 3.68563,0.504241 3.68563,2.11632 0,1.958618 -1.39777,1.961959 -3.02006,0.0072 z"
       id="path177"
       inkscape:connector-curvature="0" />
    <path
       style="fill:#5d92c5"
       d="m 184.67746,239.28713 c -0.91309,-1.47741 -1.93634,-76.83696 -1.03133,-75.9549 0.46963,0.45772 1.07887,17.55772 1.35387,38 l 0.5,37.16777 10,0.29921 c 18.86835,0.56455 29.51208,-4.68062 35.21355,-17.35304 1.58525,-3.52346 1.83412,-8.71296 2.32333,-48.44617 l 0.54789,-44.5 0.20762,43.62427 c 0.22843,47.99816 0.2477,47.81553 -5.95782,56.45655 -2.31234,3.21988 -5.05984,5.39041 -9.74848,7.70134 -6.19213,3.05196 -7.20774,3.23462 -19.7017,3.54336 -7.24516,0.17903 -13.41328,-0.0632 -13.70693,-0.53839 z m 94.09792,0.57635 c -0.12354,-0.19991 -0.46104,-29.2926 -0.75,-64.6504 -0.42433,-51.92229 -0.78074,-64.44466 -1.85304,-65.10702 -2.13159,-1.31667 -41.15555,-1.36488 -42.73652,-0.0528 -1.8284,1.51744 -3.91329,0.22698 -2.46082,-1.52314 0.69832,-0.84143 0.97674,-7.52192 0.79856,-19.160971 L 231.5,71.5 l -24,-0.5 -24,-0.5 -0.30157,-6.39843 c -0.16984,-3.603475 0.1624,-6.862404 0.7606,-7.460595 0.58419,-0.584191 6.11989,-1.304898 12.30157,-1.60157 L 207.5,54.5 208,45 l 0.5,-9.5 11.61888,-0.280601 11.61888,-0.280601 0.63112,3.155601 C 232.716,39.82998 233,47.94375 233,56.125 V 71 h 70.48095 70.48095 l 0.55456,2.25 c 0.30502,1.2375 0.42609,9.675 0.26906,18.75 L 374.5,108.5 352,109.04833 c -12.375,0.30158 -22.65268,0.63908 -22.83929,0.75 -0.18661,0.11092 -0.18661,24.18609 0,53.50039 l 0.33929,53.29872 -3.35638,6.61611 c -6.52132,12.85482 -12.63751,15.88883 -33.39362,16.56529 -7.5625,0.24647 -13.85108,0.28456 -13.97462,0.0846 z M 309.5,235.98669 c 15.28874,-5.69057 19.20326,-16.42766 18.10136,-49.65 -1.37514,-41.4604 -1.68976,-75.90309 -0.70644,-77.33669 0.84428,-1.2309 5.02732,-1.5897 23.31697,-2 L 372.5,106.5 372.60802,92 c 0.0594,-7.975 -0.26171,-15.498706 -0.7136,-16.719347 l -0.82161,-2.219347 -68.2864,0.219347 L 234.5,73.5 V 90 106.5 l 21.33254,0.5 c 19.64101,0.46035 21.44493,0.65392 22.75,2.44113 1.18787,1.62672 1.41746,12.18202 1.41746,65.16667 0,49.65448 0.26831,63.32988 1.25,63.71169 0.6875,0.26739 5.975,0.35437 11.75,0.1933 7.86025,-0.21923 12.00843,-0.8543 16.5,-2.5261 z m 91.5,3.30693 c -5.91969,-1.02768 -18.38117,-5.49097 -23.71878,-8.49527 -3.17967,-1.78969 -9.17963,-6.63897 -13.33325,-10.77617 -9.24402,-9.20749 -14.192,-18.74581 -16.45443,-31.71956 -1.85733,-10.65074 -1.85874,-14.30156 -0.0103,-26.56482 3.579,-23.744 18.84201,-41.81092 42.61119,-50.43915 6.36595,-2.31084 9.35235,-2.74489 21.27386,-3.092 15.53955,-0.45246 20.74377,0.528 33.22114,6.25875 9.84598,4.52217 16.43111,9.69698 24.23528,19.04489 6.72449,8.05466 11.1871,17.41049 9.90198,20.75945 -0.32637,0.85052 -3.4359,3.8997 -6.91007,6.77597 -10.1312,8.38764 -38.16585,35.93824 -37.3758,36.73048 0.397,0.39809 11.59772,0.94881 24.89048,1.22381 l 24.16866,0.5 0.69301,17.35967 c 0.66877,16.75274 1.12483,19.80956 2.61136,17.50309 0.3826,-0.59362 2.7779,-3.50559 5.3229,-6.47104 6.98717,-8.1415 23.1195,-27.98285 25.58212,-31.46375 1.19534,-1.68962 5.3663,-6.85228 9.26879,-11.47259 7.23604,-8.56701 9.00145,-12.01768 7.27433,-14.21837 -0.53395,-0.68035 -4.96288,-6.18701 -9.84207,-12.23701 -29.44828,-36.51467 -38.40301,-48.02247 -38.09303,-48.95373 0.22688,-0.68163 9.08175,-1.1393 25.40752,-1.31321 l 25.05926,-0.26695 4.64259,5.16368 c 2.55342,2.84002 8.01101,9.35166 12.12796,14.47032 4.11696,5.11866 7.84442,9.52855 8.28325,9.79976 1.40418,0.86783 10.32231,-8.72205 19.53955,-21.01136 2.52107,-3.36132 5.21053,-6.63167 5.97658,-7.26744 0.99258,-0.82377 8.68507,-1.07909 26.76935,-0.88851 28.54456,0.30083 27.96487,0.10505 22.01808,7.43623 -24.31941,29.98091 -44.35287,55.46517 -44.90581,57.124 -0.34914,1.04741 18.57575,25.46041 22.64135,29.20721 2.63679,2.43003 19.8806,23.40811 25.33196,30.81777 5.41942,7.36626 6.01077,7.18223 -23.07884,7.18223 h -25.86978 l -5.88022,-7.09339 C 581.1461,229.00524 577.6,224.8226 576.5,223.61184 c -1.1,-1.21076 -4.25,-4.99205 -7,-8.40288 -2.75,-3.41082 -5.45888,-6.20317 -6.01972,-6.20523 -0.56085,-0.002 -2.81085,2.29056 -5,5.09469 -2.18916,2.80413 -7.77878,9.77913 -12.4214,15.5 L 537.61777,240 470.55888,239.86382 C 433.6765,239.78892 402.375,239.53233 401,239.29362 Z m 80.86278,-1.18765 c 1.11146,-0.70418 1.23217,-4.15915 0.65455,-18.73469 -0.38952,-9.8292 -0.90301,-18.07151 -1.14107,-18.31624 -0.23807,-0.24473 -10.88262,-0.38484 -23.65455,-0.31135 C 433.58077,200.88259 431,200.67935 431,198.63938 c 0,-1.20431 21.59988,-22.82096 37.68593,-37.71519 8.09293,-7.49332 8.17309,-7.61542 7.3617,-11.21301 -2.27613,-10.09208 -17.3484,-25.91561 -30.80931,-32.34497 -11.87721,-5.67293 -21.67432,-7.68686 -34.67605,-7.12811 -12.52762,0.53838 -19.18799,2.44161 -31.94734,9.12913 -15.28753,8.0126 -26.43516,24.39352 -29.21989,42.93726 -1.74443,11.61629 -1.74047,16.22675 0.0225,26.19551 4.62618,26.15933 23.79306,43.64428 54.0825,49.33665 6.3268,1.18902 76.53033,1.43029 78.36278,0.26932 z M 386.44593,182.8801 c -2.98338,-6.61595 -2.643,-17.98686 0.72979,-24.3801 4.43971,-8.41561 11.40881,-13.71614 20.50379,-15.59468 5.33369,-1.10165 6.93303,-1.03635 12.67319,0.51744 7.57417,2.05023 9.41859,3.64338 8.06933,6.97005 -0.97333,2.3998 -36.72581,35.89987 -38.84498,36.39774 -0.6802,0.15981 -2.0892,-1.59989 -3.13112,-3.91045 z m 15.11881,-9.11197 C 407.57913,168.14059 415.875,160.25456 420,156.24361 c 7.0681,-6.87268 7.39165,-7.3751 5.61849,-8.72453 -3.43483,-2.61402 -12.16817,-3.82239 -17.93294,-2.48126 -9.44284,2.19681 -14.91584,6.84011 -19.26154,16.34153 -2.33821,5.11225 -2.61151,6.70983 -2.09468,12.24447 0.58408,6.25471 1.98247,10.37618 3.5206,10.37618 0.42876,0 5.70042,-4.60434 11.71481,-10.23187 z m 137.90473,60.68264 c 4.81943,-5.1036 13.46256,-15.57794 14.7441,-17.86791 2.23098,-3.98654 8.60771,-9.86542 10.08569,-9.29827 0.85073,0.32646 5.90152,5.82444 11.22399,12.21774 5.32246,6.3933 11.35324,13.38605 13.40172,15.53946 l 3.72453,3.91529 17.42525,-0.009 c 9.58389,-0.005 20.22619,-0.27151 23.64956,-0.59228 5.57245,-0.52214 6.12469,-0.76936 5.27312,-2.36054 -1.33448,-2.49349 -19.83524,-25.27269 -26.39189,-32.49519 -2.99576,-3.3 -7.51139,-8.7 -10.03473,-12 -2.52335,-3.3 -6.60905,-8.63209 -9.07935,-11.84908 -2.4703,-3.217 -4.49146,-6.205 -4.49146,-6.64 0,-0.43499 2.1375,-3.62566 4.75,-7.09036 2.6125,-3.4647 6.325,-8.40915 8.25,-10.98767 7.16603,-9.59882 9.75612,-12.8626 16.31003,-20.5523 3.69413,-4.33433 9.16367,-11.25559 12.15453,-15.38059 4.6253,-6.37922 5.1837,-7.60157 3.73669,-8.17971 -0.93569,-0.37385 -11.42151,-0.71135 -23.30182,-0.75 L 589.29886,110 l -4.39943,5.61366 c -6.0236,7.68609 -15.67927,19.36807 -18.26592,22.09915 -3.80403,4.01643 -5.54875,3.0228 -14.85994,-8.46281 -4.79316,-5.9125 -10.45963,-12.6625 -12.59215,-15 L 535.30411,110 h -22.65206 c -12.45863,0 -22.64768,0.3375 -22.64234,0.75 0.005,0.4125 1.56631,2.775 3.46882,5.25 1.90252,2.475 5.83565,7.59647 8.7403,11.38105 2.90464,3.78458 8.66417,10.98458 12.79895,16 4.13477,5.01542 8.54928,10.57635 9.81002,12.35761 1.26073,1.78126 4.33553,5.60626 6.83288,8.5 6.6678,7.72612 6.97564,8.73485 4.0026,13.11587 -1.37752,2.02989 -4.73043,6.26803 -7.4509,9.41809 -4.37268,5.06316 -8.04616,9.57458 -18.01449,22.12377 -1.48384,1.86801 -4.08056,5.01801 -5.77049,7 C 496.87697,224.75168 488,236.13915 488,236.96962 c 0,1.38462 5.65014,1.7439 27.46947,1.74674 l 19.96947,0.003 4.03053,-4.26819 z M 183.232,157 c 0,-1.925 0.2058,-2.7125 0.45733,-1.75 0.25152,0.9625 0.25152,2.5375 0,3.5 -0.25153,0.9625 -0.45733,0.175 -0.45733,-1.75 z m 0.0881,-13 c 0,-3.575 0.1815,-5.0375 0.40333,-3.25 0.22182,1.7875 0.22182,4.7125 0,6.5 -0.22183,1.7875 -0.40333,0.325 -0.40333,-3.25 z m 48.75888,-23.58333 c 0.048,-1.16495 0.28494,-1.4019 0.60416,-0.60417 0.28887,0.72187 0.25335,1.58437 -0.0789,1.91667 -0.3323,0.33229 -0.56864,-0.25834 -0.52522,-1.3125 z M 659.50513,101.80794 C 659.24302,101.08858 658.90964,95.55 658.76428,89.5 L 658.5,78.5 654.25689,77.559376 c -4.59644,-1.018949 -6.32321,-3.569613 -4.17166,-6.162071 1.0336,-1.245418 3.43251,-1.424132 13.83262,-1.030506 6.92018,0.261917 13.25715,0.540533 14.08215,0.619147 0.825,0.07861 2.72919,-0.161934 4.23152,-0.534551 5.06805,-1.257001 7.52287,0.172902 10.40624,6.061506 C 694.11548,79.530806 695.90987,82 696.62529,82 c 0.71542,0 2.5549,-2.5875 4.08773,-5.75 2.53802,-5.236358 3.09963,-5.773314 6.28698,-6.010992 1.925,-0.143546 4.03669,0.09206 4.69265,0.523573 0.79161,0.520746 1.348,5.547958 1.65464,14.950275 0.51756,15.869644 -1.8e-4,17.680144 -4.8966,17.122934 -2.79665,-0.31826 -3.00289,-0.66692 -3.95069,-6.67872 l -1,-6.34293 -2.27994,3.09293 C 698.3988,96.734348 694.90312,96.963593 692.17866,93.5 691.09708,92.125 689.93942,91 689.60608,91 689.27274,91 689,92.988196 689,95.418213 689,102.03769 688.3518,103 683.89301,103 c -2.14115,0 -3.94431,-0.1125 -4.00701,-0.25 -0.0627,-0.1375 -0.40021,-6.1 -0.75,-13.25 l -0.636,-13 -2.5,0.281011 c -7.34642,0.825771 -6.91041,0.01164 -7.21931,13.480339 L 668.5,102.5 l -4.25915,0.30794 c -2.83038,0.20465 -4.41902,-0.13081 -4.73572,-1 z M 666.17066,96.25 c 0.0939,-2.6125 0.0864,-7.780022 -0.0166,-11.483381 -0.15739,-5.65865 0.1479,-7.06856 1.91267,-8.833333 1.15498,-1.154974 1.89335,-2.306555 1.64084,-2.559069 -0.25251,-0.252514 -4.22751,-0.327251 -8.83333,-0.166083 -6.76193,0.236615 -7.79663,0.463865 -5.37422,1.180337 5.31583,1.572253 5.5,2.043297 5.5,14.067307 0,6.165989 0.3,11.510889 0.66667,11.877552 0.36666,0.36667 1.49166,0.66667 2.5,0.66667 1.49651,0 1.86468,-0.87266 2.00399,-4.75 z m 19.84465,-2.5 c 0.008,-3.9875 0.39985,-7.856777 0.86983,-8.598393 1.49894,-2.365279 4.26159,-0.785238 5.63634,3.223599 0.73091,2.131363 1.79352,4.339791 2.36134,4.907618 1.41643,1.416424 3.86532,-0.74428 5.6298,-4.967276 1.37359,-3.287448 3.93691,-5.199355 5.23307,-3.903193 0.36269,0.362688 0.90578,4.13078 1.20687,8.373539 C 707.3746,98.732904 707.84361,100.5 709,100.5 c 1.25926,0 1.5,-2.166667 1.5,-13.5 V 73.5 l -3.21569,-0.310799 c -2.80604,-0.271208 -3.3018,0.04726 -3.89165,2.5 C 702.41147,79.769249 698.02358,87 696.52885,87 c -0.70461,0 -2.93639,-3.15 -4.95951,-7 -3.28416,-6.24976 -3.99408,-7 -6.62387,-7 H 682 v 14 c 0,13.33333 0.0952,14 2,14 1.81468,0 2.00142,-0.67177 2.01531,-7.25 z"
       id="path175"
       inkscape:connector-curvature="0" />
    <path
       style="fill:#ee6b3c"
       d="m 66,237.95153 c -17.875,-0.30166 -32.6125,-0.63916 -32.75,-0.75 -0.524929,-0.42315 -0.194048,-26.80833 0.362196,-28.88236 0.321688,-1.19945 1.23056,-2.42859 2.019716,-2.73142 0.789155,-0.30282 15.792376,-0.58002 33.34049,-0.61598 28.761247,-0.0589 32.620418,-0.26347 39.158098,-2.07515 9.03927,-2.50491 12.45864,-4.49051 13.95528,-8.10371 1.45306,-3.508 0.58132,-9.39829 -1.7765,-12.00365 -3.477,-3.84205 -10.22557,-7.6271 -15.83829,-8.88317 -3.13333,-0.7012 -6.288976,-1.86693 -7.012548,-2.59051 C 96.73487,170.59201 95.398214,170 94.488095,170 c -2.28641,0 -1.410663,-1.97834 1.965066,-4.43915 2.039861,-1.487 2.950475,-1.71279 3.270282,-0.81085 0.243773,0.6875 0.918617,1.25 1.499647,1.25 0.58103,0 1.60027,0.74375 2.26496,1.65278 1.32867,1.81706 3.51195,1.06372 3.51195,-1.2118 0,-1.97087 1.69089,-1.81575 2.85353,0.26178 0.80059,1.43057 1.20641,1.49238 2.53873,0.38665 1.04062,-0.86363 2.79287,-1.08966 5.09678,-0.65744 C 119.68455,166.84385 121,166.69898 121,166.04531 121,165.47039 120.55,165 120,165 c -1.71116,0 -1.09496,-3.02892 0.75,-3.68662 0.9625,-0.34312 2.36941,-1.10633 3.12647,-1.69602 2.6427,-2.05847 7.96528,-1.67791 9.65681,0.69046 1.45636,2.0391 1.65545,2.07241 2.85101,0.47698 0.9902,-1.32139 1.55721,-1.4433 2.46958,-0.53093 2.3019,2.3019 8.91199,3.5929 13.03617,2.54607 5.04437,-1.28039 7.89454,0.49522 11.15334,6.94838 1.96837,3.89782 2.46826,6.64752 2.78188,15.30196 0.34651,9.56225 0.12,11.28917 -2.41872,18.44034 -2.31651,6.52526 -3.90369,9.05895 -9.17556,14.64741 -7.98827,8.46799 -16.08085,12.99444 -30.03376,16.7989 -12.91606,3.52174 -16.6586,3.71561 -58.19722,3.0146 z m 59,-74.39251 c 0,-1.05548 -1.91911,-1.49891 -2.48992,-0.57533 -0.34546,0.55897 0.0734,1.01631 0.9309,1.01631 C 124.29844,164 125,163.80156 125,163.55902 Z M 87.75,162.60795 C 85.695676,161.0485 85.440178,159 87.3,159 c 1.672307,0 3.7,2.02769 3.7,3.7 0,1.63581 -1.011574,1.60716 -3.25,-0.0921 z"
       id="path173"
       inkscape:connector-curvature="0" />
    <path
       style="fill:#2667b2"
       d="m 288.75,238.2766 c 1.7875,-0.22182 4.7125,-0.22182 6.5,0 1.7875,0.22183 0.325,0.40333 -3.25,0.40333 -3.575,0 -5.0375,-0.1815 -3.25,-0.40333 z m 133.0605,-0.0247 c 7.87078,-0.16916 20.47078,-0.16875 28,9.2e-4 7.52923,0.16966 1.0895,0.30807 -14.3105,0.30756 -15.4,-5e-4 -21.56027,-0.13932 -13.6895,-0.30848 z m 48.9172,0.0264 c 1.77523,-0.22091 4.92523,-0.22454 7,-0.008 2.07476,0.21648 0.6223,0.39722 -3.2277,0.40166 -3.85,0.004 -5.54754,-0.17268 -3.7723,-0.39359 z m 32.5223,-0.0228 c 4.8125,-0.18331 12.6875,-0.18331 17.5,0 4.8125,0.18332 0.875,0.3333 -8.75,0.3333 -9.625,0 -13.5625,-0.14998 -8.75,-0.3333 z m 29.5625,0.0615 c 0.72187,-0.28887 1.58438,-0.25335 1.91667,0.0789 0.33229,0.33229 -0.25834,0.56864 -1.3125,0.52522 -1.16495,-0.048 -1.4019,-0.28494 -0.60417,-0.60416 z m 64.97102,-0.0553 c 2.90594,-0.20265 7.40594,-0.20052 10,0.005 2.59406,0.20525 0.21648,0.37104 -5.28352,0.36844 -5.5,-0.003 -7.62242,-0.17053 -4.71648,-0.37317 z m 22.49665,0.002 c 2.6291,-0.20668 6.6791,-0.20418 9,0.006 2.32091,0.20972 0.16983,0.37882 -4.78017,0.37577 -4.95,-0.003 -6.84892,-0.17464 -4.21983,-0.38131 z M 302.8125,237.31689 c 0.72187,-0.28887 1.58438,-0.25335 1.91667,0.0789 0.33229,0.33229 -0.25834,0.56864 -1.3125,0.52522 -1.16495,-0.048 -1.4019,-0.28494 -0.60417,-0.60416 z M 482.35496,229.5 c -0.003,-4.95 0.16605,-7.10108 0.37577,-4.78017 0.20972,2.3209 0.21222,6.3709 0.006,9 -0.20667,2.62909 -0.37827,0.73017 -0.38131,-4.21983 z m 9.63405,1.51388 c 1.73639,-2.19237 3.67933,-4.3089 4.31765,-4.70341 0.63833,-0.3945 -0.57375,1.39925 -2.6935,3.98613 -2.11975,2.58687 -4.06269,4.7034 -4.31765,4.7034 -0.25496,0 0.95711,-1.79376 2.6935,-3.98612 z M 540,233.62244 c 0,-0.20765 0.7875,-0.99515 1.75,-1.75 1.58606,-1.24387 1.62143,-1.2085 0.37756,0.37756 C 540.82119,233.91575 540,234.44548 540,233.62244 Z M 582.43709,227.75 579.5,224.5 l 3.25,2.93709 c 1.7875,1.6154 3.25,3.0779 3.25,3.25 0,0.77256 -0.82513,0.0924 -3.56291,-2.93709 z m 47.48722,-2.5 -2.42431,-2.75 2.75,2.42431 c 1.5125,1.33338 2.75,2.57088 2.75,2.75 0,0.78428 -0.8098,0.14598 -3.07569,-2.42431 z m -259,-1 -2.42431,-2.75 2.75,2.42431 c 2.57029,2.26589 3.20859,3.07569 2.42431,3.07569 -0.17912,0 -1.41662,-1.2375 -2.75,-2.75 z M 497,224.62244 c 0,-0.20765 0.7875,-0.99515 1.75,-1.75 1.58606,-1.24387 1.62143,-1.2085 0.37756,0.37756 C 497.82119,224.91575 497,225.44548 497,224.62244 Z M 548.5,223 c 0.99549,-1.1 2.03498,-2 2.30998,-2 0.275,0 -0.31449,0.9 -1.30998,2 -0.99549,1.1 -2.03498,2 -2.30998,2 -0.275,0 0.31449,-0.9 1.30998,-2 z m -268.1395,-8 c 0,-5.225 0.16854,-7.3625 0.37454,-4.75 0.206,2.6125 0.206,6.8875 0,9.5 -0.206,2.6125 -0.37454,0.475 -0.37454,-4.75 z m 43.71979,7 C 325.5381,218.93897 326,218.37166 326,219.6422 c 0,0.53655 -0.69982,1.84905 -1.55517,2.91667 -1.46637,1.83031 -1.48719,1.7984 -0.36454,-0.55887 z m 39.86588,-3.75 -3.44617,-3.75 3.75,3.44617 c 2.0625,1.89539 3.75,3.58289 3.75,3.75 0,0.76362 -0.84622,0.0443 -4.05383,-3.44617 z m 258.85452,-1.5 c -4.03252,-4.76575 -7.58832,-9.79437 -5.12657,-7.25 2.61269,2.70037 10.50635,12.5 10.06883,12.5 -0.275,0 -2.49902,-2.3625 -4.94226,-5.25 z M 503,217.5 c 1.29175,-1.375 2.57363,-2.5 2.84863,-2.5 0.275,0 -0.55688,1.125 -1.84863,2.5 -1.29175,1.375 -2.57363,2.5 -2.84863,2.5 -0.275,0 0.55688,-1.125 1.84863,-2.5 z m 50,-0.5 c 0.5887,-1.1 1.29537,-2 1.57037,-2 0.275,0 0.0183,0.9 -0.57037,2 -0.5887,1.1 -1.29537,2 -1.57037,2 -0.275,0 -0.0183,-0.9 0.57037,-2 z m 17.08129,-4 c -2.87025,-3.3 -5.72123,-6 -6.33551,-6 -0.61428,0 -2.27088,1.0125 -3.68133,2.25 l -2.56445,2.25 2.42431,-2.75 c 1.33338,-1.5125 2.92955,-2.75 3.54706,-2.75 1.03339,0 4.37793,3.27291 10.47437,10.25 1.32159,1.5125 2.16693,2.75 1.87854,2.75 -0.28839,0 -2.87273,-2.7 -5.74299,-6 z m -244.00234,1.41667 c 0.048,-1.16495 0.28494,-1.4019 0.60416,-0.60417 0.28887,0.72187 0.25335,1.58437 -0.0789,1.91667 -0.33229,0.33229 -0.56864,-0.25834 -0.52522,-1.3125 z M 357.99691,210.75 c -1.47225,-2.0111 -1.71373,-2.70955 -0.63346,-1.83224 1.63978,1.3317 4.1192,5.08224 3.35979,5.08224 -0.19092,0 -1.41777,-1.4625 -2.72633,-3.25 z M 481.29966,209 c 0,-3.025 0.18747,-4.2625 0.41659,-2.75 0.22913,1.5125 0.22913,3.9875 0,5.5 -0.22912,1.5125 -0.41659,0.275 -0.41659,-2.75 z m 27.2923,1.5 c 0.90093,-1.375 2.03333,-2.5 2.51644,-2.5 0.4831,0 -0.0998,1.125 -1.29535,2.5 -1.19555,1.375 -2.32794,2.5 -2.51644,2.5 -0.18849,0 0.39441,-1.125 1.29535,-2.5 z m 102.24794,-7.84699 c -2.93695,-2.94085 -6.9149,-7.48272 -8.8399,-10.09304 -1.925,-2.61032 -5.8625,-7.66641 -8.75,-11.23576 -5.23459,-6.47067 -6.08872,-8.88854 -4.31241,-12.2076 0.8169,-1.5264 0.54295,-1.69398 -2.12822,-1.30194 -1.85794,0.27269 -3.25111,1.15854 -3.53613,2.24847 -0.57872,2.21302 -2.95866,3.25488 -3.9119,1.7125 -0.39239,-0.6349 0.25588,-1.7735 1.46797,-2.5783 2.62104,-1.7403 2.80097,-5.20803 0.42069,-8.10741 -1.56718,-1.90895 -2.11564,-2.01099 -5.25,-0.97674 -1.925,0.63519 -4.28139,1.54458 -5.23643,2.02085 -0.95504,0.47628 -2.40171,0.86596 -3.21482,0.86596 -0.81311,0 -1.96005,0.9 -2.54875,2 -0.5887,1.1 -1.84203,1.99311 -2.78518,1.98469 -1.05175,-0.009 -1.29482,-0.2994 -0.62862,-0.75 0.84278,-0.57004 3.4138,-6.43712 3.4138,-7.79029 0,-0.66601 -4.57864,0.99941 -5.1565,1.87561 -0.36107,0.5475 -2.24989,1.05078 -4.19736,1.11841 -3.49222,0.12127 -6.54776,1.56158 -3.31281,1.56158 0.91667,0 2.56667,0.9 3.66667,2 2.49239,2.49239 2.69076,4.48595 0.31403,3.15586 -1.08234,-0.6057 -2.51801,-0.56441 -4.00989,0.11533 -1.92926,0.87903 -2.74729,0.66112 -4.81684,-1.28313 l -2.49293,-2.34197 -2.99718,3.35706 C 540.34873,169.84954 539,172.22069 539,173.27238 c 0,1.05169 -0.89387,3.04853 -1.98637,4.43743 -1.09251,1.38889 -1.74095,2.92237 -1.44099,3.40773 0.29997,0.48535 0.11563,0.88246 -0.40964,0.88246 -1.33369,0 -11.24225,10.41958 -13.663,14.36764 -1.1,1.79402 -3.78656,5.03272 -5.97014,7.19711 -2.18358,2.16439 -3.31254,3.03525 -2.50882,1.93525 2.40136,-3.28654 9.10972,-11.57421 14.97463,-18.5 3.02738,-3.575 6.56666,-8.01167 7.86506,-9.85927 2.82502,-4.01997 2.43718,-5.21137 -4.20005,-12.90207 -2.49735,-2.89374 -5.57215,-6.71874 -6.83288,-8.5 -1.26074,-1.78126 -5.67525,-7.34219 -9.81002,-12.35761 -4.13478,-5.01542 -9.89431,-12.21542 -12.79895,-16 -2.90465,-3.78458 -6.83778,-8.90605 -8.7403,-11.38105 -1.90251,-2.475 -3.46349,-4.8375 -3.46882,-5.25 -0.005,-0.4125 10.18371,-0.75 22.64234,-0.75 h 22.65206 l 3.87731,4.25 c 2.13252,2.3375 7.79899,9.0875 12.59215,15 9.31119,11.48561 11.05591,12.47924 14.85994,8.46281 2.58665,-2.73108 12.24232,-14.41306 18.26592,-22.09915 L 589.29886,110 l 21.60057,0.0703 c 11.88031,0.0387 22.36613,0.37615 23.30182,0.75 1.44701,0.57814 0.88861,1.80049 -3.73669,8.17971 -2.99086,4.125 -8.4604,11.04626 -12.15453,15.38059 -6.55391,7.6897 -9.144,10.95348 -16.31003,20.5523 -1.925,2.57852 -5.6375,7.52297 -8.25,10.98767 -2.6125,3.4647 -4.75,6.66042 -4.75,7.10159 0,0.44117 2.02802,3.42917 4.50671,6.63999 2.4787,3.21082 7.02448,9.12764 10.10174,13.14849 3.07726,4.02085 7.43989,9.08335 9.69473,11.25 2.25484,2.16665 3.82451,3.93937 3.48816,3.93937 -0.33635,0 -3.0145,-2.40615 -5.95144,-5.34699 z m -70.87977,-39.10497 c 1.36258,-1.64181 1.06922,-4.70609 -0.50057,-5.22865 -0.57224,-0.19049 -1.86671,0.25784 -2.87661,0.9963 -1.52387,1.11428 -1.63857,1.71186 -0.67438,3.51348 1.35928,2.53983 2.38871,2.72249 4.05156,0.71887 z M 548.5,162 c 0.33992,-0.55 0.14148,-1 -0.44098,-1 -0.58246,0 -1.05902,0.45 -1.05902,1 0,0.55 0.19844,1 0.44098,1 0.24254,0 0.7191,-0.45 1.05902,-1 z m 20.94721,-2.08541 c -0.32197,-0.52097 -1.01165,-0.68378 -1.53262,-0.3618 -0.52097,0.32197 -0.68378,1.01165 -0.3618,1.53262 0.32197,0.52097 1.01165,0.68378 1.53262,0.3618 0.52097,-0.32197 0.68378,-1.01165 0.3618,-1.53262 z M 595,158 c 0,-0.55 -0.675,-1 -1.5,-1 -0.825,0 -1.5,0.45 -1.5,1 0,0.55 0.675,1 1.5,1 0.825,0 1.5,-0.45 1.5,-1 z m -268.22249,36.93183 c -0.27336,-6.6375 -0.21713,-13.43673 0.12497,-15.10939 0.3421,-1.67267 0.74305,3.75801 0.891,12.06817 0.14796,8.31017 0.0917,15.10939 -0.12496,15.10939 -0.21669,0 -0.61764,-5.43068 -0.89101,-12.06817 z M 280.15789,202 c 0,-1.375 0.22698,-1.9375 0.50439,-1.25 0.27741,0.6875 0.27741,1.8125 0,2.5 -0.27741,0.6875 -0.50439,0.125 -0.50439,-1.25 z m 161.60377,-0.70726 c 1.24391,-0.23919 3.04391,-0.23011 4,0.0202 0.95609,0.25029 -0.0617,0.446 -2.26166,0.4349 -2.2,-0.0111 -2.98225,-0.21589 -1.73834,-0.45508 z m -12.09499,-0.95941 c -1.35551,-1.3555 -0.43012,-2.55155 10.76628,-13.91533 6.3379,-6.43264 11.21343,-12.17594 10.94036,-12.88755 -0.29517,-0.76919 0.56868,-1.55006 2.1553,-1.94827 2.17282,-0.54535 2.43257,-0.92403 1.44776,-2.11065 -0.66006,-0.79533 -0.9389,-2.12679 -0.61963,-2.9588 0.7972,-2.07747 4.64326,-1.95964 4.64326,0.14226 0,1.48817 0.20164,1.4725 2.00054,-0.15548 1.99993,-1.80991 1.99992,-1.81089 -0.0404,-3.23999 -1.28184,-0.89783 -1.83155,-2.08928 -1.47796,-3.20334 0.85035,-2.67923 -2.00866,-4.62851 -4.76626,-3.24964 -2.04193,1.02102 -5.58376,1.57425 -8.34928,1.30415 -0.62335,-0.0609 -1.36898,-1.01168 -1.65695,-2.11289 -0.42888,-1.64003 -0.94741,-1.84109 -2.86663,-1.11153 -1.36273,0.51801 -2.27403,1.63038 -2.17808,2.65866 0.0907,0.9724 -0.41741,2.35037 -1.1292,3.06216 -1.7051,1.7051 -6.53577,2.90094 -6.53577,1.61795 0,-0.54548 0.9,-1.22713 2,-1.51479 1.82562,-0.47741 2.76888,-3.60803 1.4765,-4.90042 -1.03118,-1.03118 -5.55471,0.46779 -6.44784,2.13663 -0.50091,0.93594 -1.14235,3.62326 -1.42543,5.97183 -0.59273,4.91751 -2.37872,7.70622 -3.93722,6.14772 -0.69167,-0.69167 -0.48053,-1.61348 0.65762,-2.87112 2.23581,-2.47055 2.11632,-3.5432 -0.32363,-2.90514 -1.1,0.28766 -2,0.11514 -2,-0.38337 0,-2.60151 -4.6224,-0.18203 -10.68109,5.59075 -3.7504,3.57342 -7.07522,6.49842 -7.38849,6.5 -0.31327,0.002 -3.46327,2.70091 -7,5.99852 -3.53673,3.29761 -6.98136,5.99761 -7.65474,6 -1.25835,0.004 -4.7713,-5.83336 -3.98402,-6.62065 0.24153,-0.24152 1.01293,0.94612 1.71422,2.6392 0.7013,1.69309 1.84497,2.94502 2.54149,2.78207 2.13797,-0.50017 37.89247,-33.98181 38.87466,-36.40346 1.34926,-3.32667 -0.49516,-4.91982 -8.06933,-6.97005 -16.00455,-4.33224 -30.32443,4.45868 -35.87396,22.02287 -0.70455,2.2299 -1.32549,3.26687 -1.37987,2.30437 C 383.04449,166.7875 382.325,166 381.5,166 c -0.825,0 -1.5,-0.7301 -1.5,-1.62244 0,-1.3288 -0.27149,-1.39713 -1.5,-0.37756 -1.19785,0.99412 -1.80724,0.98991 -3.02523,-0.0209 -1.36139,-1.12985 -1.34414,-1.46592 0.16054,-3.12857 0.92717,-1.02451 1.50102,-1.98733 1.27523,-2.13959 -0.2258,-0.15226 -1.16278,-0.85033 -2.08218,-1.55128 -1.35663,-1.03428 -2.1104,-1.02807 -4,0.033 -1.2806,0.71908 -2.70218,1.89486 -3.15908,2.61286 C 366.6558,161.3981 364,159.59809 364,157.31854 c 0,-0.79012 -0.45,-1.15846 -1,-0.81854 -0.55,0.33992 -1,1.49148 -1,2.55902 0,1.06754 -0.47656,1.94098 -1.05902,1.94098 -0.58246,0 -0.82187,-0.38371 -0.53203,-0.85268 1.1147,-1.80362 -1.8758,-4.0302 -4.65895,-3.46884 -3.02212,0.60956 -3.77288,3.77444 -1.5,6.32329 1.06748,1.19709 0.98828,1.20328 -0.54238,0.0424 -2.75637,-2.0905 -3.45372,-0.38764 -4.00114,9.77026 -0.56673,10.51624 -1.71018,13.61289 -1.69941,4.60226 0.0315,-26.37711 11.43211,-47.99892 30.60786,-58.04944 12.75935,-6.68752 19.41972,-8.59075 31.94734,-9.12913 13.00173,-0.55875 22.79884,1.45518 34.67605,7.12811 13.46091,6.42936 28.53318,22.25289 30.80931,32.34497 0.81139,3.59759 0.73123,3.71969 -7.3617,11.21301 C 452.68465,175.73992 431,197.43224 431,198.62343 c 0,0.66545 0.5625,1.43688 1.25,1.71429 0.81534,0.329 0.69943,0.53184 -0.33333,0.58333 -0.87084,0.0434 -1.88334,-0.22105 -2.25,-0.58772 z M 424,160 c 0,-0.55 -0.19844,-1 -0.44098,-1 -0.24254,0 -0.7191,0.45 -1.05902,1 -0.33992,0.55 -0.14148,1 0.44098,1 0.58246,0 1.05902,-0.45 1.05902,-1 z m 47,-3.04366 c 0,-0.53914 -0.89212,-0.41615 -2,0.27573 -1.1,0.68696 -2,1.60661 -2,2.04366 0,0.43705 0.9,0.31297 2,-0.27573 1.1,-0.5887 2,-1.50835 2,-2.04366 z M 370,145.88337 C 370,145.39752 369.1,145 368,145 c -1.1,0 -2,0.63287 -2,1.40638 0,0.91405 0.70014,1.22329 2,0.88337 1.1,-0.28766 2,-0.92053 2,-1.40638 z m 104,1.17565 c 0,-0.51754 -0.45,-1.2191 -1,-1.55902 -0.55,-0.33992 -1,0.0835 -1,0.94098 0,0.85746 0.45,1.55902 1,1.55902 0.55,0 1,-0.42344 1,-0.94098 z m -96.5,-2.07272 c 0,-2.1435 -2.90567,-1.8339 -3.32712,0.35451 -0.25736,1.3364 0.14991,1.74367 1.48631,1.48631 1.01244,-0.19498 1.84081,-1.02335 1.84081,-1.84082 z m 81.26166,55.30644 c 1.24391,-0.23919 3.04391,-0.23011 4,0.0202 0.95609,0.25029 -0.0617,0.446 -2.26166,0.4349 -2.2,-0.0111 -2.98225,-0.21589 -1.73834,-0.45508 z m 13.98834,0.045 c 0.6875,-0.27741 1.8125,-0.27741 2.5,0 0.6875,0.27741 0.125,0.50439 -1.25,0.50439 -1.375,0 -1.9375,-0.22698 -1.25,-0.50439 z m -121.12646,-1.87638 c -0.96498,-2.51469 -0.68031,-3.16355 0.49853,-1.13634 0.58369,1.00375 0.8506,2.03566 0.59313,2.29313 -0.25747,0.25747 -0.74872,-0.26309 -1.09166,-1.15679 z M 280.36996,187 c 0,-5.775 0.16528,-8.1375 0.36728,-5.25 0.202,2.8875 0.202,7.6125 0,10.5 -0.202,2.8875 -0.36728,0.525 -0.36728,-5.25 z m 69.82499,5.5 c 0.0204,-1.65 0.2445,-2.20394 0.49804,-1.23097 0.25354,0.97297 0.23687,2.32297 -0.0371,3 -0.27393,0.67703 -0.48137,-0.11903 -0.46099,-1.76903 z m -1,-6 c 0.0204,-1.65 0.2445,-2.20394 0.49804,-1.23097 0.25354,0.97297 0.23687,2.32297 -0.0371,3 -0.27393,0.67703 -0.48137,-0.11903 -0.46099,-1.76903 z m 87.49255,-1.14583 C 435.3834,184.05007 436.00601,183 438.08333,183 c 1.16375,0 1.90861,0.52417 1.6875,1.1875 -0.48711,1.46134 -2.15686,2.09314 -3.08333,1.16667 z M 384.19495,177.5 c 0.0204,-1.65 0.2445,-2.20394 0.49804,-1.23097 0.25354,0.97297 0.23687,2.32297 -0.0371,3 -0.27393,0.67703 -0.48137,-0.11903 -0.46099,-1.76903 z m -58,-5 c 0.0204,-1.65 0.2445,-2.20394 0.49804,-1.23097 0.25354,0.97297 0.23687,2.32297 -0.0371,3 -0.27393,0.67703 -0.48137,-0.11903 -0.46099,-1.76903 z M 576,171.94098 c 0,-0.58246 0.45,-0.7809 1,-0.44098 0.55,0.33992 1,0.81648 1,1.05902 0,0.24254 -0.45,0.44098 -1,0.44098 -0.55,0 -1,-0.47656 -1,-1.05902 z M 280.18025,140.44113 c -0.14442,-23.28235 -0.46202,-29.44474 -1.59771,-31 -1.30507,-1.78721 -3.10899,-1.98078 -22.75,-2.44113 L 234.5,106.5 V 90 73.5 l 68.28641,-0.219347 68.2864,-0.219347 0.82161,2.219347 C 372.34631,76.501294 372.66743,84.025 372.60802,92 L 372.5,106.5 350.21189,107 c -18.2886,0.41028 -22.47304,0.76917 -23.31865,2 -0.68292,0.99403 -0.83333,11.28046 -0.44591,30.49532 0.5356,26.56335 0.45262,28.80685 -0.98928,26.74825 -0.86565,-1.23589 -1.2795,-2.72345 -0.91966,-3.30568 C 325.64345,161.14985 322.92693,156 320.87868,156 319.84541,156 319,155.49752 319,154.88337 c 0,-0.66015 -0.90474,-0.88004 -2.21312,-0.53789 C 314.45044,154.95647 311,152.64419 311,150.46746 c 0,-1.78245 2.48743,-3.56771 3.57379,-2.56496 0.50942,0.47021 2.61371,1.15489 4.67621,1.52152 3.19448,0.56786 3.74529,0.40065 3.7182,-1.12871 -0.0175,-0.98742 -0.6449,-2.60372 -1.39423,-3.59179 -0.74933,-0.98806 -1.13254,-2.67556 -0.85157,-3.75 C 321.00397,139.87681 320.7324,139 320.11663,139 319.50248,139 319,139.44469 319,139.98821 c 0,0.54352 -0.7875,0.92222 -1.75,0.84156 -4.1319,-0.34627 -6.25,0.24801 -6.25,1.75356 0,0.87084 -0.5625,1.37709 -1.25,1.125 -0.6875,-0.25208 -1.12171,-1.01195 -0.96491,-1.68859 0.15679,-0.67664 -0.22894,-1.84962 -0.8572,-2.60662 -0.91704,-1.10497 -1.48891,-1.13351 -2.90022,-0.14474 -1.09448,0.7668 -5.05253,1.1979 -10.48744,1.14227 -8.2911,-0.0849 -8.78457,0.0315 -9.82603,2.31728 -0.87537,1.92121 -0.72367,3.09902 0.7521,5.83935 2.03463,3.77809 4.5337,4.56783 4.5337,1.43272 0,-1.8853 1.94808,-2.71858 3.26856,-1.3981 0.81107,0.81107 -2.38849,7.3981 -3.59353,7.3981 -0.525,0 -1.49493,-0.73902 -2.15539,-1.64226 -1.9549,-2.67348 -6.28694,3.81804 -6.77479,10.15195 -0.21139,2.74467 -0.46547,-8.08618 -0.5646,-24.06856 z m 9.19475,-9.23888 c 0.27117,-0.43876 0.0915,-1.44749 -0.39934,-2.24164 -0.67454,-1.09142 -1.17421,-1.16206 -2.04689,-0.28938 -0.63498,0.63498 -0.85216,1.64371 -0.48262,2.24164 0.78966,1.27769 2.23008,1.42001 2.92885,0.28938 z m 13.43333,-1.27725 c -0.19708,-0.59125 -0.78583,-1.075 -1.30833,-1.075 -0.5225,0 -1.11125,0.48375 -1.30833,1.075 -0.19709,0.59125 0.39166,1.075 1.30833,1.075 0.91667,0 1.50542,-0.48375 1.30833,-1.075 z m 9.62245,0.187 c 0.30185,-0.4884 -0.7966,-1.08546 -2.44098,-1.32681 -3.44902,-0.5062 -4.118,0.85841 -0.7398,1.50908 1.2375,0.23835 2.33594,0.49465 2.44098,0.56955 0.10504,0.0749 0.43795,-0.26342 0.7398,-0.75182 z M 296,126.5 c 0,-1.375 -0.45,-2.5 -1,-2.5 -0.55,0 -1,1.125 -1,2.5 0,1.375 0.45,2.5 1,2.5 0.55,0 1,-1.125 1,-2.5 z m -5,-2.5 c 0,-0.55 -0.45,-1 -1,-1 -0.55,0 -1,0.45 -1,1 0,0.55 0.45,1 1,1 0.55,0 1,-0.45 1,-1 z m 18,-4 c 0,-0.55 -0.45,-1 -1,-1 -0.55,0 -1,0.45 -1,1 0,0.55 0.45,1 1,1 0.55,0 1,-0.45 1,-1 z m 262.66667,45.33333 C 571.3,164.96667 571,164.20167 571,163.63333 c 0,-0.6266 0.46577,-0.56756 1.18333,0.15 0.65084,0.65084 0.95084,1.41584 0.66667,1.7 -0.28417,0.28417 -0.81667,0.21667 -1.18333,-0.15 z m -131.93546,-2.41349 c 0.35361,-1.3522 0.8069,-1.8055 1.05655,-1.05655 0.24048,0.72144 -0.0382,1.78716 -0.61931,2.36826 -0.74207,0.74207 -0.87221,0.35164 -0.43724,-1.31171 z M 448,161 c 0,-0.55 0.42344,-1 0.94098,-1 0.51754,0 1.2191,0.45 1.55902,1 0.33992,0.55 -0.0835,1 -0.94098,1 C 448.70156,162 448,161.55 448,161 Z m -151.75,-8.71828 c -1.67077,-0.59932 -1.58496,-1.93921 0.16724,-2.61159 0.77948,-0.29911 1.65983,0.0883 1.95633,0.86099 0.62237,1.62187 -0.31901,2.39791 -2.12357,1.7506 z M 661.66667,100.33333 C 661.3,99.966667 661,94.621767 661,88.455778 c 0,-12.02401 -0.18417,-12.495054 -5.5,-14.067307 -2.42241,-0.716472 -1.38771,-0.943722 5.37422,-1.180337 4.60582,-0.161168 8.58082,-0.08643 8.83333,0.166083 0.25251,0.252514 -0.48586,1.404095 -1.64084,2.559069 -1.76477,1.764773 -2.07006,3.174683 -1.91267,8.833333 C 666.5254,98.118602 666.17265,101 664.16667,101 c -1.00834,0 -2.13334,-0.3 -2.5,-0.66667 z M 682,87 V 73 h 2.94547 c 2.62979,0 3.33971,0.75024 6.62387,7 2.02312,3.85 4.2549,7 4.95951,7 1.49473,0 5.88262,-7.230751 6.86381,-11.310799 0.58985,-2.452736 1.08561,-2.771208 3.89165,-2.5 L 710.5,73.5 V 87 c 0,11.333333 -0.24074,13.5 -1.5,13.5 -1.15639,0 -1.6254,-1.767096 -2.04744,-7.714106 -0.30109,-4.242759 -0.84418,-8.010851 -1.20687,-8.373539 -1.29616,-1.296162 -3.85948,0.615745 -5.23307,3.903193 -1.76448,4.222996 -4.21337,6.3837 -5.6298,4.967276 -0.56782,-0.567827 -1.63043,-2.776255 -2.36134,-4.907618 -1.37475,-4.008837 -4.1374,-5.588878 -5.63634,-3.223599 -0.46998,0.741616 -0.86141,4.610893 -0.86983,8.598393 -0.0139,6.57823 -0.20063,7.25 -2.01531,7.25 -1.90476,0 -2,-0.66667 -2,-14 z"
       id="path171"
       inkscape:connector-curvature="0" />
    <path
       style="fill:#58a143"
       d="m 185.65037,238.24331 c -0.99789,-1.61462 -1.14517,-126.1419 -0.15037,-127.13898 0.5706,-0.57191 10.28846,-1.2369 22.63142,-1.54866 19.29585,-0.48737 21.77919,-0.36835 23,1.10231 1.11111,1.3385 1.41085,11.07334 1.59326,51.74534 0.12357,27.55317 0.0385,49.64668 -0.18904,49.09668 -0.22754,-0.55 -0.58176,-17.2 -0.78715,-37 -0.32917,-31.7324 -0.57854,-36.38915 -2.10355,-39.2827 -0.95157,-1.80548 -2.10996,-3.04793 -2.57422,-2.76101 -0.46426,0.28693 -1.31703,-0.0481 -1.89505,-0.74461 -1.45033,-1.74756 -32.39596,-1.60367 -34.52166,0.1605 -0.80838,0.6709 -2.18623,2.72962 -3.0619,4.57495 C 186.20318,139.37409 186,146.06392 186,188.86838 v 49.06612 l 11.25,0.31899 11.25,0.319 -11.19098,0.21375 c -6.15504,0.11757 -11.40143,-0.12675 -11.65865,-0.54293 z m 27.16213,-1.92642 c 0.72187,-0.28887 1.58437,-0.25335 1.91667,0.0789 0.33229,0.33229 -0.25834,0.56864 -1.3125,0.52522 -1.16495,-0.048 -1.4019,-0.28494 -0.60417,-0.60416 z m 3.92083,-1.44098 c 0.67834,-0.68342 1.48524,-0.99067 1.79313,-0.68278 0.30789,0.30789 -0.24711,0.86705 -1.23333,1.24258 -1.4252,0.54268 -1.54006,0.42782 -0.5598,-0.5598 z M 224,230.5 c 1.29175,-1.375 2.57363,-2.5 2.84863,-2.5 0.275,0 -0.55688,1.125 -1.84863,2.5 -1.29175,1.375 -2.57363,2.5 -2.84863,2.5 -0.275,0 0.55688,-1.125 1.84863,-2.5 z m 4.6954,-6.98744 c 0.91468,-1.9181 1.84058,-3.30991 2.05756,-3.09293 0.45746,0.45746 -2.5782,6.58037 -3.26246,6.58037 -0.25198,0 0.29023,-1.56935 1.2049,-3.48744 z"
       id="path169"
       inkscape:connector-curvature="0" />
    <path
       style="fill:#1b508d"
       d="m 431.5,238.00157 c -30.94036,-0.66026 -32.24835,-0.7687 -39.5,-3.27477 -11.02277,-3.80931 -17.9283,-7.94554 -25.10732,-15.03863 -7.68019,-7.58826 -9.77916,-10.47323 -12.86909,-17.68817 -3.4267,-8.00128 -4.91767,-18.00662 -4.32151,-29 0.56116,-10.348 1.24556,-12.04909 4.00554,-9.95585 1.53066,1.1609 1.60986,1.15471 0.54238,-0.0424 -2.27288,-2.54885 -1.52212,-5.71373 1.5,-6.32329 2.78315,-0.56136 5.77365,1.66522 4.65895,3.46884 -0.28984,0.46897 -0.0504,0.85268 0.53203,0.85268 0.58246,0 1.05902,-0.87344 1.05902,-1.94098 0,-1.06754 0.45,-2.2191 1,-2.55902 0.55,-0.33992 1,0.0284 1,0.81854 0,2.27955 2.6558,4.07956 3.66928,2.48691 0.4569,-0.718 1.87848,-1.89378 3.15908,-2.61286 1.8896,-1.06104 2.64337,-1.06725 4,-0.033 0.9194,0.70095 1.85638,1.39902 2.08218,1.55128 0.22579,0.15226 -0.34806,1.11508 -1.27523,2.13959 -1.50468,1.66265 -1.52193,1.99872 -0.16054,3.12857 1.21799,1.01085 1.82738,1.01506 3.02523,0.0209 1.22851,-1.01957 1.5,-0.95124 1.5,0.37756 0,0.89234 0.62252,1.62244 1.38337,1.62244 1.69132,0 2.57776,3.0393 2.62494,9 0.0401,5.06097 3.21324,13.00228 5.1928,12.99565 0.71439,-0.002 4.19258,-2.70239 7.72931,-6 3.53673,-3.29761 6.68673,-5.99694 7,-5.99852 0.31327,-0.002 3.63809,-2.92658 7.38849,-6.5 C 417.3776,163.72435 422,161.30487 422,163.90638 c 0,0.49851 0.9,0.67103 2,0.38337 2.43995,-0.63806 2.55944,0.43459 0.32363,2.90514 -1.13815,1.25764 -1.34929,2.17945 -0.65762,2.87112 1.5585,1.5585 3.34449,-1.23021 3.93722,-6.14772 0.28308,-2.34857 0.92452,-5.03589 1.42543,-5.97183 0.89313,-1.66884 5.41666,-3.16781 6.44784,-2.13663 1.29238,1.29239 0.34912,4.42301 -1.4765,4.90042 -1.1,0.28766 -2,0.96931 -2,1.51479 0,1.28299 4.83067,0.0871 6.53577,-1.61795 0.71179,-0.71179 1.21993,-2.08976 1.1292,-3.06216 -0.0959,-1.02828 0.81535,-2.14065 2.17808,-2.65866 1.91922,-0.72956 2.43775,-0.5285 2.86663,1.11153 0.28797,1.10121 1.0336,2.05201 1.65695,2.11289 2.76552,0.2701 6.30735,-0.28313 8.34928,-1.30415 2.7576,-1.37887 5.61661,0.57041 4.76626,3.24964 -0.35359,1.11406 0.19612,2.30551 1.47796,3.20334 2.04033,1.4291 2.04034,1.43008 0.0404,3.23999 -1.7989,1.62798 -2.00054,1.64365 -2.00054,0.15548 0,-2.1019 -3.84606,-2.21973 -4.64326,-0.14226 -0.31927,0.83201 -0.0404,2.16347 0.61963,2.9588 0.98481,1.18662 0.72506,1.5653 -1.44776,2.11065 -1.58662,0.39821 -2.45047,1.17908 -2.1553,1.94827 0.27307,0.71161 -4.60246,6.45491 -10.94036,12.88755 C 434.14483,192.80012 429,198.44039 429,198.95191 c 0,2.10665 3.45275,2.40099 25.82184,2.20129 12.8846,-0.11503 24.15815,0.0245 25.05235,0.31007 1.40417,0.44844 1.673,2.97426 1.97196,18.52798 L 482.1923,238 l -5.84615,0.011 c -3.21538,0.006 -7.42115,0.16005 -9.34615,0.34222 -1.925,0.18217 -17.9,0.0239 -35.5,-0.35166 z m 8.27083,-53.81407 c 0.22111,-0.66333 -0.52375,-1.1875 -1.6875,-1.1875 -2.07732,0 -2.69993,1.05007 -1.39583,2.35417 0.92647,0.92647 2.59622,0.29467 3.08333,-1.16667 z m 1.01693,-22.32421 c -0.24965,-0.74895 -0.70294,-0.29565 -1.05655,1.05655 -0.43497,1.66335 -0.30483,2.05378 0.43724,1.31171 0.5811,-0.5811 0.85979,-1.64682 0.61931,-2.36826 z M 450.5,161 c -0.33992,-0.55 -1.04148,-1 -1.55902,-1 -0.51754,0 -0.94098,0.45 -0.94098,1 0,0.55 0.70156,1 1.55902,1 0.85746,0 1.2809,-0.45 0.94098,-1 z m -169.6526,75.86568 c -0.25044,-0.75112 -0.35357,-18.37732 -0.22915,-39.16932 l 0.2262,-37.80364 2.73717,-3.58861 c 2.42999,-3.18589 2.87194,-3.40432 3.93802,-1.94637 0.66046,0.90324 1.63039,1.64226 2.15539,1.64226 1.20504,0 4.4046,-6.58703 3.59353,-7.3981 C 291.94808,147.28142 290,148.1147 290,150 c 0,3.13511 -2.49907,2.34537 -4.5337,-1.43272 -1.47577,-2.74033 -1.62747,-3.91814 -0.7521,-5.83935 1.04146,-2.28578 1.53493,-2.40215 9.82603,-2.31728 5.43491,0.0556 9.39296,-0.37547 10.48744,-1.14227 1.41131,-0.98877 1.98318,-0.96023 2.90022,0.14474 0.62826,0.757 1.01399,1.92998 0.8572,2.60662 -0.1568,0.67664 0.27741,1.43651 0.96491,1.68859 0.6875,0.25209 1.25,-0.25416 1.25,-1.125 0,-1.50555 2.1181,-2.09983 6.25,-1.75356 0.9625,0.0807 1.75,-0.29804 1.75,-0.84156 0,-0.54352 0.50248,-0.98821 1.11663,-0.98821 0.61545,0 0.88734,0.87681 0.60577,1.95352 -0.28097,1.07444 0.10224,2.76194 0.85157,3.75 0.74933,0.98807 1.37673,2.60437 1.39423,3.59179 0.0271,1.52936 -0.52372,1.69657 -3.7182,1.12871 -2.0625,-0.36663 -4.16679,-1.05131 -4.67621,-1.52152 -1.08636,-1.00275 -3.57379,0.78251 -3.57379,2.56496 0,2.17673 3.45044,4.48901 5.78688,3.87802 1.30838,-0.34215 2.21312,-0.12226 2.21312,0.53789 0,0.61415 0.84541,1.11663 1.87868,1.11663 2.03234,0 4.76838,5.14402 3.67608,6.9114 -0.35083,0.56766 -0.01,2.05732 0.75786,3.31035 1.10245,1.79951 1.37385,7.42653 1.29156,26.77825 l -0.10418,24.5 -3.14066,6 c -3.82986,7.31667 -5.32965,8.72117 -12.35934,11.57402 -6.89965,2.80007 -29.37115,4.13532 -30.1526,1.79166 z m 17.52617,-86.33456 c -0.2965,-0.77266 -1.17685,-1.1601 -1.95633,-0.86099 -1.7522,0.67238 -1.83801,2.01227 -0.16724,2.61159 1.80456,0.64731 2.74594,-0.12873 2.12357,-1.7506 z M 489,236.94665 c 0,-0.99516 7.81848,-11.2472 14.46689,-18.96983 1.66821,-1.93774 4.83311,-5.74312 7.03311,-8.45639 2.2,-2.71327 5.09554,-5.9814 6.43454,-7.26252 1.33899,-1.28111 3.36399,-3.86443 4.5,-5.74071 C 523.8765,192.48395 533.79084,182 535.163,182 c 0.52527,0 0.70961,-0.39711 0.40964,-0.88246 -0.29996,-0.48536 0.34848,-2.01884 1.44099,-3.40773 1.0925,-1.3889 1.98637,-3.38574 1.98637,-4.43743 0,-1.05169 1.34873,-3.42284 2.99719,-5.26923 l 2.99718,-3.35706 2.49293,2.34197 c 2.06955,1.94425 2.88758,2.16216 4.81684,1.28313 1.49188,-0.67974 2.92755,-0.72103 4.00989,-0.11533 2.37673,1.33009 2.17836,-0.66347 -0.31403,-3.15586 -1.1,-1.1 -2.75,-2 -3.66667,-2 -3.23495,0 -0.17941,-1.44031 3.31281,-1.56158 1.94747,-0.0676 3.83629,-0.57091 4.19736,-1.11841 0.57786,-0.8762 5.1565,-2.54162 5.1565,-1.87561 0,1.35317 -2.57102,7.22025 -3.4138,7.79029 -0.6662,0.4506 -0.42313,0.74061 0.62862,0.75 C 563.15797,166.99311 564.4113,166.1 565,165 c 0.5887,-1.1 1.73564,-2 2.54875,-2 0.81311,0 2.25978,-0.38968 3.21482,-0.86596 0.95504,-0.47627 3.31143,-1.38566 5.23643,-2.02085 3.13436,-1.03425 3.68282,-0.93221 5.25,0.97674 2.38028,2.89938 2.20035,6.36711 -0.42069,8.10741 -1.21209,0.8048 -1.86036,1.9434 -1.46797,2.5783 0.95324,1.54238 3.33318,0.50052 3.9119,-1.7125 0.28502,-1.08993 1.67819,-1.97578 3.53613,-2.24847 2.67117,-0.39204 2.94512,-0.22446 2.12822,1.30194 -1.77631,3.31906 -0.92218,5.73693 4.31241,12.2076 2.8875,3.56935 6.825,8.61862 8.75,11.22061 1.925,2.602 6.11439,7.48136 9.30974,10.84304 9.50936,10.00431 27.55324,32.10268 27.64931,33.86214 0.0225,0.4125 -10.44804,0.75 -23.26792,0.75 -25.63837,0 -23.99847,0.38425 -29.87405,-7 -1.96933,-2.475 -4.64631,-5.64146 -5.94884,-7.03658 -1.30253,-1.39512 -3.09503,-3.64512 -3.98332,-5 C 572.9495,214.48614 564.83805,206 563.49388,206 c -1.30629,0 -3.39287,2.41238 -18.99388,21.9596 l -8,10.02357 -23.75,0.008 C 496.77614,237.99717 489,237.6547 489,236.94623 Z m 89,-64.38763 c 0,-0.24254 -0.45,-0.7191 -1,-1.05902 -0.55,-0.33992 -1,-0.14148 -1,0.44098 0,0.58246 0.45,1.05902 1,1.05902 0.55,0 1,-0.19844 1,-0.44098 z m -5.81667,-8.77569 c -0.71756,-0.71756 -1.18333,-0.7766 -1.18333,-0.15 0,1.33478 1.18261,2.51739 1.85,1.85 0.28417,-0.28416 -0.0158,-1.04916 -0.66667,-1.7 z m -36.27476,-0.95416 c -0.96419,-1.80162 -0.84949,-2.3992 0.67438,-3.51348 2.22932,-1.63012 3.80351,-1.23553 4.24963,1.06522 0.34517,1.78014 -1.44939,4.61909 -2.91984,4.61909 -0.46331,0 -1.36518,-0.97688 -2.00417,-2.17083 z M 547,162 c 0,-0.55 0.47656,-1 1.05902,-1 0.58246,0 0.7809,0.45 0.44098,1 -0.33992,0.55 -0.81648,1 -1.05902,1 C 547.19844,163 547,162.55 547,162 Z m 20.55279,-0.91459 c -0.32198,-0.52097 -0.15917,-1.21065 0.3618,-1.53262 0.52097,-0.32198 1.21065,-0.15917 1.53262,0.3618 0.32198,0.52097 0.15917,1.21065 -0.3618,1.53262 -0.52097,0.32198 -1.21065,0.15917 -1.53262,-0.3618 z M 422.5,160 c 0.33992,-0.55 0.81648,-1 1.05902,-1 0.24254,0 0.44098,0.45 0.44098,1 0,0.55 -0.47656,1 -1.05902,1 -0.58246,0 -0.7809,-0.45 -0.44098,-1 z m 44.5,-0.72427 c 0,-0.43705 0.9,-1.3567 2,-2.04366 1.10788,-0.69188 2,-0.81487 2,-0.27573 0,0.53531 -0.9,1.45496 -2,2.04366 -1.1,0.5887 -2,0.71278 -2,0.27573 z M 592,158 c 0,-0.55 0.675,-1 1.5,-1 0.825,0 1.5,0.45 1.5,1 0,0.55 -0.675,1 -1.5,1 -0.825,0 -1.5,-0.45 -1.5,-1 z M 366,146.40638 C 366,145.63287 366.9,145 368,145 c 1.1,0 2,0.39752 2,0.88337 0,0.48585 -0.9,1.11872 -2,1.40638 -1.29986,0.33992 -2,0.0307 -2,-0.88337 z m 106,0.0346 c 0,-0.85746 0.45,-1.2809 1,-0.94098 0.55,0.33992 1,1.04148 1,1.55902 0,0.51754 -0.45,0.94098 -1,0.94098 -0.55,0 -1,-0.70156 -1,-1.55902 z m -97.82712,-1.10017 c 0.42145,-2.18841 3.32712,-2.49801 3.32712,-0.35451 0,0.81747 -0.82837,1.64584 -1.84081,1.84082 -1.3364,0.25736 -1.74367,-0.14991 -1.48631,-1.48631 z m -87.72673,-14.42794 c -0.36954,-0.59793 -0.15236,-1.60666 0.48262,-2.24164 0.87268,-0.87268 1.37235,-0.80204 2.04689,0.28938 C 289.92877,130.50279 289.44816,132 288,132 c -0.48508,0 -1.18431,-0.48921 -1.55385,-1.08713 z m 13.74552,-0.98787 c 0.19708,-0.59125 0.78583,-1.075 1.30833,-1.075 0.5225,0 1.11125,0.48375 1.30833,1.075 0.19709,0.59125 -0.39166,1.075 -1.30833,1.075 -0.91667,0 -1.50542,-0.48375 -1.30833,-1.075 z m 9.05833,0.36927 c -3.3782,-0.65067 -2.70922,-2.01528 0.7398,-1.50908 1.64438,0.24135 2.74283,0.83841 2.44098,1.32681 -0.30185,0.4884 -0.63476,0.82672 -0.7398,0.75182 -0.10504,-0.0749 -1.20348,-0.3312 -2.44098,-0.56955 z M 294,126.5 c 0,-1.375 0.45,-2.5 1,-2.5 0.55,0 1,1.125 1,2.5 0,1.375 -0.45,2.5 -1,2.5 -0.55,0 -1,-1.125 -1,-2.5 z m -5,-2.5 c 0,-0.55 0.45,-1 1,-1 0.55,0 1,0.45 1,1 0,0.55 -0.45,1 -1,1 -0.55,0 -1,-0.45 -1,-1 z m 18,-4 c 0,-0.55 0.45,-1 1,-1 0.55,0 1,0.45 1,1 0,0.55 -0.45,1 -1,1 -0.55,0 -1,-0.45 -1,-1 z"
       id="path167"
       inkscape:connector-curvature="0" />
    <path
       style="fill:#23534a"
       d="m 186,188.90113 c 0,-42.83442 0.20314,-49.52695 1.59211,-52.454 0.87567,-1.84533 2.25352,-3.90405 3.0619,-4.57495 2.1257,-1.76417 33.07133,-1.90806 34.52166,-0.1605 0.57802,0.69646 1.43079,1.03154 1.89505,0.74461 0.46426,-0.28692 1.62667,0.95553 2.58314,2.76101 1.54278,2.91222 1.78555,7.64728 2.15112,41.95576 l 0.41208,38.67306 -2.66631,5.824 c -4.04221,8.82935 -5.67723,10.22073 -17.8478,15.18824 -1.53838,0.6279 -7.95088,1.14164 -14.25,1.14164 L 186,238 Z"
       id="path165"
       inkscape:connector-curvature="0" />
  </g>
</svg>
